<svg width="80" height="80" viewBox="0 0 80 80" fill="none" xmlns="http://www.w3.org/2000/svg">
<path d="M40 0L74.641 20V60L40 80L5.35898 60V20L40 0Z" fill="#AEE0FD"/>
<g clip-path="url(#clip0_70_1295)">
<path d="M63 49.653V25.5521L56.6111 20V24.9211H42.6833L39.3611 38.1703L42.6833 49.653H63Z" fill="#928BFF"/>
<path d="M42.6834 24.9209H22.3667V49.6528H42.6834V24.9209Z" fill="#BCB8FF"/>
<path d="M17 30.3467V54.4476L23.3889 59.9997V55.0785H37.3167L40.6389 41.8293L37.3167 30.3467H17Z" fill="#F5F8FF"/>
<path d="M57.6333 30.3467H37.3167V55.0785H57.6333V30.3467Z" fill="#E5EEFF"/>
<path d="M51.8833 38.6748H42.0444V41.3246H51.8833V38.6748Z" fill="#D3DDF7"/>
<path d="M35.4 38.675V41.3249H37.3167L38.85 39.9368L37.3167 38.5488H35.4V38.675Z" fill="#E5EEFF"/>
<path d="M35.4 44.1006V46.7504H37.3167L39.1056 45.6148L37.3167 44.1006H35.4Z" fill="#E5EEFF"/>
<path d="M39.3611 38.6748H37.3167V41.3246H39.3611V38.6748Z" fill="#D3DDF7"/>
<path d="M51.8833 44.1006H37.3167V46.7504H51.8833V44.1006Z" fill="#D3DDF7"/>
<path d="M24.9223 45.8672L20.8334 41.8293L22.75 39.9366L24.9223 42.0817L30.1612 36.9082L32.0778 38.8009L24.9223 45.8672Z" fill="#C2E852"/>
</g>
<defs>
<clipPath id="clip0_70_1295">
<rect width="46" height="40" fill="white" transform="translate(17 20)"/>
</clipPath>
</defs>
</svg>
