<svg width="80" height="80" viewBox="0 0 80 80" fill="none" xmlns="http://www.w3.org/2000/svg">
<path d="M40 0L74.641 20V60L40 80L5.35898 60V20L40 0Z" fill="#C6EBA9"/>
<g clip-path="url(#clip0_76_71)">
<path d="M58 28H22V52H58V28Z" fill="#928BFF"/>
<path d="M58.0986 28H40.0493V52H58.0986V28Z" fill="#736DD9"/>
<path d="M28.3123 45.6533H26.2411V47.736H28.3123V45.6533Z" fill="#F0F5FD"/>
<path d="M32.5534 45.6533H30.4822V47.736H32.5534V45.6533Z" fill="#F0F5FD"/>
<path d="M36.6959 45.6533H34.6246V47.736H36.6959V45.6533Z" fill="#F0F5FD"/>
<path d="M49.5178 45.6533H47.4465V47.736H49.5178V45.6533Z" fill="#D3DDF7"/>
<path d="M53.7589 45.6533H51.6876V47.736H53.7589V45.6533Z" fill="#D3DDF7"/>
<path d="M53.7589 32.2646H47.4465V34.3473H53.7589V32.2646Z" fill="#928BFF"/>
<path d="M32.1589 33.2559H27.2274V37.5203H32.1589V33.2559Z" fill="#FFD845"/>
<path d="M33.2438 38.6118H26.2411V32.2646H33.2438V38.6118ZM28.3123 36.5291H31.1726V34.3473H28.3123V36.5291Z" fill="#FFF26B"/>
<path d="M26.2411 41.3882V43.4709H40.0493L40.7397 42.38L40.0493 41.2891H26.2411V41.3882Z" fill="#BCB8FF"/>
<path d="M53.8575 41.3887H40.0493V43.4713H53.8575V41.3887Z" fill="#928BFF"/>
<path d="M38.9644 47.7355H40.0493L40.7397 46.6446L40.0493 45.5537H38.9644V47.7355Z" fill="#F0F5FD"/>
<path d="M41.1342 45.6533H40.0493V47.736H41.1342V45.6533Z" fill="#D3DDF7"/>
</g>
<defs>
<clipPath id="clip0_76_71">
<rect width="36" height="24" fill="white" transform="translate(22 28)"/>
</clipPath>
</defs>
</svg>
