<svg width="80" height="80" viewBox="0 0 80 80" fill="none" xmlns="http://www.w3.org/2000/svg">
<path d="M40 0L74.641 20V60L40 80L5.35898 60V20L40 0Z" fill="#FFADAD"/>
<g clip-path="url(#clip0_70_1298)">
<path d="M22 20V60H36.979L40.2517 40.5L36.979 22.375L30.3077 20H22Z" fill="#57588E"/>
<path d="M52.0839 20H43.7762L36.979 22.875V60H42.1398L52.0839 56.5V20Z" fill="#3C3673"/>
<path d="M30.3077 20V26.375H37.1049L39.6224 23L37.1049 20.125H30.3077V20Z" fill="#FFE643"/>
<path d="M43.7762 20H36.979V26.375H43.7762V20Z" fill="#FFCA00"/>
<path d="M25.9021 23.875V56.125H36.979L40.1259 38.75L36.979 23.875H25.9021Z" fill="#F5F8FF"/>
<path d="M48.0559 23.875H36.979V56.125H48.0559V23.875Z" fill="#E5EEFF"/>
<path d="M35.8462 32.875L34.2099 31.25L32.5735 32.875L35.8462 36.125L37.105 35L37.6085 33.25L37.105 31.625L35.8462 32.875Z" fill="#C2E852"/>
<path d="M40 28.625L37.1049 31.625V35L41.7622 30.375L40 28.625Z" fill="#79D956"/>
<path d="M46.6714 50.5C46.9231 51 47.4266 51.375 47.8042 51.625L43.2728 54.125C42.5175 54.5 42.1399 55.25 42.1399 56V60H50.1958L51.8322 56.5L50.1958 50.5H46.6714Z" fill="#75E0F6"/>
<path d="M58 56C58 55.25 57.6224 54.5 56.8672 54.125L52.4616 51.75C52.9651 51.375 53.3427 51 53.5944 50.5H50.0699V60H58V56Z" fill="#01BAFE"/>
<path d="M50.1958 45C48.6853 45 47.1749 46.125 46.042 47V48.5C46.042 50.75 47.9301 52.625 50.1958 52.625L51.9581 48.875L50.1958 45Z" fill="#FED7C3"/>
<path d="M54.3496 47C53.2168 46.125 51.7063 45 50.1958 45V52.75C52.4615 52.75 54.3496 50.875 54.3496 48.625V47Z" fill="#FEC4B2"/>
<path d="M50.1958 43C47.9301 43 46.042 44.75 46.042 47C47.1749 46.125 48.5595 45.625 50.1958 45.625L51.3287 44.25L50.1958 43Z" fill="#FFAD00"/>
<path d="M54.3496 47C54.3496 44.75 52.4615 43 50.1958 43V45.625C51.7063 45.625 53.2168 46.125 54.3496 47Z" fill="#FF8400"/>
<path d="M31.3147 41.875V44.25H36.979L38.7413 43.125L36.979 42H31.3147V41.875Z" fill="#E5EEFF"/>
<path d="M31.3147 46.5V48.875H36.979L38.4895 47.75L36.979 46.625H31.3147V46.5Z" fill="#E5EEFF"/>
<path d="M42.6433 41.875H36.979V44.25H42.6433V41.875Z" fill="#D3DDF7"/>
<path d="M42.6433 46.5H36.979V48.875H42.6433V46.5Z" fill="#D3DDF7"/>
</g>
<defs>
<clipPath id="clip0_70_1298">
<rect width="36" height="40" fill="white" transform="translate(22 20)"/>
</clipPath>
</defs>
</svg>
