<svg width="80" height="80" viewBox="0 0 80 80" fill="none" xmlns="http://www.w3.org/2000/svg">
<path d="M40 0L74.641 20V60L40 80L5.35898 60V20L40 0Z" fill="#D9C8FF"/>
<g clip-path="url(#clip0_70_1297)">
<path d="M38.0167 55.8663H42.5667L43.9667 48.633L42.5667 40.583H38.0167V55.8663Z" fill="#FFE643"/>
<path d="M47.1167 40.583H42.5667V55.983H47.1167V40.583Z" fill="#FFCA00"/>
<path d="M26.4667 55.8667H31.0167L32.4167 50.85L31.0167 45.25H26.4667V55.8667Z" fill="#BCB8FF"/>
<path d="M35.6833 45.25H31.1333V55.8667H35.6833V45.25Z" fill="#928BFF"/>
<path d="M49.5667 55.8669H54.1167L55.5166 46.1835L54.1167 35.4502H49.5667V55.8669Z" fill="#C2E852"/>
<path d="M58.6667 35.4502H54.1167V55.8669H58.6667V35.4502Z" fill="#79D956"/>
<path d="M54.7 20.75V23.2H56.6833L50.9667 28.9167L43.0333 23.6667L35.3333 30.55H23.3167V33H36.2667L43.3833 26.8167L51.55 32.0667L58.6667 24.95V27.05H61V20.75H54.7Z" fill="#F93778"/>
<path d="M61 55.4H24.6V19H22.0333V25.7667H19V28.2167H22.0333V35.5667H19V38.0167H22.0333V45.3667H19V47.8167H22.0333V55.4H19V57.85H22.0333V61H24.4833V57.85H61V55.4Z" fill="#57588E"/>
</g>
<defs>
<clipPath id="clip0_70_1297">
<rect width="42" height="42" fill="white" transform="translate(19 19)"/>
</clipPath>
</defs>
</svg>
