<svg width="80" height="80" viewBox="0 0 80 80" fill="none" xmlns="http://www.w3.org/2000/svg">
<path d="M40 0L74.641 20V60L40 80L5.35898 60V20L40 0Z" fill="#FBBCDE"/>
<g clip-path="url(#clip0_70_1296)">
<path d="M21.52 21.52H25.216V19H19V25.216H21.52V21.52Z" fill="#57588E"/>
<path d="M54.7839 19V21.52H58.4799V25.216H60.9999V19H54.7839Z" fill="#3C3673"/>
<path d="M21.52 54.7842H19V61.0002H25.216V58.4802H21.52V54.7842Z" fill="#57588E"/>
<path d="M58.4799 58.4802H54.7839V61.0002H60.9999V54.7842H58.4799V58.4802Z" fill="#3C3673"/>
<path d="M38.824 55.12V58.48C34.288 58.144 30.088 56.296 26.896 53.104C23.704 49.912 21.856 45.712 21.52 41.176H25.048V38.656H21.52C21.856 34.12 23.704 30.088 26.896 26.896C30.088 23.704 34.288 21.856 38.824 21.52V24.88H40L40.672 22.024L40 19C34.456 19 29.08 21.184 25.216 25.216C21.184 29.08 19 34.456 19 40C19 45.544 21.184 50.92 25.216 54.784C29.08 58.816 34.456 61 40 61L40.504 58.48L40 55.12H38.824Z" fill="#FA7774"/>
<path d="M54.784 25.216C50.92 21.184 45.544 19 40 19V24.712H41.176V21.352C45.712 21.688 49.912 23.536 53.104 26.728C56.296 29.92 58.144 34.12 58.48 38.488H55.288V41.008H58.48C58.144 45.544 56.296 49.744 53.104 52.936C49.912 56.128 45.712 57.976 41.176 58.312V54.952H40V61C45.544 61 50.92 58.816 54.784 54.784C58.816 50.752 61 45.544 61 40C61 34.456 58.816 29.08 54.784 25.216Z" fill="#F93778"/>
<path d="M35.296 37.8164C35.8 38.4884 36.304 38.9924 36.976 39.4964L30.76 42.8564C29.752 43.3604 29.08 44.3684 29.08 45.5444V51.0884H40.168L42.352 46.2164L40.168 37.9844H35.296V37.8164Z" fill="#BCB8FF"/>
<path d="M50.92 45.5444C50.92 44.3684 50.248 43.3604 49.408 42.8564L43.36 39.4964C44.032 38.9924 44.536 38.4884 45.04 37.8164H40.168V50.9204H50.92V45.5444Z" fill="#928BFF"/>
<path d="M40.1681 30.2559C37.9841 30.2559 35.9681 31.7679 34.4561 33.1119V35.1279C34.4561 38.3199 36.9761 40.8399 40.1681 40.8399L42.5201 35.6319L40.1681 30.2559Z" fill="#FED7C3"/>
<path d="M45.88 32.9439C44.368 31.7679 42.352 30.0879 40.168 30.0879V40.8399C43.36 40.8399 45.88 38.3199 45.88 35.1279V32.9439C45.88 33.1119 45.88 33.1119 45.88 32.9439Z" fill="#FEC4B2"/>
<path d="M40.1681 27.4004C36.9761 27.4004 34.4561 29.9204 34.4561 32.9444C35.9681 31.7684 37.9841 30.9284 40.1681 30.9284L41.6801 29.0804L40.1681 27.4004Z" fill="#C68056"/>
<path d="M45.88 32.9444V27.4004H40.168V31.0964C42.184 31.0964 44.2 31.7684 45.88 32.9444Z" fill="#B96944"/>
</g>
<defs>
<clipPath id="clip0_70_1296">
<rect width="42" height="42" fill="white" transform="translate(19 19)"/>
</clipPath>
</defs>
</svg>
