<svg width="80" height="80" viewBox="0 0 80 80" fill="none" xmlns="http://www.w3.org/2000/svg">
<path d="M40 0L74.641 20V60L40 80L5.35898 60V20L40 0Z" fill="#FEE39C"/>
<g clip-path="url(#clip0_70_1294)">
<path d="M38.7823 36.0762V39.7291H22.8176V45.2762H25.5235V42.435H38.7823V45.2762H40.1353L40.947 41.0821L40.1353 36.2115H38.7823V36.0762Z" fill="#57588E"/>
<path d="M41.4882 39.7291V36.0762H40.1353V45.2762H41.4882V42.435H55.0176V45.2762H57.7235V39.7291H41.4882Z" fill="#3C3673"/>
<path d="M36.0765 25.6587C36.4824 26.1999 36.8882 26.6058 37.4294 27.0117L32.2882 29.8528C31.4765 30.2587 30.9353 31.2058 30.9353 32.0176V36.4823H40.1353L42.0294 32.4234L40.1353 25.5234H36.0765V25.6587Z" fill="#BCB8FF"/>
<path d="M49.0647 32.018C49.0647 31.0709 48.5235 30.2592 47.7118 29.8533L42.7059 27.0121C43.2471 26.6062 43.6529 26.2004 44.0588 25.6592H40V36.618H48.9294V32.018H49.0647Z" fill="#928BFF"/>
<path d="M40.1353 19.2998C38.3765 19.2998 36.753 20.6527 35.4 21.5998C35.4 21.5998 35.4 21.5998 35.4 21.7351V23.4939C35.4 26.0645 37.5647 28.2292 40.1353 28.2292L42.1647 23.8998L40.1353 19.2998Z" fill="#FED7C3"/>
<path d="M44.8705 21.5998C43.5176 20.5175 41.8941 19.2998 40.1353 19.2998V28.0939C42.7058 28.0939 44.8705 25.9292 44.8705 23.3586V21.5998C44.8705 21.7351 44.8705 21.7351 44.8705 21.5998Z" fill="#FEC4B2"/>
<path d="M40.1353 17C37.5647 17 35.4 19.0294 35.4 21.6C36.753 20.5176 38.3765 19.9765 40.1353 19.9765L41.353 18.4882L40.1353 17Z" fill="#C68056"/>
<path d="M44.8705 21.6C44.7353 19.0294 42.7058 17 40.1353 17V19.9765C41.8941 19.9765 43.5176 20.6529 44.8705 21.6Z" fill="#B96944"/>
<path d="M37.0236 55.0176C37.2942 55.4235 37.5648 55.694 37.9706 55.9646L34.1824 57.994C33.6412 58.2646 33.2354 58.9411 33.2354 59.6176V62.9999H40.0001L41.353 60.0235L40.0001 55.0176H37.0236Z" fill="#C2E852"/>
<path d="M46.6294 59.6176C46.6294 58.9411 46.2235 58.2646 45.6824 57.994L42.0294 55.9646C42.4353 55.694 42.7059 55.4235 42.9765 55.0176H40V62.9999H46.6294V59.6176Z" fill="#79D956"/>
<path d="M39.9999 48.5234C38.1058 48.5234 36.6176 50.0117 36.4823 51.9058V53.2587C36.4823 55.1528 37.9705 56.7764 39.9999 56.7764L41.4882 53.5293L39.9999 48.5234Z" fill="#FED7C3"/>
<path d="M43.5176 52.0415C43.5176 50.1474 41.8941 48.6592 40 48.6592V56.9121C41.8941 56.9121 43.5176 55.2886 43.5176 53.3945C43.5176 53.2592 43.5176 52.0415 43.5176 52.0415Z" fill="#FEC4B2"/>
<path d="M29.4471 57.994L25.7941 55.9646C26.2 55.694 26.4706 55.4235 26.7412 55.0176H20.7882C21.0588 55.4235 21.3294 55.694 21.7353 55.9646L17.9471 57.994C17.4059 58.3999 17 58.9411 17 59.6176V62.9999H30.3941V59.6176C30.3941 58.9411 29.9882 58.3999 29.4471 57.994Z" fill="#FA7774"/>
<path d="M27.2824 52.0415C27.2824 50.1474 25.6588 48.6592 23.7647 48.6592C21.8706 48.6592 20.3824 50.1474 20.2471 52.0415V53.3945C20.2471 55.2886 21.7353 56.9121 23.7647 56.9121C25.6588 56.9121 27.2824 55.2886 27.2824 53.3945C27.2824 53.2592 27.2824 52.0415 27.2824 52.0415Z" fill="#C68056"/>
<path d="M62.0529 57.994L58.4 55.9646C58.8058 55.694 59.0764 55.4235 59.347 55.0176H53.3941C53.6647 55.4235 53.9352 55.694 54.3411 55.9646L50.5529 57.994C50.0117 58.2646 49.6058 58.9411 49.6058 59.6176V62.9999H63V59.6176C63 58.9411 62.5941 58.3999 62.0529 57.994Z" fill="#8ECDD6"/>
<path d="M59.8882 52.0415C59.8882 50.1474 58.2647 48.6592 56.3706 48.6592C54.4764 48.6592 52.9882 50.1474 52.8529 52.0415V53.3945C52.8529 55.2886 54.3411 56.9121 56.3706 56.9121C58.2647 56.9121 59.8882 55.2886 59.8882 53.3945C59.8882 53.2592 59.8882 52.0415 59.8882 52.0415Z" fill="#B96944"/>
</g>
<defs>
<clipPath id="clip0_70_1294">
<rect width="46" height="46" fill="white" transform="translate(17 17)"/>
</clipPath>
</defs>
</svg>
