<svg width="100" height="100" viewBox="0 0 100 100" fill="none" xmlns="http://www.w3.org/2000/svg">
<g id="Group 60">
<path id="Polygon 2" d="M50 0L93.3013 25V75L50 100L6.69873 75V25L50 0Z" fill="#D7E2FF"/>
<g id="Group 45">
<g id="Group 42">
<path id="Vector" d="M77.2395 63.272C77.7355 63.272 78.1323 63.6687 78.1323 64.1647C78.1323 64.6607 77.7355 65.0574 77.2395 65.0574C76.7436 65.0574 76.3468 64.6607 76.3468 64.1647C76.3468 63.6687 76.7436 63.272 77.2395 63.272Z" fill="#4D3AFF"/>
<path id="Vector_2" d="M76.6444 36.5894C77.1404 36.5894 77.5372 36.9861 77.5372 37.4821C77.5372 37.978 77.1404 38.3748 76.6444 38.3748C76.1485 38.3748 75.7517 37.978 75.7517 37.4821C75.7517 36.9861 76.1485 36.5894 76.6444 36.5894Z" fill="#4D3AFF"/>
<path id="Vector_3" d="M73.7678 24.7854C75.8508 24.7854 77.5371 26.4717 77.5371 28.5547C77.5371 30.6377 75.8508 32.324 73.7678 32.324C71.6848 32.324 69.9985 30.6377 69.9985 28.5547C69.9985 26.4717 71.6848 24.7854 73.7678 24.7854Z" fill="#8FE269"/>
<path id="Vector_4" d="M68.1139 37.1763C72.6767 37.1763 76.3468 40.8464 76.3468 45.4093C76.3468 49.9721 72.6767 53.6422 68.1139 53.6422H33C28.4372 53.6422 24.7671 49.9721 24.7671 45.4093C24.7671 41.0448 28.2388 37.3747 32.6032 37.1763C32.1073 35.8868 31.8097 34.4982 31.8097 33.1095C31.8097 26.9596 36.7693 22 42.9192 22C47.8788 22 52.0448 25.2733 53.5327 29.737C54.9214 28.5467 56.806 27.8523 58.7899 27.8523C63.3527 27.8523 67.0228 31.5224 67.0228 36.0852C67.0228 36.482 67.0228 36.978 66.9236 37.3747C67.2212 37.1763 67.7171 37.1763 68.1139 37.1763Z" fill="#6499F3"/>
<path id="Vector_5" d="M67.3203 68.2314C67.8163 68.2314 68.2131 68.6282 68.2131 69.1242C68.2131 69.6201 67.8163 70.0169 67.3203 70.0169C66.8244 70.0169 66.4276 69.6201 66.4276 69.1242C66.4276 68.6282 66.8244 68.2314 67.3203 68.2314Z" fill="#4D3AFF"/>
<path id="Vector_6" d="M66.7252 24.1904C67.2212 24.1904 67.618 24.5872 67.618 25.0832C67.618 25.5791 67.2212 25.9759 66.7252 25.9759C66.2293 25.9759 65.8325 25.5791 65.8325 25.0832C65.8325 24.5872 66.2293 24.1904 66.7252 24.1904Z" fill="#4D3AFF"/>
<path id="Vector_7" d="M32.6033 60.792C33.0993 60.792 33.496 61.1888 33.496 61.6847C33.496 62.1807 33.0993 62.5774 32.6033 62.5774C32.1073 62.5774 31.7106 62.1807 31.7106 61.6847C31.7106 61.1888 32.1073 60.792 32.6033 60.792Z" fill="#4D3AFF"/>
<path id="Vector_8" d="M25.0749 25.4797C26.7612 25.4797 28.1499 26.8684 28.1499 28.5547C28.1499 30.2409 26.7612 31.6296 25.0749 31.6296C23.3887 31.6296 22 30.2409 22 28.5547C22 26.8684 23.3887 25.4797 25.0749 25.4797Z" fill="#8FE269"/>
<path id="Vector_9" d="M23.5871 36.5894C24.083 36.5894 24.4798 36.9861 24.4798 37.4821C24.4798 37.978 24.083 38.3748 23.5871 38.3748C23.0911 38.3748 22.6943 37.978 22.6943 37.4821C22.6943 36.9861 23.0911 36.5894 23.5871 36.5894Z" fill="#4D3AFF"/>
<path id="Vector_10" d="M24.5688 70.3428C24.9655 70.7396 24.9655 71.3347 24.5688 71.6323C24.172 72.0291 23.5768 72.0291 23.2793 71.6323C22.8825 71.2355 22.8825 70.6404 23.2793 70.3428C23.676 70.0452 24.2712 70.0452 24.5688 70.3428Z" fill="#4D3AFF"/>
<path id="Vector_11" d="M35.0831 34.7046C34.7855 34.7046 34.4879 34.4071 34.4879 34.1095C34.4879 29.3483 38.3564 25.3806 43.2168 25.3806C43.5144 25.3806 43.8119 25.6782 43.8119 25.9758C43.8119 26.2733 43.5144 26.5709 43.2168 26.5709C39.1499 26.5709 35.7774 29.9434 35.7774 34.0103C35.6782 34.5063 35.3806 34.7046 35.0831 34.7046Z" fill="#2D64BC"/>
<path id="Vector_12" d="M58.294 49.5834H36.571C36.2734 49.5834 35.9758 49.2858 35.9758 48.9882C35.9758 48.6906 36.2734 48.3931 36.571 48.3931H58.294C58.5916 48.3931 58.8891 48.6906 58.8891 48.9882C58.8891 49.2858 58.6907 49.5834 58.294 49.5834Z" fill="#2D64BC"/>
<path id="Vector_13" d="M63.2536 46.5084H50.2595C49.9619 46.5084 49.6643 46.2108 49.6643 45.9133C49.6643 45.6157 49.9619 45.3181 50.2595 45.3181H63.2536C63.5512 45.3181 63.8487 45.6157 63.8487 45.9133C63.8487 46.2108 63.6503 46.5084 63.2536 46.5084Z" fill="#2D64BC"/>
<path id="Vector_14" d="M70.8187 73.9284H63.1489C62.8649 73.9284 62.5808 73.6444 62.5808 73.3603C62.5808 73.0762 62.8649 72.7922 63.1489 72.7922H70.2506V57.926C70.2506 57.642 70.5347 57.3579 70.8187 57.3579C71.1028 57.3579 71.3869 57.642 71.3869 57.926V73.3603C71.3869 73.6444 71.1028 73.9284 70.8187 73.9284Z" fill="#005068"/>
<path id="Vector_15" d="M37.1095 73.9284H29.4397C29.1556 73.9284 28.8716 73.6444 28.8716 73.3603V57.926C28.8716 57.642 29.1556 57.3579 29.4397 57.3579C29.7238 57.3579 30.0078 57.642 30.0078 57.926V72.6975H37.1095C37.3936 72.6975 37.6776 72.9816 37.6776 73.2656C37.6776 73.6444 37.3936 73.9284 37.1095 73.9284Z" fill="#005068"/>
<path id="Vector_16" d="M63.1489 76.0114C63.1489 77.1477 62.202 77.9999 61.1604 77.9999H39.098C37.9617 77.9999 37.1095 77.053 37.1095 76.0114C37.1095 74.4964 37.1095 73.0761 37.1095 71.1823C37.1095 70.046 38.0564 69.1938 39.098 69.1938C49.3243 69.1938 51.5969 69.1938 61.1604 69.1938C62.2967 69.1938 63.1489 70.1407 63.1489 71.1823C63.1489 73.0761 63.1489 74.4964 63.1489 76.0114Z" fill="#006C87"/>
<path id="Vector_17" d="M63.1489 59.3464V64.1755C63.1489 65.3118 62.202 66.164 61.1604 66.164C53.0172 66.164 46.6731 66.164 39.098 66.164C37.9617 66.164 37.1095 65.2171 37.1095 64.1755V59.3464C37.1095 58.2101 38.0564 57.3579 39.098 57.3579H61.1604C62.202 57.3579 63.1489 58.2101 63.1489 59.3464Z" fill="#006C87"/>
<path id="Vector_18" d="M41.5599 72.1294C42.4121 72.1294 43.075 72.7922 43.075 73.6444C43.075 74.4966 42.4121 75.1594 41.5599 75.1594C40.7077 75.1594 40.0449 74.4966 40.0449 73.6444C40.0449 72.7922 40.7077 72.1294 41.5599 72.1294Z" fill="#8FE269"/>
<path id="Vector_19" d="M41.5599 60.2935C42.4121 60.2935 43.075 60.9563 43.075 61.8085C43.075 62.6607 42.4121 63.3235 41.5599 63.3235C40.7077 63.3235 40.0449 62.6607 40.0449 61.8085C40.0449 60.9563 40.7077 60.2935 41.5599 60.2935Z" fill="#8FE269"/>
<path id="Vector_20" d="M57.8464 66.2588H42.4121V69.1941H57.8464V66.2588Z" fill="#005068"/>
<path id="Vector_21" d="M59.5507 74.2124H45.9155C45.6315 74.2124 45.3474 73.9284 45.3474 73.6443C45.3474 73.3602 45.6315 73.0762 45.9155 73.0762H59.5507C59.8348 73.0762 60.1189 73.3602 60.1189 73.6443C60.1189 73.9284 59.9295 74.2124 59.5507 74.2124Z" fill="#E9EFFF"/>
<path id="Vector_22" d="M59.5507 62.3765H45.9155C45.6315 62.3765 45.3474 62.0924 45.3474 61.8084C45.3474 61.5243 45.6315 61.2402 45.9155 61.2402H59.5507C59.8348 61.2402 60.1189 61.5243 60.1189 61.8084C60.1189 62.0924 59.9295 62.3765 59.5507 62.3765Z" fill="#E9EFFF"/>
<path id="Vector_23" d="M44.4952 72.1294C45.3474 72.1294 46.0103 72.7922 46.0103 73.6444C46.0103 74.4966 45.3474 75.1594 44.4952 75.1594C43.643 75.1594 42.9802 74.4966 42.9802 73.6444C42.9802 72.7922 43.643 72.1294 44.4952 72.1294Z" fill="#FE5A5A"/>
<path id="Vector_24" d="M44.4952 60.2935C45.3474 60.2935 46.0103 60.9563 46.0103 61.8085C46.0103 62.6607 45.3474 63.3235 44.4952 63.3235C43.643 63.3235 42.9802 62.6607 42.9802 61.8085C42.9802 60.9563 43.643 60.2935 44.4952 60.2935Z" fill="#FE5A5A"/>
</g>
</g>
</g>
</svg>
