<svg width="100" height="100" viewBox="0 0 100 100" fill="none" xmlns="http://www.w3.org/2000/svg">
<g id="Group 59">
<path id="Polygon 1" d="M50 0L93.3013 25V75L50 100L6.69873 75V25L50 0Z" fill="#D7E2FF"/>
<g id="Group 44">
<g id="Group 43">
<path id="Vector" d="M22.8923 28.9165C23.388 28.9165 23.7846 29.3117 23.7846 29.8058C23.7846 30.2998 23.388 30.695 22.8923 30.695C22.3966 30.695 22 30.2998 22 29.8058C22 29.3117 22.3966 28.9165 22.8923 28.9165Z" fill="#FFB995"/>
<path id="Vector_2" d="M22.8923 66.8586C23.388 66.8586 23.7846 67.2539 23.7846 67.7479C23.7846 68.2419 23.388 68.6372 22.8923 68.6372C22.3966 68.6372 22 68.2419 22 67.7479C22 67.2539 22.3966 66.8586 22.8923 66.8586Z" fill="#FFB995"/>
<path id="Vector_3" d="M73.9522 23.1855C75.6376 23.1855 77.0257 24.5689 77.0257 26.2486C77.0257 27.9283 75.6376 29.4104 73.9522 29.4104C72.2667 29.4104 70.8787 28.0271 70.8787 26.3474C70.7795 24.5689 72.1675 23.1855 73.9522 23.1855Z" fill="#8FE269"/>
<path id="Vector_4" d="M29.8871 69.5911C31.5726 69.5911 32.9606 70.9744 32.9606 72.6541C32.9606 74.3338 31.5726 75.8159 29.8871 75.8159C28.2016 75.8159 26.8136 74.4326 26.8136 72.7529C26.7144 70.9744 28.1025 69.5911 29.8871 69.5911Z" fill="#8FE269"/>
<path id="Vector_5" d="M50.1573 39.3901C56.106 39.3901 60.865 44.1329 60.865 50.0613C60.865 55.9898 56.106 60.7326 50.1573 60.7326C44.2086 60.7326 39.4496 55.9898 39.4496 50.0613C39.4496 44.1329 44.2086 39.3901 50.1573 39.3901ZM56.3043 50.0613C56.3043 46.7019 53.5282 43.8365 50.0581 43.8365C46.6872 43.8365 43.812 46.6031 43.812 50.0613C43.812 53.4208 46.588 56.2862 50.0581 56.2862C53.5282 56.1874 56.3043 53.4208 56.3043 50.0613Z" fill="#475972"/>
<path id="Vector_6" d="M78.3641 49.9241V51.907L70.6766 53.0401C70.4868 54.4564 70.1071 55.8728 69.5377 57.1947L75.6118 62.0103L73.6187 65.4096L66.4057 62.5769C65.4566 63.7099 64.5075 64.6542 63.3686 65.5984L66.2159 72.7746L62.7992 74.7575L58.0538 68.7144C56.725 69.1865 55.3014 69.5642 53.8778 69.8475L52.7389 77.4958H48.7527L47.6138 69.8475C46.1902 69.6586 44.7666 69.2809 43.4379 68.7144L38.6925 74.7575L35.2758 72.7746L38.123 65.5984C36.9841 64.6542 36.035 63.7099 35.0859 62.5769L27.8729 65.4096L25.8798 62.0103L31.954 57.1947C31.4794 55.8728 31.0998 54.4564 30.8151 53.0401L22.8428 51.907V49.9241V47.9412L30.5303 46.7137C30.7202 45.2973 31.0998 43.881 31.6692 42.5591L25.5951 37.7435L27.5882 34.2498L34.8012 37.0825C35.7503 35.9494 36.6994 35.0052 37.8383 34.0609L34.991 26.8848L38.4077 24.9019L43.1532 30.945C44.4819 30.4728 45.9055 30.0952 47.3291 29.8119L48.6578 22.1636H52.644L53.7829 29.8119C55.2065 30.0007 56.6301 30.3784 57.9589 30.945L62.7043 24.9019L66.2159 26.8848L63.3686 34.0609C64.5075 35.0052 65.4566 35.9494 66.4057 37.0825L73.6187 34.2498L75.6118 37.649L69.5377 42.4646C70.0122 43.7866 70.3918 45.2029 70.6766 46.6193L78.3641 47.7524V49.9241ZM60.6163 49.9241C60.6163 44.4475 56.1556 40.0096 50.6509 40.0096C45.1462 40.0096 40.6855 44.4475 40.6855 49.9241C40.6855 55.4007 45.1462 59.8386 50.6509 59.8386C56.0607 59.8386 60.6163 55.3062 60.6163 49.9241Z" fill="#6499F3"/>
<path id="Vector_7" d="M77.3231 41.3662C77.8188 41.3662 78.2154 41.7614 78.2154 42.2555C78.2154 42.7495 77.8188 43.1447 77.3231 43.1447C76.8274 43.1447 76.4308 42.7495 76.4308 42.2555C76.4308 41.7614 76.8274 41.3662 77.3231 41.3662Z" fill="#FFB995"/>
<path id="Vector_8" d="M76.7282 68.7358C77.224 68.7358 77.6206 69.1311 77.6206 69.6251C77.6206 70.1191 77.224 70.5144 76.7282 70.5144C76.2325 70.5144 75.8359 70.1191 75.8359 69.6251C75.8359 69.2299 76.2325 68.7358 76.7282 68.7358Z" fill="#FFB995"/>
<path id="Vector_9" d="M69.1931 74.9609C69.6888 74.9609 70.0854 75.3562 70.0854 75.8502C70.0854 76.3442 69.6888 76.7395 69.1931 76.7395C68.6974 76.7395 68.3008 76.3442 68.3008 75.8502C68.3008 75.3562 68.6974 74.9609 69.1931 74.9609Z" fill="#FFB995"/>
<path id="Vector_10" d="M43.5145 75.5537C44.0073 75.5537 44.4068 75.1555 44.4068 74.6644C44.4068 74.1733 44.0073 73.7751 43.5145 73.7751C43.0217 73.7751 42.6222 74.1733 42.6222 74.6644C42.6222 75.1555 43.0217 75.5537 43.5145 75.5537Z" fill="#FFB995"/>
<path id="Vector_11" d="M35.682 46.8994C35.9795 46.8994 36.2769 47.1958 36.2769 47.4923C36.2769 47.7887 35.9795 48.0851 35.682 48.0851C35.3846 48.0851 35.0872 47.7887 35.0872 47.4923C35.0872 47.1958 35.3846 46.8994 35.682 46.8994Z" fill="#2D64BC"/>
<path id="Vector_12" d="M31.7163 22C32.212 22 32.6086 22.3952 32.6086 22.8893C32.6086 23.3833 32.212 23.7785 31.7163 23.7785C31.2206 23.7785 30.824 23.3833 30.824 22.8893C30.824 22.3952 31.2206 22 31.7163 22Z" fill="#FFB995"/>
<path id="Vector_13" d="M50.1573 65.3765C41.6308 65.3765 34.7898 58.46 34.7898 50.0613C34.7898 49.7649 35.0872 49.4685 35.3847 49.4685C35.6821 49.4685 35.9795 49.7649 35.9795 50.0613C35.9795 57.8671 42.3248 64.092 50.0582 64.092C53.8257 64.092 57.3949 62.6099 60.0718 60.0409C62.7488 57.3731 64.1368 53.816 64.1368 50.0613C64.1368 42.2555 57.7915 36.0307 50.0582 36.0307C49.7607 36.0307 49.4633 35.7342 49.4633 35.4378C49.4633 35.1414 49.7607 34.845 50.0582 34.845C58.5847 34.845 65.4257 41.7615 65.4257 50.1601C65.4257 54.2112 63.8394 58.0647 60.9642 61.029C58.0889 63.7956 54.2223 65.3765 50.1573 65.3765Z" fill="#2D64BC"/>
</g>
</g>
</g>
</svg>
