<svg width="100" height="100" viewBox="0 0 100 100" fill="none" xmlns="http://www.w3.org/2000/svg">
<g id="Group 61">
<path id="Polygon 3" d="M50 0L93.3013 25V75L50 100L6.69873 75V25L50 0Z" fill="#D7E2FF"/>
<g id="Group 46">
<g id="Group 41">
<path id="Vector" d="M22 70.9001C22 60.4001 30.6 51.8 41.1 51.8C51.6 51.8 60.2 60.4001 60.2 70.9001C60.2 73.4001 59.7 75.8 58.8 78.1C58 78.1 24.5 78.1 23.5 78.1C22.5 75.8 22 73.4001 22 70.9001Z" fill="#6499F3"/>
<path id="Vector_2" d="M41.1 51.8L45.8 65.8L41.1 70.6L36.3 65.8L41.1 51.8Z" fill="#BCE4FF"/>
<path id="Vector_3" d="M41.1 32.8C46.3 32.8 50.6 37 50.6 42.3C50.6 47.6 46.4 51.8 41.1 51.8C35.9 51.8 31.6 47.6 31.6 42.3C31.6 37.1 35.8 32.8 41.1 32.8Z" fill="#FFD5AB"/>
<path id="Vector_4" d="M25.4 26.7C27.1 26.7 28.5 28.1 28.5 29.8C28.5 31.5 27.1 33 25.4 33C23.7 33 22.3 31.6 22.3 29.9C22.3 28.2 23.7 26.7 25.4 26.7Z" fill="#FF5987"/>
<path id="Vector_5" d="M70.2 58.2C72.3 58.2 74 59.9 74 62C74 64.1 72.3 65.7999 70.2 65.7999C68.1 65.7999 66.4 64.1 66.4 62C66.4 59.9 68.1 58.2 70.2 58.2Z" fill="#FF5987"/>
<path id="Vector_6" d="M74.5 47.2001C69.9 51.8001 62.3 51.8001 57.6 47.2001C53 42.6001 53 34.9001 57.6 30.3001C62.2 25.7001 69.8 25.7001 74.5 30.3001C79.2 35.0001 79.2 42.6001 74.5 47.2001Z" fill="#BCE4FF"/>
<path id="Vector_7" d="M75.4 23C76.1 23 76.7 23.6 76.7 24.3C76.7 25 76.1 25.6 75.4 25.6C74.7 25.6 74.2 24.9 74.2 24.2C74.2 23.5 74.8 23 75.4 23Z" fill="#94D4FF"/>
<path id="Vector_8" d="M75.4 52.2C76.1 52.2 76.7 52.8 76.7 53.5C76.7 54.2 76.1 54.7999 75.4 54.7999C74.7 54.7999 74.2 54.1 74.2 53.4C74.2 52.8 74.8 52.2 75.4 52.2Z" fill="#94D4FF"/>
<path id="Vector_9" d="M70.7 71C71.3 71.3 71.6 72.1 71.3 72.7C71 73.3 70.2 73.6 69.6 73.3C69 73 68.7 72.2 69 71.6C69.4 71 70.1 70.7 70.7 71Z" fill="#94D4FF"/>
<path id="Vector_10" d="M50 25.5C50.7 25.5 51.2999 26.1 51.2999 26.8C51.2999 27.5 50.7 28.1 50 28.1C49.3 28.1 48.7 27.5 48.7 26.8C48.7 26 49.3 25.5 50 25.5Z" fill="#94D4FF"/>
<path id="Vector_11" d="M34.9 22C35.6 22 36.2 22.6 36.2 23.3C36.2 24 35.6 24.6 34.9 24.6C34.2 24.6 33.6 24 33.6 23.3C33.6 22.6 34.2 22 34.9 22Z" fill="#94D4FF"/>
<path id="Vector_12" d="M26 46.8999C26.7 46.8999 27.3 47.4999 27.3 48.1999C27.3 48.8999 26.7 49.4999 26 49.4999C25.3 49.4999 24.7 48.8999 24.7 48.1999C24.8 47.4999 25.4 46.8999 26 46.8999Z" fill="#94D4FF"/>
<path id="Vector_13" d="M70.4 40.6H66C65.3 40.6 64.7 40 64.7 39.3V34.3C64.7 33.6 65.3 33 66 33C66.7 33 67.2999 33.6 67.2999 34.3V38.1H70.4C71.1 38.1 71.7 38.7 71.7 39.4C71.7 40 71.1 40.6 70.4 40.6Z" fill="#3F4751"/>
<path id="Vector_14" d="M66.1 30.6001C66.8 30.6001 67.4 30.0001 67.4 29.3001V26.8001C66.6 26.7001 65.7 26.7001 64.9 26.8001V29.2001C64.8 30.0001 65.4 30.6001 66.1 30.6001Z" fill="#94D4FF"/>
<path id="Vector_15" d="M66.1 46.8999C65.4 46.8999 64.8 47.4999 64.8 48.1999V50.5999C65.6 50.6999 66.5 50.6999 67.3 50.5999V48.1999C67.3 47.4999 66.8 46.8999 66.1 46.8999Z" fill="#94D4FF"/>
<path id="Vector_16" d="M71.8 33.0001C72 33.2001 72.4 33.4001 72.7 33.4001C73 33.4001 73.3 33.3001 73.6 33.0001L75.3 31.3001C75 31.0001 74.8 30.7001 74.5 30.4001C74.2 30.1001 73.9 29.8001 73.6 29.6001L71.9 31.3001C71.3 31.7001 71.3 32.5001 71.8 33.0001Z" fill="#94D4FF"/>
<path id="Vector_17" d="M60.2 44.6001C59.7 44.1001 58.9 44.1001 58.4 44.6001L56.7 46.3001C57 46.6001 57.2 46.9001 57.5 47.2001C57.8 47.5001 58.1 47.8001 58.4 48.0001L60.0999 46.3001C60.6999 45.8001 60.7 45.0001 60.2 44.6001Z" fill="#94D4FF"/>
<path id="Vector_18" d="M78 37.5H75.6C74.9 37.5 74.3 38.1 74.3 38.8C74.3 39.5 74.9 40.1 75.6 40.1H78C78.1 39.1 78.1 38.3 78 37.5Z" fill="#94D4FF"/>
<path id="Vector_19" d="M57.8 38.6999C57.8 37.9999 57.2 37.3999 56.5 37.3999H54.1C54 38.1999 54 39.0999 54.1 39.8999H56.5C57.3 39.9999 57.8 39.3999 57.8 38.6999Z" fill="#94D4FF"/>
<path id="Vector_20" d="M71.8 44.5999C71.3 45.0999 71.3 45.8999 71.8 46.3999L73.5 48.0999C73.8 47.7999 74.1001 47.5999 74.4001 47.2999C74.7001 46.9999 75.0001 46.6999 75.2001 46.3999L73.5 44.6999C73.1 44.0999 72.3 44.0999 71.8 44.5999Z" fill="#94D4FF"/>
<path id="Vector_21" d="M59.3 33.2999C59.6 33.2999 59.9001 33.1999 60.2001 32.8999C60.7001 32.3999 60.7001 31.5999 60.2001 31.0999L58.5 29.3999C58.2 29.6999 57.9 29.8999 57.6 30.1999C57.3 30.4999 57 30.7999 56.8 31.0999L58.5 32.7999C58.7 33.1999 59 33.2999 59.3 33.2999Z" fill="#94D4FF"/>
</g>
</g>
</g>
</svg>
