<svg width="100" height="100" viewBox="0 0 100 100" fill="none" xmlns="http://www.w3.org/2000/svg">
<g id="Group 62">
<path id="Polygon 4" d="M50 0L93.3013 25V75L50 100L6.69873 75V25L50 0Z" fill="#D7E2FF"/>
<g id="Group 47">
<g id="Group 40">
<path id="Vector" d="M74.2 36.7C76.3 36.7 78 38.4 78 40.5C78 42.6 76.3 44.2999 74.2 44.2999C72.1 44.2999 70.4 42.6 70.4 40.5C70.4 38.4 72.1 36.7 74.2 36.7Z" fill="#FF5987"/>
<path id="Vector_2" d="M25.1 53.7C26.8 53.7 28.2 55.0999 28.2 56.7999C28.2 58.4999 26.8 59.9 25.1 59.9C23.4 59.9 22 58.4999 22 56.7999C22 55.0999 23.4 53.7 25.1 53.7Z" fill="#FF5987"/>
<path id="Vector_3" d="M76.4 62.3999C76.9 62.3999 77.3 62.7999 77.3 63.2999C77.3 63.7999 76.9 64.1999 76.4 64.1999C75.9 64.1999 75.5 63.7999 75.5 63.2999C75.5 62.7999 75.9 62.3999 76.4 62.3999Z" fill="#68CA44"/>
<path id="Vector_4" d="M73.3 25.6001C73.8 25.6001 74.2 26.0001 74.2 26.5001C74.2 27.0001 73.8 27.4001 73.3 27.4001C72.8 27.4001 72.4 27.0001 72.4 26.5001C72.4 26.0001 72.8 25.6001 73.3 25.6001Z" fill="#68CA44"/>
<path id="Vector_5" d="M70.2 48.7C70.7 48.7 71.1 49.1 71.1 49.6C71.1 50.1 70.7 50.5 70.2 50.5C69.7 50.5 69.3 50.1 69.3 49.6C69.2 49.1 69.7 48.7 70.2 48.7Z" fill="#68CA44"/>
<path id="Vector_6" d="M26.8 39.8999C27.3 39.8999 27.7 40.2999 27.7 40.7999C27.7 41.2999 27.3 41.6999 26.8 41.6999C26.3 41.6999 25.9 41.2999 25.9 40.7999C25.8 40.2999 26.3 39.8999 26.8 39.8999Z" fill="#68CA44"/>
<path id="Vector_7" d="M22.9 64.8999C23.4 64.8999 23.8 65.2999 23.8 65.7999C23.8 66.2999 23.4 66.6999 22.9 66.6999C22.4 66.6999 22 66.2999 22 65.7999C22 65.2999 22.4 64.8999 22.9 64.8999Z" fill="#68CA44"/>
<path id="Vector_8" d="M24.7 25.7C25.2 25.7 25.6 26.1 25.6 26.6C25.6 27.1 25.2 27.5 24.7 27.5C24.2 27.5 23.8 27.1 23.8 26.6C23.8 26.1 24.2 25.7 24.7 25.7Z" fill="#68CA44"/>
<path id="Vector_9" d="M74.2 36.7C76.3 36.7 78 38.4 78 40.5C78 42.6 76.3 44.2999 74.2 44.2999C72.1 44.2999 70.4 42.6 70.4 40.5C70.4 38.4 72.1 36.7 74.2 36.7Z" fill="#FF5987"/>
<path id="Vector_10" d="M25.1 53.7C26.8 53.7 28.2 55.0999 28.2 56.7999C28.2 58.4999 26.8 59.9 25.1 59.9C23.4 59.9 22 58.4999 22 56.7999C22 55.0999 23.4 53.7 25.1 53.7Z" fill="#FF5987"/>
<path id="Vector_11" d="M76.4 62.3999C76.9 62.3999 77.3 62.7999 77.3 63.2999C77.3 63.7999 76.9 64.1999 76.4 64.1999C75.9 64.1999 75.5 63.7999 75.5 63.2999C75.5 62.7999 75.9 62.3999 76.4 62.3999Z" fill="#68CA44"/>
<path id="Vector_12" d="M73.3 25.6001C73.8 25.6001 74.2 26.0001 74.2 26.5001C74.2 27.0001 73.8 27.4001 73.3 27.4001C72.8 27.4001 72.4 27.0001 72.4 26.5001C72.4 26.0001 72.8 25.6001 73.3 25.6001Z" fill="#68CA44"/>
<path id="Vector_13" d="M70.2 48.7C70.7 48.7 71.1 49.1 71.1 49.6C71.1 50.1 70.7 50.5 70.2 50.5C69.7 50.5 69.3 50.1 69.3 49.6C69.2 49.1 69.7 48.7 70.2 48.7Z" fill="#68CA44"/>
<path id="Vector_14" d="M26.8 39.8999C27.3 39.8999 27.7 40.2999 27.7 40.7999C27.7 41.2999 27.3 41.6999 26.8 41.6999C26.3 41.6999 25.9 41.2999 25.9 40.7999C25.8 40.2999 26.3 39.8999 26.8 39.8999Z" fill="#68CA44"/>
<path id="Vector_15" d="M22.9 64.8999C23.4 64.8999 23.8 65.2999 23.8 65.7999C23.8 66.2999 23.4 66.6999 22.9 66.6999C22.4 66.6999 22 66.2999 22 65.7999C22 65.2999 22.4 64.8999 22.9 64.8999Z" fill="#68CA44"/>
<path id="Vector_16" d="M24.7 25.7C25.2 25.7 25.6 26.1 25.6 26.6C25.6 27.1 25.2 27.5 24.7 27.5C24.2 27.5 23.8 27.1 23.8 26.6C23.8 26.1 24.2 25.7 24.7 25.7Z" fill="#68CA44"/>
<g id="Group 31">
<path id="Vector_17" d="M59.3 67C59.05 67 58.8 66.7347 58.8 66.4695V25.5305C58.8 25.2653 59.05 25 59.3 25C59.55 25 59.8 25.2653 59.8 25.5305V66.4695C59.8 66.7347 59.55 67 59.3 67Z" fill="#414A56"/>
<path id="Vector_18" d="M34.7841 67C34.292 67 33.8 66.7347 33.8 66.4695V25.5305C33.8 25.2653 34.292 25 34.7841 25C35.2761 25 35.7682 25.2653 35.7682 25.5305V66.4695C35.9322 66.7347 35.4402 67 34.7841 67Z" fill="#414A56"/>
<path id="Vector_19" d="M55.8 53.9216C54.5884 54.6536 53.1173 55.1111 51.6461 55.1111C49.1365 55.1111 46.8 53.9216 45.2423 52C44.1173 53.8301 42.2134 55.1111 39.8769 55.1111C39.0981 55.1111 38.4058 54.9281 37.8 54.7451V66H55.8V54.2876C55.8 54.1961 55.8 54.1046 55.8 53.9216Z" fill="#FFE2B6"/>
<path id="Vector_20" d="M55.8 54.2876V66L46.8 60.8758L37.8 66V54.7451C38.4923 55.0196 39.1846 55.1111 39.8769 55.1111C42.0404 55.1111 44.0308 53.9216 45.2423 52C46.8 53.9216 49.05 55.1111 51.6461 55.1111C53.2038 55.1111 54.5884 54.6536 55.8 53.9216C55.8 54.1046 55.8 54.1961 55.8 54.2876Z" fill="#FFE2B6"/>
<path id="Vector_21" d="M55.8 36.3795V36.8249C55.8 41.9024 51.8192 46 46.8 46C41.8673 46 37.9731 42.0805 37.8 37.1812C39.0115 36.4686 40.4827 36.0232 41.9538 36.0232C44.4634 36.0232 46.8 37.1812 48.3577 39.0519C49.4827 37.2703 51.3865 36.0232 53.7231 36.0232C54.3288 35.9341 55.1077 36.1123 55.8 36.3795Z" fill="#FFE2B6"/>
<path id="Vector_22" d="M37.8 26V36.8758C37.8 36.9608 37.8 37.1307 37.8 37.2157C39.0115 36.5359 40.4827 36.1111 41.9538 36.1111C44.4634 36.1111 46.8 37.2157 48.3577 39C49.4827 37.3007 51.3865 36.1111 53.7231 36.1111C54.5019 36.1111 55.1942 36.281 55.8 36.451V26H37.8Z" fill="#BCE4FF"/>
<path id="Vector_23" d="M55.8 26V36.451C55.1077 36.1961 54.4154 36.1111 53.7231 36.1111C51.5596 36.1111 49.5692 37.2157 48.3577 39C46.8 37.2157 44.55 36.1111 41.9538 36.1111C40.3961 36.1111 39.0115 36.5359 37.8 37.2157C37.8 37.1307 37.8 36.9608 37.8 36.8758V26L46.8 30.7582L55.8 26Z" fill="#BCE4FF"/>
<path id="Vector_24" d="M55.8 26L46.8 31L37.8 26H55.8Z" fill="#94D4FF"/>
<path id="Vector_25" d="M55.8 66H37.8L46.8 61L55.8 66Z" fill="#F3CC97"/>
<path id="Vector_26" d="M55.8 53.9554C54.5884 54.5982 53.1173 55 51.6461 55C49.1365 55 46.8 53.9554 45.2423 52.2679C44.1173 53.875 42.2134 55 39.8769 55C39.0981 55 38.4058 54.8393 37.8 54.6786V54.2768C37.8 49.6964 41.7808 46 46.8 46C49.2231 46 51.5596 46.9643 53.2038 48.4107C54.7615 49.8571 55.7134 51.8661 55.8 53.9554Z" fill="#BCE4FF"/>
<path id="Vector_27" d="M62.8 24C62.8 25.0909 61.9389 26 60.9055 26C56.9444 26 37.6555 26 33.6944 26C32.6611 26 31.8 25.0909 31.8 24C31.8 22.9091 32.6611 22 33.6944 22H60.9055C61.9389 22 62.8 22.9091 62.8 24Z" fill="#57606F"/>
<path id="Vector_28" d="M62.8 67.9568C62.8 69.0713 61.9341 70 60.895 70H33.6184C33.0989 70 32.5793 69.8143 32.3195 69.4428C31.9732 69.0713 31.8 68.6069 31.8 68.0496C31.8 66.9352 32.6659 66.0064 33.705 66.0064H35.0905C36.3894 66.0064 58.8167 66.0064 59.6827 66.0064H61.0681C61.9341 65.9135 62.8 66.8423 62.8 67.9568Z" fill="#57606F"/>
<path id="Vector_29" d="M59.3 67C59.05 67 58.8 66.7347 58.8 66.4695V25.5305C58.8 25.2653 59.05 25 59.3 25C59.55 25 59.8 25.2653 59.8 25.5305V66.4695C59.8 66.7347 59.55 67 59.3 67Z" fill="#414A56"/>
<path id="Vector_30" d="M34.7841 67C34.292 67 33.8 66.7347 33.8 66.4695V25.5305C33.8 25.2653 34.292 25 34.7841 25C35.2761 25 35.7682 25.2653 35.7682 25.5305V66.4695C35.9322 66.7347 35.4402 67 34.7841 67Z" fill="#414A56"/>
<path id="Vector_31" d="M55.8 53.9216C54.5884 54.6536 53.1173 55.1111 51.6461 55.1111C49.1365 55.1111 46.8 53.9216 45.2423 52C44.1173 53.8301 42.2134 55.1111 39.8769 55.1111C39.0981 55.1111 38.4058 54.9281 37.8 54.7451V66H55.8V54.2876C55.8 54.1961 55.8 54.1046 55.8 53.9216Z" fill="#FFE2B6"/>
<path id="Vector_32" d="M55.8 54.2876V66L46.8 60.8758L37.8 66V54.7451C38.4923 55.0196 39.1846 55.1111 39.8769 55.1111C42.0404 55.1111 44.0308 53.9216 45.2423 52C46.8 53.9216 49.05 55.1111 51.6461 55.1111C53.2038 55.1111 54.5884 54.6536 55.8 53.9216C55.8 54.1046 55.8 54.1961 55.8 54.2876Z" fill="#FFE2B6"/>
<path id="Vector_33" d="M55.8 36.3795V36.8249C55.8 41.9024 51.8192 46 46.8 46C41.8673 46 37.9731 42.0805 37.8 37.1812C39.0115 36.4686 40.4827 36.0232 41.9538 36.0232C44.4634 36.0232 46.8 37.1812 48.3577 39.0519C49.4827 37.2703 51.3865 36.0232 53.7231 36.0232C54.3288 35.9341 55.1077 36.1123 55.8 36.3795Z" fill="#FFE2B6"/>
<path id="Vector_34" d="M37.8 26V36.8758C37.8 36.9608 37.8 37.1307 37.8 37.2157C39.0115 36.5359 40.4827 36.1111 41.9538 36.1111C44.4634 36.1111 46.8 37.2157 48.3577 39C49.4827 37.3007 51.3865 36.1111 53.7231 36.1111C54.5019 36.1111 55.1942 36.281 55.8 36.451V26H37.8Z" fill="#BCE4FF"/>
<path id="Vector_35" d="M55.8 26V36.451C55.1077 36.1961 54.4154 36.1111 53.7231 36.1111C51.5596 36.1111 49.5692 37.2157 48.3577 39C46.8 37.2157 44.55 36.1111 41.9538 36.1111C40.3961 36.1111 39.0115 36.5359 37.8 37.2157C37.8 37.1307 37.8 36.9608 37.8 36.8758V26L46.8 30.7582L55.8 26Z" fill="#BCE4FF"/>
<path id="Vector_36" d="M55.8 26L46.8 31L37.8 26H55.8Z" fill="#94D4FF"/>
<path id="Vector_37" d="M55.8 66H37.8L46.8 61L55.8 66Z" fill="#F3CC97"/>
<path id="Vector_38" d="M55.8 53.9554C54.5884 54.5982 53.1173 55 51.6461 55C49.1365 55 46.8 53.9554 45.2423 52.2679C44.1173 53.875 42.2134 55 39.8769 55C39.0981 55 38.4058 54.8393 37.8 54.6786V54.2768C37.8 49.6964 41.7808 46 46.8 46C49.2231 46 51.5596 46.9643 53.2038 48.4107C54.7615 49.8571 55.7134 51.8661 55.8 53.9554Z" fill="#BCE4FF"/>
<path id="Vector_39" d="M62.8 24C62.8 25.0909 61.9389 26 60.9055 26C56.9444 26 37.6555 26 33.6944 26C32.6611 26 31.8 25.0909 31.8 24C31.8 22.9091 32.6611 22 33.6944 22H60.9055C61.9389 22 62.8 22.9091 62.8 24Z" fill="#57606F"/>
<path id="Vector_40" d="M62.8 67.9568C62.8 69.0713 61.9341 70 60.895 70H33.6184C33.0989 70 32.5793 69.8143 32.3195 69.4428C31.9732 69.0713 31.8 68.6069 31.8 68.0496C31.8 66.9352 32.6659 66.0064 33.705 66.0064H35.0905C36.3894 66.0064 58.8167 66.0064 59.6827 66.0064H61.0681C61.9341 65.9135 62.8 66.8423 62.8 67.9568Z" fill="#57606F"/>
</g>
<g id="Group 33">
<path id="Vector_41" d="M71.8 65.9445C71.8 66.5079 71.8 67.1839 71.6884 67.7472C70.7953 73.4933 65.7721 78 59.8558 78C53.8279 78 48.8046 73.606 48.0232 67.7472C47.8 67.0712 47.8 66.5079 47.8 65.9445C47.8 59.2971 53.1581 54.0017 59.7442 54.0017C66.4419 53.8891 71.8 59.2971 71.8 65.9445Z" fill="#6499F3"/>
<g id="Group 32">
<path id="Vector_42" d="M61.7404 71.0389C59.5997 71.8276 57.2337 71.2642 55.5437 69.6869C54.417 68.5602 53.8537 67.0955 53.8537 65.5182C53.8537 64.7295 54.079 63.8282 54.3043 63.1521V63.2648C54.3043 63.6028 54.6423 63.9408 54.9803 63.9408C55.3183 63.9408 55.6563 63.6028 55.6563 63.2648V61.0115V60.8988C55.6563 60.8988 55.6563 60.8988 55.6563 60.7861C55.6563 60.7861 55.6563 60.7861 55.6563 60.6735C55.6563 60.6735 55.6563 60.6735 55.6563 60.5608C55.6563 60.4481 55.5437 60.4481 55.431 60.3354C55.431 60.3354 55.431 60.3354 55.3183 60.3354C55.3183 60.3354 55.3183 60.3354 55.2057 60.3354H55.093H52.8396C52.5016 60.3354 52.1636 60.6735 52.1636 61.0115C52.1636 61.3495 52.5016 61.6875 52.8396 61.6875H53.741C52.9523 62.8141 52.6143 64.1662 52.6143 65.6308C52.6143 67.5462 53.403 69.3489 54.755 70.7009C56.107 72.0529 58.0224 72.8416 59.9377 72.8416C60.7264 72.8416 61.5151 72.7289 62.3037 72.3909C62.6418 72.2783 62.8671 71.8276 62.7544 71.4896C62.5291 71.1516 62.1911 70.9262 61.7404 71.0389Z" fill="#32438C"/>
<path id="Vector_43" d="M66.9231 69.4618H66.0217C66.8104 68.3351 67.1484 66.9831 67.1484 65.5184C67.1484 63.6031 66.3597 61.8004 65.0077 60.4483C63.0924 58.533 60.0503 57.857 57.3463 58.7583C57.0083 58.871 56.783 59.3217 56.8956 59.6597C57.0083 59.9977 57.459 60.223 57.797 60.1103C59.9377 59.3217 62.3037 59.885 63.9937 61.4624C65.1204 62.589 65.6837 64.0537 65.6837 65.6311C65.6837 66.4198 65.4584 67.3211 65.2331 67.9971V67.8844C65.2331 67.5464 64.8951 67.2084 64.5571 67.2084C64.2191 67.2084 63.8811 67.5464 63.8811 67.8844V70.1378V70.2505C63.8811 70.2505 63.8811 70.2505 63.8811 70.3631C63.8811 70.3631 63.8811 70.3631 63.8811 70.4758C63.8811 70.4758 63.8811 70.4758 63.8811 70.5885C63.8811 70.7011 63.9937 70.7011 64.1064 70.8138C64.1064 70.8138 64.1064 70.8138 64.2191 70.8138C64.2191 70.8138 64.2191 70.8138 64.3317 70.8138C64.3317 70.8138 64.3317 70.8138 64.4444 70.8138H64.5571H66.8104C67.1484 70.8138 67.4864 70.4758 67.4864 70.1378C67.5991 69.7998 67.2611 69.4618 66.9231 69.4618Z" fill="#32438C"/>
</g>
</g>
</g>
</g>
</g>
</svg>
