<svg width="26" height="26" viewBox="0 0 26 26" fill="none" xmlns="http://www.w3.org/2000/svg">
<path d="M2.33333 21C1.59695 21 1 20.403 1 19.6667C1 18.9303 1.59695 18.3333 2.33333 18.3333H23.6667C24.403 18.3333 25 18.9303 25 19.6667C25 20.403 24.403 21 23.6667 21H2.33333ZM2.33333 14.3333C1.59695 14.3333 1 13.7364 1 13C1 12.2636 1.59695 11.6667 2.33333 11.6667H23.6667C24.403 11.6667 25 12.2636 25 13C25 13.7364 24.403 14.3333 23.6667 14.3333H2.33333ZM2.33333 7.66667C1.59695 7.66667 1 7.06971 1 6.33333C1 5.59695 1.59695 5 2.33333 5H23.6667C24.403 5 25 5.59695 25 6.33333C25 7.06971 24.403 7.66667 23.6667 7.66667H2.33333Z" fill="#1C1B1F"/>
</svg>
