<svg width="50" height="51" viewBox="0 0 50 51" fill="none" xmlns="http://www.w3.org/2000/svg">
<path d="M25 50.478C38.8071 50.478 50 39.2783 50 25.4628C50 11.6472 38.8071 0.44751 25 0.44751C11.1929 0.44751 0 11.6472 0 25.4628C0 39.2783 11.1929 50.478 25 50.478Z" fill="#EFD94F"/>
<path d="M24.9999 10.7279C16.1529 10.7279 8.96112 16.4391 8.96112 23.4069C8.96112 27.9759 11.9862 31.9737 16.5524 34.2011C16.21 35.4576 15.3538 38.713 15.1826 39.4555C14.9543 40.3121 15.525 40.3121 15.8675 40.0837C16.1529 39.9124 20.2625 37.1138 22.0319 35.9145C23.0022 36.0858 23.9725 36.1429 24.9999 36.1429C33.847 36.1429 41.0387 30.4888 41.0387 23.464C41.0387 16.4391 33.847 10.7279 24.9999 10.7279Z" fill="#361C1C"/>
<path d="M13.8126 21.065H15.4679C15.4679 21.065 15.4679 25.5769 15.4679 26.662C15.4679 27.4616 17.1802 27.4616 17.1802 26.662V21.1221C17.1802 21.1221 17.751 21.1221 18.8355 21.1221C19.8629 21.1221 19.8629 19.5229 18.8355 19.5229C17.6939 19.5229 13.8126 19.4658 13.8126 19.4658C12.8423 19.5229 12.8423 21.065 13.8126 21.065Z" fill="#EFD94F"/>
<mask id="mask0_76_111" style="mask-type:luminance" maskUnits="userSpaceOnUse" x="13" y="19" width="7" height="9">
<path d="M13.8126 21.065H15.4679C15.4679 21.065 15.4679 25.5769 15.4679 26.662C15.4679 27.4616 17.1802 27.4616 17.1802 26.662V21.1221C17.1802 21.1221 17.751 21.1221 18.8355 21.1221C19.8629 21.1221 19.8629 19.5229 18.8355 19.5229C17.6939 19.5229 13.8126 19.4658 13.8126 19.4658C12.8423 19.5229 12.8423 21.065 13.8126 21.065Z" fill="white"/>
</mask>
<g mask="url(#mask0_76_111)">
<path d="M19.8628 19.5239H12.8423V27.4626H19.8628V19.5239Z" fill="#EFD94F"/>
</g>
<path d="M21.7463 21.4086L22.6596 24.2643H20.7189L21.7463 21.4086ZM20.7189 20.0379C20.3194 20.9517 18.8354 25.1781 18.3788 26.2632C18.0363 27.0628 19.5203 27.7481 19.9199 26.9485L20.2623 25.8063H23.2874C23.2874 25.8063 23.1733 25.8634 23.5728 26.8914C23.9153 27.7481 25.4564 27.177 25.1139 26.3203C24.6573 25.1209 23.0591 20.6662 22.7737 20.0379C22.6596 19.7524 22.1459 19.5239 21.6893 19.5239C21.2326 19.5239 20.8331 19.6953 20.7189 20.0379Z" fill="#EFD94F"/>
<mask id="mask1_76_111" style="mask-type:luminance" maskUnits="userSpaceOnUse" x="18" y="19" width="8" height="9">
<path d="M21.7463 21.4086L22.6596 24.2643H20.7189L21.7463 21.4086ZM20.7189 20.0379C20.3194 20.9517 18.8354 25.1781 18.3788 26.2632C18.0363 27.0628 19.5203 27.7481 19.9199 26.9485L20.2623 25.8063H23.2874C23.2874 25.8063 23.1733 25.8634 23.5728 26.8914C23.9153 27.7481 25.4564 27.177 25.1139 26.3203C24.6573 25.1209 23.0591 20.6662 22.7737 20.0379C22.6596 19.7524 22.1459 19.5239 21.6893 19.5239C21.2326 19.5239 20.8331 19.6953 20.7189 20.0379Z" fill="white"/>
</mask>
<g mask="url(#mask1_76_111)">
<path d="M25.3994 19.5239H17.9793V27.7481H25.3994V19.5239Z" fill="#EFD94F"/>
</g>
<path d="M25.6277 20.323C25.6277 21.7508 25.6277 26.3769 25.6277 26.3769C25.6277 26.3769 25.5136 27.2907 26.3126 27.2907C27.1117 27.2907 28.8241 27.2907 29.6231 27.2907C30.4222 27.2907 30.4222 25.6345 29.6231 25.6345C28.8241 25.6345 27.4542 25.6345 27.4542 25.6345C27.4542 25.6345 27.4542 21.3511 27.4542 20.323C27.4542 19.809 26.9976 19.5806 26.5409 19.5806C26.0843 19.5235 25.6277 19.809 25.6277 20.323Z" fill="#EFD94F"/>
<mask id="mask2_76_111" style="mask-type:luminance" maskUnits="userSpaceOnUse" x="25" y="19" width="6" height="9">
<path d="M25.6277 20.323C25.6277 21.7508 25.6277 26.3769 25.6277 26.3769C25.6277 26.3769 25.5136 27.2907 26.3126 27.2907C27.1117 27.2907 28.8241 27.2907 29.6231 27.2907C30.4222 27.2907 30.4222 25.6345 29.6231 25.6345C28.8241 25.6345 27.4542 25.6345 27.4542 25.6345C27.4542 25.6345 27.4542 21.3511 27.4542 20.323C27.4542 19.809 26.9976 19.5806 26.5409 19.5806C26.0843 19.5235 25.6277 19.809 25.6277 20.323Z" fill="white"/>
</mask>
<g mask="url(#mask2_76_111)">
<path d="M30.365 19.5233H25.5134V27.2906H30.365V19.5233Z" fill="#EFD94F"/>
</g>
<path d="M30.5934 20.0949C30.5934 20.7231 30.5934 26.4344 30.5934 26.8342C30.5934 27.5195 32.3058 27.5195 32.3058 26.8342C32.3058 26.0346 32.3058 24.6068 32.3058 24.6068L32.8195 24.207L34.9884 27.1768C35.445 27.748 36.8149 26.72 36.3583 26.1488L34.0752 23.1219C34.0752 23.1219 35.6163 21.4085 36.2441 20.8374C36.5866 20.4947 35.5021 19.3524 35.1026 19.6951C34.7601 20.0378 32.3058 22.4936 32.3058 22.4936C32.3058 22.4936 32.3058 20.9516 32.3058 20.0949C32.3058 19.7522 31.9062 19.638 31.5067 19.638C31.0501 19.5238 30.5934 19.6951 30.5934 20.0949Z" fill="#EFD94F"/>
<mask id="mask3_76_111" style="mask-type:luminance" maskUnits="userSpaceOnUse" x="30" y="19" width="7" height="9">
<path d="M30.5934 20.0949C30.5934 20.7231 30.5934 26.4344 30.5934 26.8342C30.5934 27.5195 32.3058 27.5195 32.3058 26.8342C32.3058 26.0346 32.3058 24.6068 32.3058 24.6068L32.8195 24.207L34.9884 27.1768C35.445 27.748 36.8149 26.72 36.3583 26.1488L34.0752 23.1219C34.0752 23.1219 35.6163 21.4085 36.2441 20.8374C36.5866 20.4947 35.5021 19.3524 35.1026 19.6951C34.7601 20.0378 32.3058 22.4936 32.3058 22.4936C32.3058 22.4936 32.3058 20.9516 32.3058 20.0949C32.3058 19.7522 31.9062 19.638 31.5067 19.638C31.0501 19.5238 30.5934 19.6951 30.5934 20.0949Z" fill="white"/>
</mask>
<g mask="url(#mask3_76_111)">
<path d="M36.7578 19.2371H30.5934V27.6897H36.7578V19.2371Z" fill="#EFD94F"/>
</g>
</svg>
