<svg width="20" height="20" viewBox="0 0 20 20" fill="none" xmlns="http://www.w3.org/2000/svg">
<path fill-rule="evenodd" clip-rule="evenodd" d="M3.22781 3.22781C3.53155 2.92406 4.02401 2.92406 4.32775 3.22781L16.7722 15.6723C17.0759 15.976 17.0759 16.4685 16.7722 16.7722C16.4685 17.0759 15.976 17.0759 15.6723 16.7722L3.22781 4.32775C2.92407 4.02401 2.92407 3.53155 3.22781 3.22781Z" fill="black"/>
<path fill-rule="evenodd" clip-rule="evenodd" d="M16.7722 3.22781C16.4685 2.92406 15.976 2.92406 15.6723 3.22781L3.22781 15.6723C2.92406 15.976 2.92406 16.4685 3.22781 16.7722C3.53155 17.0759 4.02401 17.0759 4.32775 16.7722L16.7722 4.32775C17.0759 4.02401 17.0759 3.53155 16.7722 3.22781Z" fill="black"/>
</svg>
