<svg width="50" height="51" viewBox="0 0 50 51" fill="none" xmlns="http://www.w3.org/2000/svg">
<circle cx="25" cy="25.478" r="25" fill="#01AFD6"/>
<g opacity="0.4">
<path d="M36.6773 20.5746H34.7227V25.1042C34.7227 27.6067 32.536 29.6337 29.8362 29.6337H21.0405V31.4456C21.0405 33.4442 22.7935 35.0692 24.9497 35.0692H30.8135L35.077 38.3588C35.4923 38.6759 36.1092 38.6249 36.4513 38.2456C36.5979 38.0814 36.6773 37.8775 36.6773 37.6624V35.0692C38.8335 35.0692 40.5865 33.4442 40.5865 31.4456V24.1982C40.5865 22.1996 38.8335 20.5746 36.6773 20.5746Z" fill="#B8F5E6"/>
</g>
<path d="M29.6705 11.478H14.0337C11.8775 11.478 10.1245 13.103 10.1245 15.1017V24.4677C10.1245 26.4664 11.8775 28.0914 14.0337 28.0914V31.5622C14.0337 32.0604 14.4735 32.4681 15.011 32.4681C15.2431 32.4681 15.4691 32.3888 15.6463 32.2529L20.8748 28.0914H29.6705C31.8267 28.0914 33.5797 26.4664 33.5797 24.4677V15.1017C33.5797 13.103 31.8267 11.478 29.6705 11.478ZM17.3688 21.0643C17.2832 21.1549 17.1855 21.2285 17.0756 21.2908C16.9717 21.3587 16.8618 21.4153 16.7457 21.4606C16.6236 21.5003 16.5014 21.5342 16.3731 21.5626C16.251 21.5852 16.1227 21.6022 15.9944 21.5965C14.9133 21.5965 14.0398 20.7869 14.0398 19.7847C14.0215 18.7825 14.8766 17.9559 15.9578 17.9389C16.0983 17.9389 16.2388 17.9502 16.3792 17.9729C16.5075 17.9955 16.6297 18.0295 16.7518 18.0748C16.8679 18.1201 16.9839 18.1767 17.0817 18.2446C17.1855 18.3069 17.2832 18.3805 17.3749 18.4598C17.7536 18.8108 17.9612 19.2864 17.949 19.7847C17.9429 20.266 17.7352 20.7246 17.3688 21.0643ZM23.2326 21.0643C22.8661 21.404 22.3713 21.5965 21.8521 21.5965C21.7239 21.6079 21.5956 21.6079 21.4734 21.5965C21.3452 21.5739 21.223 21.5399 21.1008 21.4946C20.9848 21.4493 20.8748 21.387 20.771 21.3248C20.661 21.2568 20.5572 21.1832 20.4656 21.0983C20.093 20.7472 19.8853 20.2773 19.8975 19.7847C19.8853 19.6658 19.8853 19.5469 19.8975 19.4337C19.922 19.3148 19.9586 19.2015 20.0075 19.0883C20.0563 18.9807 20.1174 18.8731 20.1907 18.7825C20.2579 18.6806 20.3373 18.59 20.4228 18.4994C20.5144 18.4202 20.6183 18.3466 20.7282 18.2843C20.8321 18.2163 20.942 18.1597 21.0581 18.1144C21.1925 18.0578 21.3268 18.0125 21.4673 17.9785C22.524 17.7804 23.5563 18.4202 23.764 19.3997C23.7884 19.5299 23.8067 19.6601 23.8006 19.7904C23.8006 20.266 23.5991 20.7302 23.2326 21.07V21.0643ZM29.0964 21.0643C29.0109 21.1549 28.9131 21.2285 28.8032 21.2908C28.6993 21.3587 28.5894 21.4153 28.4733 21.4606C28.3512 21.5003 28.229 21.5342 28.1008 21.5626C27.9786 21.5852 27.8503 21.6022 27.722 21.5965C26.6409 21.5965 25.7674 20.7869 25.7674 19.7847C25.7491 18.7825 26.6043 17.9559 27.6854 17.9389C27.8259 17.9389 27.9664 17.9502 28.1069 17.9729C28.2351 17.9955 28.3573 18.0295 28.4795 18.0748C28.5955 18.1201 28.7116 18.1767 28.8093 18.2446C28.9131 18.3069 29.0109 18.3805 29.1025 18.4598C29.4812 18.8108 29.6889 19.2864 29.6766 19.7847C29.6705 20.266 29.4629 20.7246 29.0964 21.0643Z" fill="white"/>
</svg>
