<svg width="602" height="149" viewBox="0 0 602 149" fill="none" xmlns="http://www.w3.org/2000/svg">
<path d="M43.8799 89.3837V137.925L35.6051 140.023V89.3837H43.8799ZM30.5936 91.3067V96.901H21.0367V111.12L31.5842 124.989L27.0972 128.66L16.8993 118.287C14.9957 120.269 13.0921 122.23 11.1885 124.173C9.28491 126.077 7.38131 128.019 5.47771 130L1.16547 126.446C1.9813 125.358 2.91367 124.115 3.9626 122.716C5.05037 121.279 6.11872 119.88 7.16764 118.52C8.21656 117.122 9.16836 115.859 10.023 114.733C10.9166 113.567 11.5576 112.712 11.9461 112.169C12.2957 111.664 12.5094 111.217 12.5871 110.828C12.7036 110.44 12.7619 109.993 12.7619 109.488V96.901H3.20504V91.3067H30.5936ZM94.0716 110.42V116.015H49.9003V110.42H94.0716ZM80.9018 141.713H55.378V120.793H88.5939V134.021C88.5939 134.565 88.5356 135.128 88.4191 135.711C88.3414 136.333 87.8946 136.974 87.0788 137.634L82.8831 141.014C82.3004 141.48 81.6399 141.713 80.9018 141.713ZM80.3191 126.387H63.6529V136.119H78.2795C78.4349 136.119 78.5709 136.1 78.6874 136.061C78.8428 136.061 78.9982 136.002 79.1536 135.886L79.9694 135.128C80.1637 134.934 80.2608 134.798 80.2608 134.72C80.2997 134.643 80.3191 134.449 80.3191 134.138V126.387ZM88.5939 97.8333C88.5939 98.5326 88.5356 99.2513 88.4191 99.9894C88.3025 100.728 88.1666 101.349 88.0112 101.854L86.263 107.682H79.7363L80.3191 99.2902V95.852H54.7953V90.2578H83.5241C83.8349 90.2578 84.1457 90.2772 84.4565 90.316C84.8061 90.3549 85.0975 90.5103 85.3306 90.7822L87.9529 93.4628C88.1471 93.6571 88.3025 93.8902 88.4191 94.1621C88.5356 94.3952 88.5939 94.8031 88.5939 95.3858V97.8333ZM138.35 91.3067V120.677C138.35 121.026 138.312 121.318 138.234 121.551C138.195 121.745 138.02 121.939 137.709 122.133L129.318 127.786C128.696 128.213 127.939 128.485 127.045 128.602C126.191 128.679 125.336 128.718 124.481 128.718H113.001V91.3067H120.985V104.127H130.367V91.3067H138.35ZM144.236 89.3837H152.511V106.225H160.494V111.819H152.511V137.925L144.236 140.023V89.3837ZM124.773 123.124C125.083 123.124 125.394 123.105 125.705 123.066C126.016 122.988 126.346 122.852 126.696 122.658L130.367 120.269V109.721H120.985V123.124H124.773ZM202.778 121.259H189.142V129.126H207.09V134.72H162.919V129.126H180.867V121.259H167.814V109.371C167.814 108.828 167.853 108.264 167.931 107.682C168.047 107.06 168.513 106.419 169.329 105.759L171.777 103.835C172.359 103.369 173.02 103.136 173.758 103.136H193.338V96.3765H168.397V90.7822H197.184C197.495 90.7822 197.805 90.8211 198.116 90.8988C198.427 90.9376 198.718 91.0736 198.99 91.3067L200.972 93.2297C201.166 93.424 201.321 93.6571 201.438 93.929C201.554 94.1621 201.613 94.57 201.613 95.1527V105.875C201.613 106.652 201.36 107.312 200.855 107.856C200.389 108.361 199.728 108.653 198.874 108.73H176.089V115.665H202.778V121.259ZM265.53 89.3837V99.4067H272.93V105.001H265.53V118.054H257.255V89.3837H265.53ZM232.547 129.068C232.547 128.291 232.935 127.397 233.712 126.387C234.489 125.338 235.422 124.367 236.509 123.474C237.636 122.541 238.821 121.764 240.064 121.143C241.307 120.482 242.395 120.152 243.327 120.152H256.497C257.43 120.152 258.459 120.405 259.586 120.91C260.712 121.415 261.742 122.056 262.674 122.833C263.645 123.571 264.461 124.406 265.122 125.338C265.782 126.232 266.112 127.087 266.112 127.902V133.963C266.112 134.779 265.724 135.692 264.947 136.702C264.17 137.751 263.218 138.741 262.091 139.674C261.004 140.606 259.838 141.383 258.595 142.005C257.352 142.626 256.264 142.937 255.332 142.937H242.162C241.229 142.937 240.2 142.665 239.073 142.121C237.947 141.616 236.898 140.975 235.927 140.198C234.994 139.421 234.198 138.566 233.537 137.634C232.877 136.741 232.547 135.886 232.547 135.07V129.068ZM258.012 128.835C258.012 127.98 257.624 127.261 256.847 126.679C256.109 126.057 255.351 125.746 254.574 125.746H245.775C245.386 125.746 244.901 125.902 244.318 126.213C243.735 126.523 243.172 126.912 242.628 127.378C242.084 127.844 241.618 128.349 241.229 128.893C240.841 129.398 240.647 129.864 240.647 130.292V134.138C240.647 134.565 240.744 134.973 240.938 135.361C241.171 135.75 241.463 136.08 241.812 136.352C242.162 136.663 242.531 136.896 242.919 137.051C243.347 137.246 243.755 137.343 244.143 137.343H252.884C253.273 137.343 253.758 137.187 254.341 136.877C254.924 136.566 255.487 136.177 256.031 135.711C256.575 135.245 257.041 134.74 257.43 134.196C257.818 133.652 258.012 133.166 258.012 132.739V128.835ZM244.609 91.0736L243.211 100.689L253.234 113.917L248.747 117.588L239.481 108.381C237.694 110.129 235.927 111.897 234.178 113.684C232.43 115.432 230.663 117.18 228.876 118.928L224.563 115.374C225.379 114.286 226.292 113.082 227.302 111.761C228.312 110.44 229.283 109.158 230.216 107.915C231.187 106.633 232.061 105.487 232.838 104.477C233.615 103.466 234.178 102.748 234.528 102.32C234.878 101.893 235.091 101.446 235.169 100.98C235.286 100.475 235.344 100.028 235.344 99.6398V89.5002L244.609 91.0736ZM307.347 142.354H281.474V120.735H315.039V134.662C315.039 135.206 314.981 135.769 314.864 136.352C314.787 136.974 314.34 137.615 313.524 138.275L309.328 141.655C308.746 142.121 308.085 142.354 307.347 142.354ZM285.028 110.712H295.285C295.673 110.712 296.042 110.692 296.392 110.653C296.741 110.576 297.13 110.44 297.557 110.246L306.764 106.108V89.3837H315.039V99.9894H322.44V105.584H315.039V117.53H306.764V111.936L300.413 115.374C299.752 115.684 298.995 115.918 298.14 116.073C297.285 116.228 296.431 116.306 295.576 116.306H276.754V91.0153H301.112V96.6096H285.028V110.712ZM306.764 126.329H289.749V136.76H304.725C304.88 136.76 305.016 136.741 305.133 136.702C305.288 136.702 305.444 136.643 305.599 136.527L306.415 135.769C306.609 135.575 306.706 135.439 306.706 135.361C306.745 135.284 306.764 135.09 306.764 134.779V126.329ZM340.177 90.4326H348.16V98.3578H357.542V90.4326H365.526V109.838C365.526 110.187 365.487 110.479 365.409 110.712C365.371 110.906 365.196 111.1 364.885 111.295L357.659 116.131C357.037 116.559 356.28 116.83 355.386 116.947C354.532 117.025 353.677 117.064 352.822 117.064H340.177V90.4326ZM354.396 127.087V136.76H380.735V142.354H346.121V121.492H379.686V127.087H354.396ZM379.686 89.3837V100.572H387.087V106.166H379.686V118.287H371.412V89.3837H379.686ZM357.542 103.952H348.16V111.469H353.114C353.424 111.469 353.755 111.45 354.104 111.411C354.454 111.333 354.784 111.197 355.095 111.003L357.542 109.43V103.952ZM389.454 100.514C389.454 99.7369 389.842 98.824 390.619 97.7751C391.435 96.6873 392.425 95.6772 393.591 94.7448C394.756 93.7736 395.961 92.9578 397.204 92.2973C398.486 91.6369 399.593 91.3067 400.526 91.3067H405.187C406.12 91.3067 407.169 91.5981 408.334 92.1808C409.538 92.7635 410.646 93.4822 411.656 94.3369C412.705 95.1527 413.579 96.0463 414.278 97.0175C415.016 97.9887 415.385 98.8628 415.385 99.6398V119.511C415.385 120.288 414.977 121.22 414.162 122.308C413.385 123.357 412.413 124.367 411.248 125.338C410.082 126.271 408.859 127.067 407.577 127.728C406.333 128.388 405.246 128.718 404.313 128.718H399.651C398.719 128.718 397.651 128.446 396.446 127.902C395.281 127.32 394.174 126.601 393.125 125.746C392.115 124.892 391.241 123.979 390.502 123.007C389.803 122.036 389.454 121.162 389.454 120.385V100.514ZM407.577 118.87V100.281C407.577 99.8535 407.479 99.4456 407.285 99.0571C407.091 98.6297 406.838 98.2607 406.528 97.9499C406.217 97.6391 405.867 97.3866 405.479 97.1923C405.09 96.9981 404.702 96.901 404.313 96.901H401.982C401.594 96.901 401.128 97.0563 400.584 97.3671C400.04 97.6391 399.515 97.9887 399.01 98.4161C398.544 98.8434 398.136 99.3096 397.787 99.8146C397.437 100.281 397.262 100.728 397.262 101.155V119.744C397.262 120.171 397.359 120.599 397.554 121.026C397.748 121.415 398 121.764 398.311 122.075C398.622 122.386 398.972 122.638 399.36 122.833C399.749 123.027 400.137 123.124 400.526 123.124H402.856C403.245 123.124 403.711 122.988 404.255 122.716C404.799 122.405 405.304 122.036 405.77 121.609C406.275 121.182 406.702 120.735 407.052 120.269C407.402 119.764 407.577 119.297 407.577 118.87ZM420.921 89.3837H429.196V106.225H437.18V111.819H429.196V137.925L420.921 140.023V89.3837ZM470.023 90.7822H478.298V115.315C478.298 115.898 478.24 116.325 478.123 116.597C478.006 116.869 477.851 117.083 477.657 117.238L474.801 119.453C474.491 119.647 474.18 119.783 473.869 119.861C473.597 119.938 473.306 119.977 472.995 119.977H465.827V128.194H483.776V133.788H439.604V128.194H457.552V119.977H445.082V90.7822H453.357V99.9312H470.023V90.7822ZM470.023 114.383V105.525H453.357V114.383H470.023ZM504.992 91.6563L503.593 108.847L512.451 126.038L507.09 128.66L499.864 117.413L491.822 130L486.577 127.436C487.354 125.882 488.189 124.251 489.083 122.541C489.977 120.793 490.831 119.142 491.647 117.588C492.463 115.995 493.182 114.577 493.803 113.334C494.464 112.052 494.93 111.081 495.202 110.42C495.396 109.915 495.532 109.197 495.61 108.264C495.687 107.293 495.726 106.555 495.726 106.05V90.083L504.992 91.6563ZM514.024 89.3837H521.367V137.518L514.024 139.441V109.663H507.439V104.069H514.024V89.3837ZM525.271 89.3837H532.613V138.1L525.271 140.023V89.3837ZM581.657 128.194V133.788H537.486V128.194H547.334V116.423C546.673 115.918 546.032 115.374 545.411 114.791C544.828 114.208 544.304 113.625 543.837 113.043C543.371 112.421 543.002 111.838 542.73 111.295C542.458 110.712 542.322 110.187 542.322 109.721V101.621C542.322 100.844 542.75 99.8729 543.604 98.7074C544.459 97.542 545.488 96.4153 546.693 95.3276C547.936 94.2398 549.218 93.3074 550.539 92.5304C551.86 91.7535 552.986 91.365 553.919 91.365H566.389C567.322 91.365 568.39 91.6952 569.594 92.3556C570.799 92.9772 571.925 93.7542 572.974 94.6866C574.062 95.6189 574.975 96.6096 575.713 97.6585C576.451 98.7074 576.82 99.6398 576.82 100.456V108.556C576.82 109.022 576.684 109.546 576.412 110.129C576.14 110.673 575.771 111.256 575.305 111.877C574.839 112.499 574.295 113.12 573.673 113.742C573.052 114.364 572.391 114.966 571.692 115.548V128.194H581.657ZM568.837 101.097C568.837 100.669 568.642 100.223 568.254 99.7564C567.904 99.2513 567.477 98.8046 566.972 98.4161C566.467 97.9887 565.923 97.6391 565.34 97.3671C564.796 97.0952 564.33 96.9592 563.942 96.9592H556.366C555.978 96.9592 555.434 97.1535 554.734 97.542C554.074 97.9305 553.414 98.4161 552.753 98.9988C552.093 99.5427 551.51 100.125 551.005 100.747C550.539 101.33 550.306 101.835 550.306 102.262V109.08C550.306 109.507 550.481 109.974 550.83 110.479C551.219 110.945 551.665 111.392 552.17 111.819C552.675 112.207 553.2 112.538 553.744 112.81C554.327 113.082 554.812 113.218 555.201 113.218H562.776C563.165 113.218 563.689 113.023 564.35 112.635C565.049 112.246 565.729 111.78 566.389 111.236C567.05 110.692 567.613 110.11 568.079 109.488C568.584 108.866 568.837 108.342 568.837 107.915V101.097ZM563.417 128.194V118.812H555.609V128.194H563.417ZM588.421 123.707V90.2578H598.561L596.638 123.707H588.421ZM587.838 136.702V128.427H597.512L596.754 136.702H587.838Z" fill="white"/>
<path d="M15.039 53.6869C12.6479 53.3609 10.8547 52.5186 9.65917 51.1601C7.89308 50.2091 6.80625 48.7826 6.39869 46.8807C6.20849 45.9297 6.1134 44.9516 6.1134 43.9463C6.1134 43.104 6.18132 42.1666 6.31718 41.1341C6.39869 40.4277 6.69757 39.9522 7.21381 39.7076V38.974L5.78735 38.9333C4.37448 38.9333 3.36916 38.4034 2.77141 37.3438C2.0378 37.1264 1.46722 36.7324 1.05966 36.1619C0.679266 35.5913 0.489072 34.8713 0.489072 34.0018V31.5564C0.489072 30.3066 1.114 29.7088 2.36385 29.7632L4.36089 29.8039C2.94802 28.5269 2.24158 26.8016 2.24158 24.6279C2.24158 22.9705 2.64914 21.5305 3.46426 20.3078C4.30655 19.0579 5.48847 18.0934 7.01003 17.4141C8.53159 16.7348 10.2977 16.3952 12.3083 16.3952C14.0201 16.3952 15.5552 16.6533 16.9137 17.1696C18.2723 17.6586 19.3998 18.3651 20.2965 19.2889C20.8399 19.5878 21.3697 19.9817 21.886 20.4708V17.5364C21.886 16.9386 22.0354 16.4903 22.3343 16.1914C22.6603 15.8654 23.1222 15.7024 23.72 15.7024H27.551C28.2031 15.7024 28.7737 15.8382 29.2628 16.1099C29.7519 16.3816 30.1323 16.762 30.404 17.2511C31.0832 17.4413 31.6131 17.8081 31.9934 18.3515C32.401 18.8949 32.6048 19.547 32.6048 20.3078V39.6669C32.6048 39.8299 32.6048 40.3054 32.6048 41.0933C32.6048 41.8541 32.5369 42.5606 32.401 43.2127C32.2108 44.1908 31.7625 44.9652 31.0561 45.5357C31.681 45.7531 32.1701 46.1471 32.5233 46.7177C32.8765 47.2611 33.0531 47.9132 33.0531 48.674V51.2823C33.0531 52.3963 32.5233 53.0756 31.4636 53.3201C28.9639 53.8364 25.8665 54.0945 22.1713 54.0945C19.5085 54.0945 17.1311 53.9586 15.039 53.6869ZM23.72 43.3757C24.1004 43.43 24.6166 43.4572 25.2687 43.4572C27.3337 43.4572 28.502 42.7643 28.7737 41.3786C28.8824 40.9439 28.9367 40.1967 28.9367 39.1371V37.1808V18.8813C28.9367 17.9847 28.4748 17.5364 27.551 17.5364H23.72V36.3656H18.2994C18.0549 36.9634 17.9326 37.6019 17.9326 38.2812C17.9326 38.8246 18.0141 39.2593 18.1772 39.5854C18.3674 39.9386 18.6798 40.2103 19.1146 40.4005C19.5765 40.5635 20.3101 40.645 21.3154 40.645C21.9946 40.645 22.7962 40.6043 23.72 40.5228V43.3757ZM12.3083 30.4153C14.9982 30.4153 17.036 29.9262 18.4217 28.9481C19.8074 27.9427 20.5003 26.5027 20.5003 24.6279C20.5003 22.6988 19.7802 21.1501 18.3402 19.9817C16.9001 18.8134 14.8895 18.2292 12.3083 18.2292C9.69992 18.2292 7.67571 18.8134 6.23567 19.9817C4.79562 21.1501 4.0756 22.6988 4.0756 24.6279C4.0756 26.5027 4.76845 27.9427 6.15415 28.9481C7.56703 29.9262 9.61841 30.4153 12.3083 30.4153ZM12.3083 26.3804C11.1943 26.3804 10.3384 26.2038 9.74068 25.8506C9.1701 25.4974 8.8848 24.954 8.8848 24.2204C8.8848 23.5139 9.18368 22.9569 9.78144 22.5494C10.3792 22.1418 11.2215 21.938 12.3083 21.938C13.368 21.938 14.1967 22.1418 14.7944 22.5494C15.4193 22.9569 15.7318 23.5139 15.7318 24.2204C15.7318 24.9268 15.4329 25.4702 14.8352 25.8506C14.2374 26.2038 13.3951 26.3804 12.3083 26.3804ZM9.04783 40.0337C9.86295 40.088 10.4199 40.1152 10.7188 40.1152C11.8328 40.1152 12.6887 39.9658 13.2865 39.6669C13.9114 39.368 14.2918 38.8925 14.4276 38.2404C14.482 37.86 14.5091 37.1808 14.5091 36.2026V35.5913C17.6338 35.4011 20.1335 35.1837 22.0082 34.9392V32.4123C22.0082 31.9504 21.8588 31.6108 21.5599 31.3934C21.261 31.1489 20.8535 31.0538 20.3372 31.1081C16.316 31.4885 11.8328 31.6787 6.88776 31.6787C5.85528 31.6787 4.33372 31.6515 2.32309 31.5972V34.0018C2.32309 34.5724 2.44536 34.9935 2.68989 35.2652C2.9616 35.5369 3.39633 35.6728 3.99409 35.6728C6.00471 35.7271 7.6893 35.7543 9.04783 35.7543V40.0337ZM13.4495 50.4265C15.4329 50.6982 17.7289 50.834 20.3372 50.834C23.9509 50.834 26.9669 50.5759 29.3851 50.0597V47.2475C29.3851 46.6769 29.2356 46.2693 28.9367 46.0248C28.6379 45.7803 28.2031 45.6988 27.6326 45.7803C25.0513 46.1335 22.4022 46.3101 19.6851 46.3101C17.919 46.3101 16.5062 46.215 15.4465 46.0248C14.7129 45.9161 14.1423 45.7124 13.7348 45.4135C13.3272 45.1146 13.0827 44.775 13.0012 44.3946C12.9468 44.15 12.9196 43.6202 12.9196 42.8051C12.9196 41.7998 12.4713 41.2971 11.5747 41.2971H8.1512C8.01534 42.2481 7.94742 43.1447 7.94742 43.987C7.94742 44.9108 8.02893 45.7395 8.19195 46.4731C8.68102 48.7011 10.4335 50.0189 13.4495 50.4265ZM22.7011 44.2723L22.375 43.9055C21.3969 43.8512 20.5954 43.6881 19.9704 43.4164C19.3455 43.1176 18.8564 42.6828 18.5032 42.1122C18.0141 41.922 17.6609 41.7318 17.4436 41.5417C17.0632 42.0036 16.6692 42.3432 16.2616 42.5606C16.479 43.0768 16.5877 43.6338 16.5877 44.2315V44.3131C17.8919 44.4217 19.0602 44.4761 20.0927 44.4761C20.6905 44.4761 21.5871 44.4489 22.7826 44.3946L22.7011 44.2723ZM52.9452 55.0319C50.4998 55.0319 48.367 54.7466 46.5465 54.176C44.7533 53.6054 43.3404 52.7767 42.3079 51.6899C39.8082 50.1955 38.5583 48.0626 38.5583 45.2912C38.5583 42.9545 39.4278 40.9982 41.1667 39.4223C40.8407 39.5039 40.5282 39.5446 40.2293 39.5446C39.5229 39.5446 38.8436 39.3816 38.1915 39.0555C37.5394 38.7295 36.996 38.2812 36.5613 37.7106C36.0451 37.4661 35.5696 37.14 35.1348 36.7324C34.7001 36.2977 34.3605 35.8086 34.1159 35.2652C33.9257 34.912 33.8307 34.5724 33.8307 34.2463C33.8307 34.0018 33.9122 33.6622 34.0752 33.2274C34.2382 32.7112 34.6458 32.1678 35.2979 31.5972C37.0368 30.0485 38.3681 28.4454 39.292 26.788C38.178 26.6521 37.39 26.1495 36.9281 25.28C36.2488 25.0898 35.7054 24.723 35.2979 24.1796C34.9175 23.6362 34.7273 22.9841 34.7273 22.2233V19.2074C34.7273 18.6096 34.8767 18.1613 35.1756 17.8624C35.5016 17.5364 35.9635 17.3734 36.5613 17.3734H51.1112C51.7633 17.3734 52.3339 17.5092 52.8229 17.7809C53.312 18.0526 53.6788 18.433 53.9234 18.9221L54.0456 18.9628V17.5364C54.0456 16.9386 54.1951 16.4903 54.4939 16.1914C54.82 15.8654 55.2819 15.7024 55.8796 15.7024H59.6292C60.2813 15.7024 60.8519 15.8382 61.3409 16.1099C61.83 16.3816 62.2104 16.762 62.4821 17.2511C63.1614 17.4413 63.6912 17.8081 64.0716 18.3515C64.4791 18.8949 64.6829 19.547 64.6829 20.3078V23.1607C65.7698 23.4052 66.5849 23.9487 67.1283 24.7909C67.8891 25.0355 68.5004 25.511 68.9623 26.2174C69.4514 26.951 69.6959 27.8748 69.6959 28.9888C69.6959 30.2115 69.397 31.3527 68.7993 32.4123C68.5819 32.8199 68.2966 33.1052 67.9434 33.2682C67.5902 33.4312 67.1555 33.5127 66.6392 33.5127H66.5169C65.2943 33.5127 64.6829 33.241 64.6829 32.6976V33.7573C64.6829 33.9203 64.6829 34.3958 64.6829 35.1837C64.6829 35.9445 64.615 36.6509 64.4791 37.303C64.1531 38.7159 63.3923 39.6941 62.1968 40.2375C64.3976 41.8949 65.498 44.0549 65.498 46.7177C65.498 49.3532 64.3841 51.391 62.1561 52.8311C59.9552 54.2983 56.885 55.0319 52.9452 55.0319ZM55.8796 37.4661C56.5861 37.5204 57.0751 37.5476 57.3469 37.5476C58.4337 37.5476 59.2488 37.3845 59.7922 37.0585C60.3628 36.7053 60.716 36.1755 60.8519 35.469C60.9606 35.0343 61.0149 34.2871 61.0149 33.2274V31.2711V30.2522H65.2943C65.7833 29.4643 66.0279 28.5677 66.0279 27.5624C66.0279 26.9918 65.9599 26.5435 65.8241 26.2174C65.6339 25.7555 65.3486 25.4159 64.9682 25.1985C64.5878 24.9811 64.0444 24.8725 63.338 24.8725C62.7402 24.8725 61.9659 24.954 61.0149 25.117V18.8813C61.0149 17.9847 60.553 17.5364 59.6292 17.5364H55.8796V37.4661ZM50.5814 36.2026C51.1248 36.0939 51.6003 35.8902 52.0078 35.5913C52.4425 35.2652 52.7686 34.8848 52.986 34.4501C53.1218 34.1241 53.1897 33.8524 53.1897 33.635C53.1897 32.9014 52.7414 32.1814 51.8448 31.4749L46.3835 26.788C46.7367 25.6468 46.9133 24.5736 46.9133 23.5683H52.4561V20.5523C52.4561 19.6557 52.0078 19.2074 51.1112 19.2074H36.5613V22.2233C36.5613 23.12 37.0232 23.5683 37.947 23.5683H42.1041C42.0769 25.2257 41.452 26.951 40.2293 28.7443C39.0338 30.5375 37.4715 32.2221 35.5424 33.798C35.6511 34.4229 35.9771 34.9935 36.5205 35.5098C37.064 35.9988 37.6753 36.2434 38.3546 36.2434C39.1697 36.2434 40.0256 35.8766 40.9222 35.143C42.1177 34.1105 43.2317 32.8199 44.2642 31.2711L50.5814 36.2026ZM50.2961 27.5624L54.0456 30.7821V26.8287H50.4183L50.2961 27.5624ZM44.631 37.3438C45.6635 36.9634 46.7775 36.6781 47.973 36.4879L46.465 35.306C45.7857 36.1211 45.1744 36.8004 44.631 37.3438ZM51.1112 51.7714C54.6705 51.7714 57.3469 51.1872 59.1401 50.0189C60.9334 48.8506 61.83 47.2747 61.83 45.2912C61.83 43.9598 61.436 42.7507 60.6481 41.6639C59.8601 40.5771 58.651 39.7212 57.0208 39.0963C55.4177 38.4442 53.4479 38.1182 51.1112 38.1182C48.7745 38.1182 46.7911 38.4442 45.1608 39.0963C43.5577 39.7212 42.3622 40.5771 41.5743 41.6639C40.7863 42.7507 40.3924 43.9598 40.3924 45.2912C40.3924 47.2747 41.289 48.8506 43.0823 50.0189C44.8755 51.1872 47.5518 51.7714 51.1112 51.7714ZM51.1112 47.3698C49.1821 47.3698 47.7828 47.166 46.9133 46.7584C46.071 46.3509 45.6499 45.7531 45.6499 44.9652C45.6499 44.1772 46.1118 43.5387 47.0356 43.0496C47.9594 42.5334 49.3179 42.2753 51.1112 42.2753C52.9045 42.2753 54.263 42.5334 55.1868 43.0496C56.1106 43.5387 56.5725 44.1772 56.5725 44.9652C56.5725 45.7531 56.1378 46.3509 55.2683 46.7584C54.426 47.166 53.0403 47.3698 51.1112 47.3698ZM86.5832 54.9911C82.9152 54.7466 80.2389 53.7141 78.5543 51.8937C76.6795 50.834 75.4568 49.2717 74.8863 47.2067C74.5874 46.1471 74.4379 44.8701 74.4379 43.3757C74.4379 41.2564 74.6961 39.205 75.2123 37.2215C75.3753 36.6509 75.647 36.2434 76.0274 35.9988C75.3482 35.5641 74.7776 35.1022 74.3157 34.6131C72.4409 33.5535 71.259 31.9368 70.7699 29.7632C70.5254 28.6492 70.4031 27.0869 70.4031 25.0762C70.4031 23.0384 70.539 21.0414 70.8107 19.0851C70.9737 17.9983 71.6394 17.4549 72.8077 17.4549H76.1904C76.8425 17.4549 77.3995 17.5907 77.8614 17.8624C78.3233 18.107 78.663 18.4738 78.8803 18.9628C79.6139 19.153 80.1709 19.547 80.5513 20.1448C80.9317 20.7153 81.0948 21.4218 81.0404 22.2641C80.9589 23.3237 80.9181 24.5736 80.9181 26.0136C80.9181 26.8831 80.9317 27.4537 80.9589 27.7254C81.5838 27.8069 82.2903 27.8476 83.0782 27.8476C84.2737 27.8476 85.7002 27.7525 87.3576 27.5624C87.738 27.508 88.0233 27.4808 88.2135 27.4808C88.8927 27.4808 89.4769 27.6439 89.966 27.9699V17.5364C89.966 16.9386 90.1154 16.4903 90.4143 16.1914C90.7403 15.8654 91.2022 15.7024 91.8 15.7024H95.6311C96.2831 15.7024 96.8537 15.8382 97.3428 16.1099C97.8319 16.3816 98.2123 16.762 98.484 17.2511C99.1632 17.4413 99.6931 17.8081 100.073 18.3515C100.481 18.8949 100.685 19.547 100.685 20.3078V32.2085C100.685 32.3716 100.685 32.847 100.685 33.635C100.685 34.3958 100.617 35.1022 100.481 35.7543C100.291 36.5966 99.924 37.303 99.3806 37.8736C100.033 38.4442 100.359 39.2186 100.359 40.1967V49.5298C100.359 50.4265 100.155 51.0786 99.7474 51.4861C98.5519 52.6001 96.9217 53.4696 94.8567 54.0945C92.7917 54.7194 90.5637 55.0319 88.1727 55.0319C87.4663 55.0319 86.9364 55.0183 86.5832 54.9911ZM91.8 35.9173C92.5064 35.9717 93.0091 35.9988 93.308 35.9988C94.3948 35.9988 95.2235 35.8358 95.7941 35.5098C96.3647 35.1566 96.7179 34.6267 96.8537 33.9203C96.9624 33.4856 97.0168 32.7384 97.0168 31.6787V29.7224V18.8813C97.0168 17.9847 96.5549 17.5364 95.6311 17.5364H91.8V35.9173ZM78.8396 34.0833C79.8721 34.2192 80.9589 34.2871 82.1001 34.2871C83.4043 34.2871 84.7084 34.2192 86.0126 34.0833C87.3168 33.9475 88.4716 33.7437 89.4769 33.472V30.5375C89.4769 30.1572 89.3546 29.8583 89.1101 29.6409C88.8927 29.4235 88.5803 29.3149 88.1727 29.3149C87.9282 29.3149 87.7516 29.3284 87.6429 29.3556C85.9583 29.573 84.4232 29.6817 83.0375 29.6817C82.0321 29.6817 81.0812 29.6137 80.1845 29.4779C79.3151 29.3149 78.6494 29.016 78.1875 28.5813C77.7256 28.1465 77.4403 27.5352 77.3316 26.7472C77.2773 26.3668 77.2501 25.5925 77.2501 24.4241C77.2501 22.8211 77.2909 21.5712 77.3724 20.6746C77.4539 19.7508 77.0599 19.2889 76.1904 19.2889H72.6447C72.373 21.055 72.2371 23.0113 72.2371 25.1577C72.2371 26.8967 72.3458 28.3095 72.5632 29.3964C72.862 30.7821 73.5141 31.8553 74.5195 32.6161C75.5519 33.3497 76.992 33.8388 78.8396 34.0833ZM84.8715 51.7307C85.1975 51.7578 85.673 51.7714 86.2979 51.7714C88.4716 51.7714 90.4822 51.4997 92.3298 50.9563C94.2046 50.4129 95.6582 49.6521 96.6907 48.674V38.7702C96.6907 37.928 96.256 37.5068 95.3865 37.5068H77.0463C76.5301 39.4359 76.272 41.433 76.272 43.4979C76.272 44.8293 76.3942 45.9025 76.6388 46.7177C77.4811 49.7608 80.2253 51.4318 84.8715 51.7307ZM83.8933 46.8807C82.9424 46.6362 82.2495 46.2286 81.8148 45.658C81.38 45.0874 81.1627 44.2723 81.1627 43.2127C81.1627 42.9409 81.1898 42.479 81.2442 41.8269H91.6777V46.1878C91.08 46.5139 90.3328 46.772 89.4361 46.9622C88.5395 47.1252 87.6157 47.2067 86.6647 47.2067C85.7409 47.2067 84.8171 47.0981 83.8933 46.8807ZM84.8307 45.2097C85.3741 45.3184 86.0126 45.3727 86.7462 45.3727C87.7244 45.3727 88.5803 45.2776 89.3139 45.0874H84.8307V45.2097ZM127.178 54.5428C126.2 54.4613 125.629 53.9858 125.466 53.1164H125.344C124.175 53.0077 123.591 52.3556 123.591 51.1601V44.4353H116.337C115.685 44.4353 115.114 44.2995 114.625 44.0278C114.136 43.7561 113.755 43.3757 113.484 42.8866C112.804 42.6964 112.261 42.3296 111.854 41.7862C111.473 41.2428 111.283 40.5907 111.283 39.8299V36.7732C111.283 36.1755 111.432 35.7271 111.731 35.4283C112.057 35.1022 112.519 34.9392 113.117 34.9392H120.535C120.181 34.6131 119.923 34.3686 119.76 34.2056C118.619 33.5807 117.736 32.7655 117.111 31.7602C116.513 30.7549 116.133 29.5186 115.97 28.0514C115.861 27.0733 115.807 25.7283 115.807 24.0166C115.807 22.1418 115.888 20.2942 116.051 18.4738C116.16 17.3054 116.799 16.7213 117.967 16.7213H121.472C122.776 16.7213 123.686 17.2239 124.203 18.2292C125.235 18.4738 125.901 19.1123 126.2 20.1448H131.946V18.5553C131.946 17.9575 132.096 17.5092 132.395 17.2103C132.721 16.8843 133.182 16.7213 133.78 16.7213H137.408C138.06 16.7213 138.63 16.8571 139.119 17.1288C139.608 17.4005 139.989 17.7809 140.26 18.27C140.94 18.4602 141.47 18.827 141.85 19.3704C142.257 19.9138 142.461 20.5659 142.461 21.3267V33.6758C142.461 34.2192 142.366 34.6403 142.176 34.9392C143.371 35.0207 144.227 35.5369 144.744 36.4879C145.423 36.6781 145.953 37.0449 146.333 37.5883C146.741 38.1317 146.944 38.7838 146.944 39.5446V42.6013C146.944 43.1991 146.781 43.661 146.455 43.987C146.156 44.2859 145.708 44.4353 145.11 44.4353H134.595V47.9403C134.595 49.4347 134.541 50.4808 134.432 51.0786V51.1601C133.943 53.4696 132.041 54.6243 128.726 54.6243C128.4 54.6243 127.884 54.5972 127.178 54.5428ZM125.507 33.961C126.458 34.0697 127.545 34.1241 128.767 34.1241C130.561 34.1241 132.327 33.9882 134.066 33.7165C135.804 33.4448 137.38 33.0508 138.793 32.5346V19.9002C138.793 19.0036 138.331 18.5553 137.408 18.5553H133.78V21.9788H122.613L122.695 19.8187C122.695 19.384 122.6 19.0715 122.409 18.8813C122.219 18.664 121.907 18.5553 121.472 18.5553H117.885C117.722 20.2942 117.641 22.1418 117.641 24.0981C117.641 25.6468 117.695 26.8967 117.804 27.8476C117.994 29.7496 118.687 31.176 119.882 32.127C121.105 33.0508 122.98 33.6622 125.507 33.961ZM125.996 29.6002C124.828 29.41 123.985 29.0839 123.469 28.622C122.98 28.1601 122.722 27.4808 122.695 26.5842L122.654 26.0951H133.78V29.3149C132.34 29.6409 130.751 29.8039 129.012 29.8039C128.088 29.8039 127.083 29.736 125.996 29.6002ZM125.425 51.2823C126.186 51.3367 126.702 51.3638 126.974 51.3638C129.256 51.3638 130.533 50.6846 130.805 49.326C130.887 48.9185 130.927 48.1985 130.927 47.166V45.9025V41.1749H143.276V38.1182C143.276 37.2215 142.814 36.7732 141.891 36.7732H113.117V39.8299C113.117 40.7265 113.579 41.1749 114.503 41.1749H125.425V51.2823ZM161.864 54.9911C158.223 54.7466 155.534 53.7141 153.795 51.8937C151.947 50.834 150.738 49.2989 150.167 47.2882C149.868 46.2286 149.719 44.9652 149.719 43.4979C149.719 41.5145 149.977 39.4903 150.493 37.4253C150.656 36.8819 150.901 36.4879 151.227 36.2434C150.955 36.0532 150.602 35.7407 150.167 35.306C148.238 34.2735 147.07 32.521 146.662 30.0485C146.499 29.1518 146.418 28.0378 146.418 26.7065C146.418 24.1524 146.662 21.612 147.151 19.0851C147.342 17.9983 148.007 17.4549 149.148 17.4549H161.946C162.598 17.4549 163.168 17.5907 163.658 17.8624C164.147 18.1341 164.513 18.5145 164.758 19.0036C164.948 19.0308 165.138 19.0987 165.329 19.2074V17.5364C165.329 16.9386 165.478 16.4903 165.777 16.1914C166.103 15.8654 166.565 15.7024 167.163 15.7024H170.912C171.564 15.7024 172.135 15.8382 172.624 16.1099C173.113 16.3816 173.493 16.762 173.765 17.2511C174.444 17.4413 174.974 17.8081 175.355 18.3515C175.762 18.8949 175.966 19.547 175.966 20.3078V23.3645C177.053 23.609 177.868 24.1524 178.411 24.9947C179.172 25.2393 179.783 25.7147 180.245 26.4212C180.734 27.1548 180.979 28.0786 180.979 29.1926C180.979 30.4153 180.68 31.5564 180.082 32.6161C179.865 33.0237 179.58 33.3089 179.226 33.472C178.873 33.635 178.438 33.7165 177.922 33.7165H177.637C176.659 33.7165 176.102 33.241 175.966 32.29V32.9829C175.966 33.1459 175.966 33.6214 175.966 34.4094C175.966 35.1701 175.898 35.8766 175.762 36.5287C175.599 37.2079 175.327 37.8057 174.947 38.3219C175.409 38.8653 175.64 39.5582 175.64 40.4005V49.5706C175.64 50.5216 175.327 51.2687 174.702 51.8122C173.453 52.8175 171.809 53.6054 169.771 54.176C167.76 54.7466 165.614 55.0319 163.332 55.0319C162.679 55.0319 162.19 55.0183 161.864 54.9911ZM167.163 36.6917C167.869 36.746 168.358 36.7732 168.63 36.7732C169.717 36.7732 170.532 36.6102 171.075 36.2841C171.646 35.9309 171.999 35.4011 172.135 34.6947C172.243 34.2599 172.298 33.5127 172.298 32.4531V30.4968V30.456H176.577C177.066 29.6681 177.311 28.7714 177.311 27.7661C177.311 27.1955 177.243 26.7472 177.107 26.4212C176.917 25.9593 176.632 25.6197 176.251 25.4023C175.871 25.1849 175.327 25.0762 174.621 25.0762C174.023 25.0762 173.249 25.1578 172.298 25.3208V18.8813C172.298 17.9847 171.836 17.5364 170.912 17.5364H167.163V36.6917ZM155.18 34.7762C155.914 34.8577 156.715 34.8984 157.585 34.8984C160.03 34.8984 162.381 34.6539 164.636 34.1648V31.5564C164.636 31.0945 164.473 30.7549 164.147 30.5375C163.821 30.3202 163.372 30.2387 162.802 30.293C161.47 30.4832 159.976 30.5783 158.319 30.5783C157.395 30.5783 156.552 30.5375 155.792 30.456C154.949 30.3473 154.311 30.1028 153.876 29.7224C153.469 29.342 153.21 28.7714 153.102 28.0107C153.075 27.739 153.061 27.2363 153.061 26.5027C153.061 25.1985 153.102 24.2068 153.183 23.5275H163.25V20.4301C163.25 19.6693 162.815 19.2889 161.946 19.2889H148.985C148.496 21.7614 148.252 24.2475 148.252 26.7472C148.252 27.8612 148.32 28.8665 148.456 29.7632C148.727 31.3391 149.379 32.521 150.412 33.3089C151.444 34.0697 153.034 34.5588 155.18 34.7762ZM156.729 26.788C156.675 27.5216 156.675 28.1601 156.729 28.7035C157.055 28.7307 157.599 28.7443 158.359 28.7443C159.854 28.7443 161.185 28.6628 162.353 28.4997C162.516 28.4726 162.775 28.459 163.128 28.459C164.052 28.459 164.785 28.6763 165.329 29.1111V26.788H156.729ZM160.153 51.7307C160.479 51.7578 160.954 51.7714 161.579 51.7714C163.753 51.7714 165.763 51.4997 167.611 50.9563C169.458 50.4129 170.912 49.6657 171.972 48.7147V38.974C171.972 38.1317 171.537 37.7106 170.668 37.7106H152.327C151.811 39.6397 151.553 41.6096 151.553 43.6202C151.553 44.7885 151.675 45.8482 151.92 46.7992C152.355 48.2936 153.265 49.4483 154.65 50.2634C156.036 51.1057 157.87 51.5948 160.153 51.7307ZM159.174 46.9214C158.196 46.6769 157.49 46.2693 157.055 45.6988C156.648 45.1282 156.444 44.3131 156.444 43.2534C156.444 43.0089 156.471 42.5877 156.525 41.99H166.959V46.2286C166.388 46.5546 165.655 46.7992 164.758 46.9622C163.889 47.1252 162.965 47.2067 161.987 47.2067C160.9 47.2067 159.962 47.1116 159.174 46.9214ZM160.193 45.2504C160.764 45.332 161.348 45.3727 161.946 45.3727C162.652 45.3727 163.304 45.332 163.902 45.2504H160.193ZM205.243 54.5836C204.265 54.5021 203.694 54.0266 203.531 53.1571H203.409C202.241 53.0484 201.656 52.3963 201.656 51.2008V43.3757L201.453 43.5387C200.393 44.4353 199.102 45.1282 197.581 45.6173C196.086 46.1063 194.497 46.3509 192.812 46.3509C192.187 46.3509 191.712 46.3373 191.386 46.3101C188.56 46.0656 186.4 45.1554 184.906 43.5795C182.732 42.3568 181.374 40.2918 180.83 37.3845C180.586 35.9445 180.463 33.961 180.463 31.4342C180.463 27.902 180.667 24.4513 181.075 21.0822C181.211 19.941 181.863 19.3704 183.031 19.3704H186.454C187.079 19.3704 187.623 19.5063 188.085 19.778C188.574 20.0497 188.941 20.4301 189.185 20.9191C189.919 21.1093 190.476 21.5033 190.856 22.1011C191.264 22.6988 191.427 23.4052 191.345 24.2204L191.264 25.0762H192.038V21.2044C192.038 20.6067 192.187 20.1583 192.486 19.8595C192.812 19.5334 193.274 19.3704 193.872 19.3704H197.336C197.988 19.3704 198.559 19.5063 199.048 19.778C199.537 20.0497 199.918 20.4301 200.189 20.9191C200.76 21.0822 201.249 21.381 201.656 21.8158V17.5364C201.656 16.9386 201.806 16.4903 202.105 16.1914C202.431 15.8654 202.893 15.7024 203.49 15.7024H207.322C207.974 15.7024 208.544 15.8382 209.033 16.1099C209.522 16.3816 209.903 16.762 210.174 17.2511C210.854 17.4413 211.384 17.8081 211.764 18.3515C212.172 18.8949 212.375 19.547 212.375 20.3078V47.6143C212.375 47.7773 212.375 48.2392 212.375 49C212.375 49.7879 212.307 50.508 212.172 51.1601C211.655 53.4967 209.835 54.6651 206.71 54.6651C206.438 54.6651 205.949 54.6379 205.243 54.5836ZM203.49 51.3231C204.197 51.3774 204.7 51.4046 204.998 51.4046C206.085 51.4046 206.914 51.228 207.485 50.8748C208.055 50.5487 208.408 50.0325 208.544 49.326C208.653 48.8913 208.707 48.1441 208.707 47.0845V45.1282V18.8813C208.707 17.9847 208.245 17.5364 207.322 17.5364H203.49V51.3231ZM189.715 43.0496C190.014 43.0768 190.449 43.0904 191.019 43.0904C192.514 43.0904 193.94 42.873 195.299 42.4383C196.657 42.0036 197.798 41.3515 198.722 40.482V22.5494C198.722 21.6527 198.26 21.2044 197.336 21.2044H193.872V26.9103H187.392C187.419 25.9593 187.514 24.5328 187.677 22.6309C187.731 22.169 187.65 21.8158 187.433 21.5712C187.215 21.3267 186.889 21.2044 186.454 21.2044H182.909C182.501 24.7094 182.297 28.1329 182.297 31.4749C182.297 33.8388 182.406 35.7 182.623 37.0585C182.977 39.0691 183.751 40.5363 184.947 41.4601C186.169 42.3568 187.759 42.8866 189.715 43.0496ZM189.796 38.5257C188.492 38.2268 187.718 37.1536 187.473 35.306C187.365 34.4637 187.31 33.1595 187.31 31.3934H193.872V37.9144C193.166 38.4034 192.255 38.648 191.141 38.648C190.707 38.648 190.258 38.6072 189.796 38.5257ZM232.399 55.1949C229.845 55.1949 227.658 54.9096 225.837 54.339C224.017 53.7956 222.591 52.9805 221.558 51.8937C219.14 50.4808 217.931 48.4294 217.931 45.7395C217.931 44.0549 218.474 42.5606 219.561 41.2564H218.664C218.012 41.2564 217.442 41.1205 216.953 40.8488C216.464 40.5771 216.083 40.1967 215.812 39.7076C215.132 39.5174 214.589 39.1506 214.181 38.6072C213.801 38.0638 213.611 37.4117 213.611 36.6509V33.7165C213.611 33.1188 213.76 32.6704 214.059 32.3716C214.385 32.0455 214.847 31.8825 215.445 31.8825H220.458V30.6191C219.724 29.9126 219.154 29.1111 218.746 28.2144C218.366 27.3178 218.175 26.3668 218.175 25.3615C218.175 23.6498 218.705 22.1282 219.765 20.7969C220.825 19.4655 222.305 18.433 224.207 17.6994C226.109 16.9386 228.283 16.5582 230.728 16.5582C232.82 16.5582 234.709 16.8571 236.393 17.4549C238.105 18.0526 239.504 18.8949 240.591 19.9817C241.895 20.7969 242.901 21.7886 243.607 22.9569C244.341 24.0981 244.708 25.3751 244.708 26.788C244.708 28.7714 244.001 30.4696 242.588 31.8825H244.218C244.871 31.8825 245.441 32.0183 245.93 32.29C246.419 32.5618 246.8 32.9421 247.071 33.4312C247.751 33.6214 248.28 33.9882 248.661 34.5316C249.068 35.075 249.272 35.7271 249.272 36.4879V39.4223C249.272 40.0201 249.109 40.482 248.783 40.808C248.484 41.1069 248.036 41.2564 247.438 41.2564H241.855C242.86 41.99 243.621 42.8594 244.137 43.8647C244.68 44.8701 244.952 45.9705 244.952 47.166C244.952 49.7472 243.852 51.7307 241.651 53.1164C239.477 54.5021 236.393 55.1949 232.399 55.1949ZM245.604 35.0615C245.604 34.1648 245.142 33.7165 244.218 33.7165H238.553V29.8854C240.211 28.7443 241.039 27.2363 241.039 25.3615C241.039 24.1117 240.632 22.9569 239.817 21.8973C239.002 20.8376 237.806 19.9953 236.23 19.3704C234.682 18.7183 232.82 18.3923 230.647 18.3923C228.419 18.3923 226.503 18.7183 224.9 19.3704C223.297 19.9953 222.074 20.8376 221.232 21.8973C220.417 22.9569 220.009 24.1117 220.009 25.3615C220.009 27.182 220.77 28.6492 222.292 29.7632V33.7165H215.445V36.6509C215.445 37.5476 215.907 37.9959 216.83 37.9959H245.604V35.0615ZM230.524 27.6846C228.813 27.6846 227.495 27.4673 226.571 27.0325C225.674 26.5706 225.226 25.9593 225.226 25.1985C225.226 24.4377 225.729 23.7856 226.734 23.2422C227.739 22.6988 229.003 22.4271 230.524 22.4271C232.046 22.4271 233.309 22.6988 234.315 23.2422C235.32 23.7856 235.823 24.4377 235.823 25.1985C235.823 25.9593 235.361 26.5706 234.437 27.0325C233.54 27.4673 232.236 27.6846 230.524 27.6846ZM227.549 31.638C228.555 31.7738 229.546 31.8417 230.524 31.8417C231.611 31.8417 232.535 31.7874 233.296 31.6787V33.7165H227.549V31.638ZM230.565 51.9344C234.097 51.9344 236.76 51.391 238.553 50.3042C240.374 49.2445 241.284 47.723 241.284 45.7395C241.284 44.4897 240.863 43.3621 240.021 42.3568C239.178 41.3243 237.942 40.5228 236.312 39.9522C234.709 39.3544 232.793 39.0555 230.565 39.0555C228.31 39.0555 226.367 39.3544 224.737 39.9522C223.134 40.5228 221.898 41.3243 221.028 42.3568C220.186 43.3621 219.765 44.4897 219.765 45.7395C219.765 47.723 220.675 49.2445 222.496 50.3042C224.343 51.391 227.033 51.9344 230.565 51.9344ZM230.565 47.7366C228.772 47.7366 227.454 47.5464 226.612 47.166C225.77 46.7584 225.348 46.215 225.348 45.5357C225.348 44.8565 225.783 44.2995 226.653 43.8647C227.522 43.43 228.826 43.2127 230.565 43.2127C232.304 43.2127 233.595 43.43 234.437 43.8647C235.279 44.2995 235.7 44.8565 235.7 45.5357C235.7 47.003 233.989 47.7366 230.565 47.7366ZM278.16 53.7459C273.312 53.7459 269.387 52.2461 266.388 49.2465C263.388 47.4386 261.087 44.665 259.485 40.9258C257.923 37.1865 257.142 32.605 257.142 27.1811C257.142 22.0037 257.862 17.5659 259.3 13.8678C260.738 10.1697 262.813 7.355 265.525 5.42376C268.278 3.45142 271.565 2.46526 275.387 2.46526C280.112 2.46526 284.016 3.96505 287.097 6.96464C290.097 8.77262 292.398 11.5873 294 15.4087C295.603 19.2301 296.404 23.8733 296.404 29.3383C296.404 37.0633 294.802 43.0625 291.597 47.3358C288.433 51.6092 283.954 53.7459 278.16 53.7459ZM275.387 48.8151C280.153 48.8151 283.913 47.0277 286.666 43.4528C289.46 39.8369 290.857 34.413 290.857 27.1811C290.857 19.867 289.46 14.3814 286.666 10.7244C283.913 7.06737 280.153 5.23885 275.387 5.23885C270.62 5.23885 266.84 7.06737 264.046 10.7244C261.293 14.3814 259.916 19.867 259.916 27.1811C259.916 34.413 261.293 39.8369 264.046 43.4528C266.84 47.0277 270.62 48.8151 275.387 48.8151ZM275.387 40.9874C273.086 40.9874 271.278 39.8985 269.963 37.7207C268.648 35.5018 267.99 32.0092 267.99 27.2427C267.99 22.4351 268.648 18.8808 269.963 16.5798C271.278 14.2376 273.086 13.0666 275.387 13.0666C277.688 13.0666 279.496 14.2376 280.81 16.5798C282.125 18.8808 282.783 22.4351 282.783 27.2427C282.783 32.0092 282.125 35.5018 280.81 37.7207C279.496 39.8985 277.688 40.9874 275.387 40.9874ZM275.387 38.2138C278.468 38.2138 280.009 34.5568 280.009 27.2427C280.009 23.0104 279.496 19.9286 278.468 17.9974H278.16C276.681 17.9974 275.53 18.963 274.709 20.8942C273.928 22.7844 273.538 25.6196 273.538 29.3999C273.538 33.4679 274.01 36.4058 274.955 38.2138H275.387ZM308.951 53.6869C306.56 53.3609 304.767 52.5186 303.571 51.1601C301.805 50.2091 300.718 48.7826 300.311 46.8807C300.12 45.9297 300.025 44.9516 300.025 43.9463C300.025 43.104 300.093 42.1666 300.229 41.1341C300.311 40.4277 300.609 39.9522 301.126 39.7076V38.974L299.699 38.9333C298.286 38.9333 297.281 38.4034 296.683 37.3438C295.95 37.1264 295.379 36.7324 294.972 36.1619C294.591 35.5913 294.401 34.8713 294.401 34.0018V31.5564C294.401 30.3066 295.026 29.7088 296.276 29.7632L298.273 29.8039C296.86 28.5269 296.153 26.8016 296.153 24.6279C296.153 22.9705 296.561 21.5305 297.376 20.3078C298.218 19.0579 299.4 18.0934 300.922 17.4141C302.443 16.7348 304.21 16.3952 306.22 16.3952C307.932 16.3952 309.467 16.6533 310.826 17.1696C312.184 17.6586 313.312 18.3651 314.208 19.2889C314.752 19.5878 315.282 19.9817 315.798 20.4708V17.5364C315.798 16.9386 315.947 16.4903 316.246 16.1914C316.572 15.8654 317.034 15.7024 317.632 15.7024H321.463C322.115 15.7024 322.686 15.8382 323.175 16.1099C323.664 16.3816 324.044 16.762 324.316 17.2511C324.995 17.4413 325.525 17.8081 325.905 18.3515C326.313 18.8949 326.517 19.547 326.517 20.3078V39.6669C326.517 39.8299 326.517 40.3054 326.517 41.0933C326.517 41.8541 326.449 42.5606 326.313 43.2127C326.123 44.1908 325.674 44.9652 324.968 45.5357C325.593 45.7531 326.082 46.1471 326.435 46.7177C326.788 47.2611 326.965 47.9132 326.965 48.674V51.2823C326.965 52.3963 326.435 53.0756 325.376 53.3201C322.876 53.8364 319.778 54.0945 316.083 54.0945C313.42 54.0945 311.043 53.9586 308.951 53.6869ZM317.632 43.3757C318.012 43.43 318.529 43.4572 319.181 43.4572C321.246 43.4572 322.414 42.7643 322.686 41.3786C322.794 40.9439 322.849 40.1967 322.849 39.1371V37.1808V18.8813C322.849 17.9847 322.387 17.5364 321.463 17.5364H317.632V36.3656H312.211C311.967 36.9634 311.845 37.6019 311.845 38.2812C311.845 38.8246 311.926 39.2593 312.089 39.5854C312.279 39.9386 312.592 40.2103 313.026 40.4005C313.488 40.5635 314.222 40.645 315.227 40.645C315.907 40.645 316.708 40.6043 317.632 40.5228V43.3757ZM306.22 30.4153C308.91 30.4153 310.948 29.9262 312.334 28.9481C313.719 27.9427 314.412 26.5027 314.412 24.6279C314.412 22.6988 313.692 21.1501 312.252 19.9817C310.812 18.8134 308.801 18.2292 306.22 18.2292C303.612 18.2292 301.588 18.8134 300.148 19.9817C298.708 21.1501 297.987 22.6988 297.987 24.6279C297.987 26.5027 298.68 27.9427 300.066 28.9481C301.479 29.9262 303.53 30.4153 306.22 30.4153ZM306.22 26.3804C305.106 26.3804 304.25 26.2038 303.653 25.8506C303.082 25.4974 302.797 24.954 302.797 24.2204C302.797 23.5139 303.096 22.9569 303.693 22.5494C304.291 22.1418 305.133 21.938 306.22 21.938C307.28 21.938 308.109 22.1418 308.706 22.5494C309.331 22.9569 309.644 23.5139 309.644 24.2204C309.644 24.9268 309.345 25.4702 308.747 25.8506C308.149 26.2038 307.307 26.3804 306.22 26.3804ZM302.96 40.0337C303.775 40.088 304.332 40.1152 304.631 40.1152C305.745 40.1152 306.601 39.9658 307.198 39.6669C307.823 39.368 308.204 38.8925 308.34 38.2404C308.394 37.86 308.421 37.1808 308.421 36.2026V35.5913C311.546 35.4011 314.045 35.1837 315.92 34.9392V32.4123C315.92 31.9504 315.771 31.6108 315.472 31.3934C315.173 31.1489 314.765 31.0538 314.249 31.1081C310.228 31.4885 305.745 31.6787 300.8 31.6787C299.767 31.6787 298.246 31.6515 296.235 31.5972V34.0018C296.235 34.5724 296.357 34.9935 296.602 35.2652C296.873 35.5369 297.308 35.6728 297.906 35.6728C299.917 35.7271 301.601 35.7543 302.96 35.7543V40.0337ZM307.361 50.4265C309.345 50.6982 311.641 50.834 314.249 50.834C317.863 50.834 320.879 50.5759 323.297 50.0597V47.2475C323.297 46.6769 323.148 46.2693 322.849 46.0248C322.55 45.7803 322.115 45.6988 321.544 45.7803C318.963 46.1335 316.314 46.3101 313.597 46.3101C311.831 46.3101 310.418 46.215 309.358 46.0248C308.625 45.9161 308.054 45.7124 307.647 45.4135C307.239 45.1146 306.995 44.775 306.913 44.3946C306.859 44.15 306.832 43.6202 306.832 42.8051C306.832 41.7998 306.383 41.2971 305.487 41.2971H302.063C301.927 42.2481 301.859 43.1447 301.859 43.987C301.859 44.9108 301.941 45.7395 302.104 46.4731C302.593 48.7011 304.345 50.0189 307.361 50.4265ZM316.613 44.2723L316.287 43.9055C315.309 43.8512 314.507 43.6881 313.882 43.4164C313.257 43.1176 312.768 42.6828 312.415 42.1122C311.926 41.922 311.573 41.7318 311.355 41.5417C310.975 42.0036 310.581 42.3432 310.174 42.5606C310.391 43.0768 310.5 43.6338 310.5 44.2315V44.3131C311.804 44.4217 312.972 44.4761 314.005 44.4761C314.602 44.4761 315.499 44.4489 316.694 44.3946L316.613 44.2723ZM335.282 52.1382C334.413 52.1382 333.639 51.9752 332.959 51.6491C332.28 51.3503 331.75 50.9155 331.37 50.3449C330.555 50.0189 329.916 49.5162 329.454 48.837C329.02 48.1577 328.802 47.3426 328.802 46.3916C328.802 45.7124 328.924 45.0874 329.169 44.5168C329.414 43.9191 329.767 43.4028 330.229 42.9681C329.549 42.7236 329.21 42.1666 329.21 41.2971L329.006 20.7969C329.006 19.5742 329.617 18.9628 330.84 18.9628H334.753C335.405 18.9628 335.975 19.0987 336.464 19.3704C336.953 19.6421 337.334 20.0225 337.605 20.5116C338.285 20.7018 338.815 21.0686 339.195 21.612C339.603 22.1554 339.806 22.8075 339.806 23.5683L339.684 39.5039C339.684 41.6503 339.073 43.104 337.85 43.8647C338.502 44.2995 339.005 44.8701 339.358 45.5765C339.738 46.2558 339.929 47.003 339.929 47.8181C339.929 49.1494 339.507 50.1955 338.665 50.9563C337.823 51.7442 336.695 52.1382 335.282 52.1382ZM332.796 41.3379C334.046 41.365 334.888 41.1341 335.323 40.645C335.785 40.156 336.016 39.3001 336.016 38.0774L336.138 22.1418C336.138 21.2452 335.676 20.7969 334.753 20.7969H330.84L331.044 41.2971L332.796 41.3379ZM333.448 48.8777C334.372 48.8777 335.065 48.6604 335.527 48.2256C336.016 47.7909 336.261 47.1796 336.261 46.3916C336.261 45.6037 336.002 44.938 335.486 44.3946C334.97 43.824 334.291 43.5387 333.448 43.5387C332.606 43.5387 331.927 43.824 331.411 44.3946C330.894 44.938 330.636 45.6037 330.636 46.3916C330.636 47.1796 330.867 47.7909 331.329 48.2256C331.818 48.6604 332.525 48.8777 333.448 48.8777Z" fill="#E68E8E"/>
</svg>
