<svg width="310" height="79" viewBox="0 0 310 79" fill="none" xmlns="http://www.w3.org/2000/svg">
<path d="M22.59 47.634V72.624L18.33 73.704V47.634H22.59ZM15.75 48.624V51.504H10.83V58.824L16.26 65.964L13.95 67.854L8.7 62.514C7.72 63.534 6.74 64.544 5.76 65.544C4.78 66.524 3.8 67.524 2.82 68.544L0.6 66.714C1.02 66.154 1.5 65.514 2.04 64.794C2.6 64.054 3.15 63.334 3.69 62.634C4.23 61.914 4.72 61.264 5.16 60.684C5.62 60.084 5.95 59.644 6.15 59.364C6.33 59.104 6.44 58.874 6.48 58.674C6.54 58.474 6.57 58.244 6.57 57.984V51.504H1.65V48.624H15.75ZM48.4294 58.464V61.344H25.6894V58.464H48.4294ZM41.6494 74.574H28.5094V63.804H45.6094V70.614C45.6094 70.894 45.5794 71.184 45.5194 71.484C45.4794 71.804 45.2494 72.134 44.8294 72.474L42.6694 74.214C42.3694 74.454 42.0294 74.574 41.6494 74.574ZM41.3494 66.684H32.7694V71.694H40.2994C40.3794 71.694 40.4494 71.684 40.5094 71.664C40.5894 71.664 40.6694 71.634 40.7494 71.574L41.1694 71.184C41.2694 71.084 41.3194 71.014 41.3194 70.974C41.3394 70.934 41.3494 70.834 41.3494 70.674V66.684ZM45.6094 51.984C45.6094 52.344 45.5794 52.714 45.5194 53.094C45.4594 53.474 45.3894 53.794 45.3094 54.054L44.4094 57.054H41.0494L41.3494 52.734V50.964H28.2094V48.084H42.9994C43.1594 48.084 43.3194 48.094 43.4794 48.114C43.6594 48.134 43.8094 48.214 43.9294 48.354L45.2794 49.734C45.3794 49.834 45.4594 49.954 45.5194 50.094C45.5794 50.214 45.6094 50.424 45.6094 50.724V51.984ZM71.2247 48.624V63.744C71.2247 63.924 71.2047 64.074 71.1647 64.194C71.1447 64.294 71.0547 64.394 70.8947 64.494L66.5747 67.404C66.2547 67.624 65.8647 67.764 65.4047 67.824C64.9647 67.864 64.5247 67.884 64.0847 67.884H58.1747V48.624H62.2847V55.224H67.1147V48.624H71.2247ZM74.2547 47.634H78.5147V56.304H82.6247V59.184H78.5147V72.624L74.2547 73.704V47.634ZM64.2347 65.004C64.3947 65.004 64.5547 64.994 64.7147 64.974C64.8747 64.934 65.0447 64.864 65.2247 64.764L67.1147 63.534V58.104H62.2847V65.004H64.2347ZM104.393 64.044H97.373V68.094H106.613V70.974H83.873V68.094H93.113V64.044H86.393V57.924C86.393 57.644 86.413 57.354 86.453 57.054C86.513 56.734 86.753 56.404 87.173 56.064L88.433 55.074C88.733 54.834 89.073 54.714 89.453 54.714H99.533V51.234H86.693V48.354H101.513C101.673 48.354 101.833 48.374 101.993 48.414C102.153 48.434 102.303 48.504 102.443 48.624L103.463 49.614C103.563 49.714 103.643 49.834 103.703 49.974C103.763 50.094 103.793 50.304 103.793 50.604V56.124C103.793 56.524 103.663 56.864 103.403 57.144C103.163 57.404 102.823 57.554 102.383 57.594H90.653V61.164H104.393V64.044ZM136.698 47.634V52.794H140.508V55.674H136.698V62.394H132.438V47.634H136.698ZM119.718 68.064C119.718 67.664 119.918 67.204 120.318 66.684C120.718 66.144 121.198 65.644 121.758 65.184C122.338 64.704 122.948 64.304 123.588 63.984C124.228 63.644 124.788 63.474 125.268 63.474H132.048C132.528 63.474 133.058 63.604 133.638 63.864C134.218 64.124 134.748 64.454 135.228 64.854C135.728 65.234 136.148 65.664 136.488 66.144C136.828 66.604 136.998 67.044 136.998 67.464V70.584C136.998 71.004 136.798 71.474 136.398 71.994C135.998 72.534 135.508 73.044 134.928 73.524C134.368 74.004 133.768 74.404 133.128 74.724C132.488 75.044 131.928 75.204 131.448 75.204H124.668C124.188 75.204 123.658 75.064 123.078 74.784C122.498 74.524 121.958 74.194 121.458 73.794C120.978 73.394 120.568 72.954 120.228 72.474C119.888 72.014 119.718 71.574 119.718 71.154V68.064ZM132.828 67.944C132.828 67.504 132.628 67.134 132.228 66.834C131.848 66.514 131.458 66.354 131.058 66.354H126.528C126.328 66.354 126.078 66.434 125.778 66.594C125.478 66.754 125.188 66.954 124.908 67.194C124.628 67.434 124.388 67.694 124.188 67.974C123.988 68.234 123.888 68.474 123.888 68.694V70.674C123.888 70.894 123.938 71.104 124.038 71.304C124.158 71.504 124.308 71.674 124.488 71.814C124.668 71.974 124.858 72.094 125.058 72.174C125.278 72.274 125.488 72.324 125.688 72.324H130.188C130.388 72.324 130.638 72.244 130.938 72.084C131.238 71.924 131.528 71.724 131.808 71.484C132.088 71.244 132.328 70.984 132.528 70.704C132.728 70.424 132.828 70.174 132.828 69.954V67.944ZM125.928 48.504L125.208 53.454L130.368 60.264L128.058 62.154L123.288 57.414C122.368 58.314 121.458 59.224 120.558 60.144C119.658 61.044 118.748 61.944 117.828 62.844L115.608 61.014C116.028 60.454 116.498 59.834 117.018 59.154C117.538 58.474 118.038 57.814 118.518 57.174C119.018 56.514 119.468 55.924 119.868 55.404C120.268 54.884 120.558 54.514 120.738 54.294C120.918 54.074 121.028 53.844 121.068 53.604C121.128 53.344 121.158 53.114 121.158 52.914V47.694L125.928 48.504ZM158.227 74.904H144.907V63.774H162.187V70.944C162.187 71.224 162.157 71.514 162.097 71.814C162.057 72.134 161.827 72.464 161.407 72.804L159.247 74.544C158.947 74.784 158.607 74.904 158.227 74.904ZM146.737 58.614H152.017C152.217 58.614 152.407 58.604 152.587 58.584C152.767 58.544 152.967 58.474 153.187 58.374L157.927 56.244V47.634H162.187V53.094H165.997V55.974H162.187V62.124H157.927V59.244L154.657 61.014C154.317 61.174 153.927 61.294 153.487 61.374C153.047 61.454 152.607 61.494 152.167 61.494H142.477V48.474H155.017V51.354H146.737V58.614ZM157.927 66.654H149.167V72.024H156.877C156.957 72.024 157.027 72.014 157.087 71.994C157.167 71.994 157.247 71.964 157.327 71.904L157.747 71.514C157.847 71.414 157.897 71.344 157.897 71.304C157.917 71.264 157.927 71.164 157.927 71.004V66.654ZM175.128 48.174H179.238V52.254H184.068V48.174H188.178V58.164C188.178 58.344 188.158 58.494 188.118 58.614C188.098 58.714 188.008 58.814 187.848 58.914L184.128 61.404C183.808 61.624 183.418 61.764 182.958 61.824C182.518 61.864 182.078 61.884 181.638 61.884H175.128V48.174ZM182.448 67.044V72.024H196.008V74.904H178.188V64.164H195.468V67.044H182.448ZM195.468 47.634V53.394H199.278V56.274H195.468V62.514H191.208V47.634H195.468ZM184.068 55.134H179.238V59.004H181.788C181.948 59.004 182.118 58.994 182.298 58.974C182.478 58.934 182.648 58.864 182.808 58.764L184.068 57.954V55.134ZM200.496 53.364C200.496 52.964 200.696 52.494 201.096 51.954C201.516 51.394 202.026 50.874 202.626 50.394C203.226 49.894 203.846 49.474 204.486 49.134C205.146 48.794 205.716 48.624 206.196 48.624H208.596C209.076 48.624 209.616 48.774 210.216 49.074C210.836 49.374 211.406 49.744 211.926 50.184C212.466 50.604 212.916 51.064 213.276 51.564C213.656 52.064 213.846 52.514 213.846 52.914V63.144C213.846 63.544 213.636 64.024 213.216 64.584C212.816 65.124 212.316 65.644 211.716 66.144C211.116 66.624 210.486 67.034 209.826 67.374C209.186 67.714 208.626 67.884 208.146 67.884H205.746C205.266 67.884 204.716 67.744 204.096 67.464C203.496 67.164 202.926 66.794 202.386 66.354C201.866 65.914 201.416 65.444 201.036 64.944C200.676 64.444 200.496 63.994 200.496 63.594V53.364ZM209.826 62.814V53.244C209.826 53.024 209.776 52.814 209.676 52.614C209.576 52.394 209.446 52.204 209.286 52.044C209.126 51.884 208.946 51.754 208.746 51.654C208.546 51.554 208.346 51.504 208.146 51.504H206.946C206.746 51.504 206.506 51.584 206.226 51.744C205.946 51.884 205.676 52.064 205.416 52.284C205.176 52.504 204.966 52.744 204.786 53.004C204.606 53.244 204.516 53.474 204.516 53.694V63.264C204.516 63.484 204.566 63.704 204.666 63.924C204.766 64.124 204.896 64.304 205.056 64.464C205.216 64.624 205.396 64.754 205.596 64.854C205.796 64.954 205.996 65.004 206.196 65.004H207.396C207.596 65.004 207.836 64.934 208.116 64.794C208.396 64.634 208.656 64.444 208.896 64.224C209.156 64.004 209.376 63.774 209.556 63.534C209.736 63.274 209.826 63.034 209.826 62.814ZM216.696 47.634H220.956V56.304H225.066V59.184H220.956V72.624L216.696 73.704V47.634ZM241.974 48.354H246.234V60.984C246.234 61.284 246.204 61.504 246.144 61.644C246.084 61.784 246.004 61.894 245.904 61.974L244.434 63.114C244.274 63.214 244.114 63.284 243.954 63.324C243.814 63.364 243.664 63.384 243.504 63.384H239.814V67.614H249.054V70.494H226.314V67.614H235.554V63.384H229.134V48.354H233.394V53.064H241.974V48.354ZM241.974 60.504V55.944H233.394V60.504H241.974ZM259.977 48.804L259.257 57.654L263.817 66.504L261.057 67.854L257.337 62.064L253.197 68.544L250.497 67.224C250.897 66.424 251.327 65.584 251.787 64.704C252.247 63.804 252.687 62.954 253.107 62.154C253.527 61.334 253.897 60.604 254.217 59.964C254.557 59.304 254.797 58.804 254.937 58.464C255.037 58.204 255.107 57.834 255.147 57.354C255.187 56.854 255.207 56.474 255.207 56.214V47.994L259.977 48.804ZM264.627 47.634H268.407V72.414L264.627 73.404V58.074H261.237V55.194H264.627V47.634ZM270.417 47.634H274.197V72.714L270.417 73.704V47.634ZM299.445 67.614V70.494H276.705V67.614H281.775V61.554C281.435 61.294 281.105 61.014 280.785 60.714C280.485 60.414 280.215 60.114 279.975 59.814C279.735 59.494 279.545 59.194 279.405 58.914C279.265 58.614 279.195 58.344 279.195 58.104V53.934C279.195 53.534 279.415 53.034 279.855 52.434C280.295 51.834 280.825 51.254 281.445 50.694C282.085 50.134 282.745 49.654 283.425 49.254C284.105 48.854 284.685 48.654 285.165 48.654H291.585C292.065 48.654 292.615 48.824 293.235 49.164C293.855 49.484 294.435 49.884 294.975 50.364C295.535 50.844 296.005 51.354 296.385 51.894C296.765 52.434 296.955 52.914 296.955 53.334V57.504C296.955 57.744 296.885 58.014 296.745 58.314C296.605 58.594 296.415 58.894 296.175 59.214C295.935 59.534 295.655 59.854 295.335 60.174C295.015 60.494 294.675 60.804 294.315 61.104V67.614H299.445ZM292.845 53.664C292.845 53.444 292.745 53.214 292.545 52.974C292.365 52.714 292.145 52.484 291.885 52.284C291.625 52.064 291.345 51.884 291.045 51.744C290.765 51.604 290.525 51.534 290.325 51.534H286.425C286.225 51.534 285.945 51.634 285.585 51.834C285.245 52.034 284.905 52.284 284.565 52.584C284.225 52.864 283.925 53.164 283.665 53.484C283.425 53.784 283.305 54.044 283.305 54.264V57.774C283.305 57.994 283.395 58.234 283.575 58.494C283.775 58.734 284.005 58.964 284.265 59.184C284.525 59.384 284.795 59.554 285.075 59.694C285.375 59.834 285.625 59.904 285.825 59.904H289.725C289.925 59.904 290.195 59.804 290.535 59.604C290.895 59.404 291.245 59.164 291.585 58.884C291.925 58.604 292.215 58.304 292.455 57.984C292.715 57.664 292.845 57.394 292.845 57.174V53.664ZM290.055 67.614V62.784H286.035V67.614H290.055ZM302.927 65.304V48.084H308.147L307.157 65.304H302.927ZM302.627 71.994V67.734H307.607L307.217 71.994H302.627Z" fill="white"/>
<path d="M129.344 29.6004C128.017 29.4195 127.022 28.9522 126.359 28.1984C125.379 27.6708 124.776 26.8794 124.55 25.8242C124.445 25.2966 124.392 24.7539 124.392 24.1961C124.392 23.7288 124.43 23.2087 124.505 22.6359C124.55 22.2439 124.716 21.9801 125.002 21.8444V21.4374L124.211 21.4148C123.427 21.4148 122.869 21.1208 122.538 20.5329C122.131 20.4123 121.814 20.1938 121.588 19.8772C121.377 19.5606 121.271 19.1611 121.271 18.6787V17.322C121.271 16.6286 121.618 16.2969 122.312 16.3271L123.419 16.3497C122.636 15.6412 122.244 14.6839 122.244 13.478C122.244 12.5584 122.47 11.7594 122.922 11.0811C123.389 10.3876 124.045 9.85247 124.889 9.4756C125.733 9.09874 126.713 8.9103 127.829 8.9103C128.779 8.9103 129.63 9.05351 130.384 9.33993C131.138 9.61128 131.763 10.0032 132.261 10.5158C132.562 10.6816 132.856 10.9002 133.143 11.1715V9.54344C133.143 9.2118 133.226 8.96306 133.391 8.79724C133.572 8.61634 133.829 8.5259 134.16 8.5259H136.286C136.648 8.5259 136.964 8.60127 137.236 8.75202C137.507 8.90276 137.718 9.11381 137.869 9.38516C138.246 9.49068 138.539 9.69419 138.751 9.99568C138.977 10.2972 139.09 10.659 139.09 11.0811V21.8218C139.09 21.9123 139.09 22.1761 139.09 22.6132C139.09 23.0353 139.052 23.4273 138.977 23.7891C138.871 24.3318 138.622 24.7614 138.23 25.078C138.577 25.1986 138.849 25.4172 139.044 25.7337C139.24 26.0352 139.338 26.397 139.338 26.8191V28.2663C139.338 28.8843 139.044 29.2612 138.457 29.3969C137.07 29.6833 135.351 29.8265 133.301 29.8265C131.824 29.8265 130.505 29.7511 129.344 29.6004ZM134.16 23.8795C134.371 23.9097 134.658 23.9248 135.02 23.9248C136.165 23.9248 136.813 23.5403 136.964 22.7715C137.024 22.5303 137.055 22.1158 137.055 21.5279V20.4425V10.2896C137.055 9.79218 136.798 9.54344 136.286 9.54344H134.16V19.9902H131.153C131.017 20.3219 130.949 20.6761 130.949 21.053C130.949 21.3545 130.995 21.5957 131.085 21.7766C131.191 21.9726 131.364 22.1233 131.605 22.2288C131.861 22.3193 132.268 22.3645 132.826 22.3645C133.203 22.3645 133.648 22.3419 134.16 22.2967V23.8795ZM127.829 16.6889C129.321 16.6889 130.452 16.4175 131.221 15.8748C131.989 15.3171 132.374 14.5181 132.374 13.478C132.374 12.4076 131.974 11.5484 131.175 10.9002C130.376 10.252 129.261 9.92785 127.829 9.92785C126.382 9.92785 125.259 10.252 124.46 10.9002C123.661 11.5484 123.261 12.4076 123.261 13.478C123.261 14.5181 123.646 15.3171 124.414 15.8748C125.198 16.4175 126.336 16.6889 127.829 16.6889ZM127.829 14.4503C127.211 14.4503 126.736 14.3523 126.404 14.1563C126.088 13.9603 125.929 13.6588 125.929 13.2518C125.929 12.8599 126.095 12.5509 126.427 12.3247C126.759 12.0986 127.226 11.9856 127.829 11.9856C128.417 11.9856 128.877 12.0986 129.208 12.3247C129.555 12.5509 129.728 12.8599 129.728 13.2518C129.728 13.6438 129.562 13.9453 129.231 14.1563C128.899 14.3523 128.432 14.4503 127.829 14.4503ZM126.02 22.0253C126.472 22.0555 126.781 22.0706 126.947 22.0706C127.565 22.0706 128.04 21.9876 128.372 21.8218C128.718 21.656 128.929 21.3922 129.005 21.0304C129.035 20.8194 129.05 20.4425 129.05 19.8998V19.5606C130.784 19.4551 132.17 19.3345 133.211 19.1988V17.7969C133.211 17.5406 133.128 17.3522 132.962 17.2316C132.796 17.0959 132.57 17.0431 132.283 17.0733C130.052 17.2843 127.565 17.3898 124.821 17.3898C124.249 17.3898 123.404 17.3748 122.289 17.3446V18.6787C122.289 18.9953 122.357 19.229 122.492 19.3797C122.643 19.5305 122.884 19.6058 123.216 19.6058C124.332 19.636 125.266 19.6511 126.02 19.6511V22.0253ZM128.462 27.7914C129.562 27.9422 130.836 28.0175 132.283 28.0175C134.288 28.0175 135.962 27.8743 137.303 27.5879V26.0277C137.303 25.7111 137.22 25.485 137.055 25.3493C136.889 25.2136 136.648 25.1684 136.331 25.2136C134.899 25.4096 133.429 25.5076 131.922 25.5076C130.942 25.5076 130.158 25.4548 129.57 25.3493C129.163 25.289 128.846 25.176 128.62 25.0101C128.394 24.8443 128.258 24.6559 128.213 24.4448C128.183 24.3092 128.168 24.0152 128.168 23.563C128.168 23.0052 127.919 22.7263 127.422 22.7263H125.522C125.447 23.2539 125.409 23.7514 125.409 24.2187C125.409 24.7313 125.455 25.191 125.545 25.598C125.816 26.8342 126.789 27.5653 128.462 27.7914ZM133.595 24.377L133.414 24.1735C132.871 24.1433 132.427 24.0529 132.08 23.9021C131.733 23.7363 131.462 23.4951 131.266 23.1786C130.995 23.073 130.799 22.9675 130.678 22.862C130.467 23.1183 130.248 23.3067 130.022 23.4273C130.143 23.7137 130.203 24.0227 130.203 24.3544V24.3996C130.927 24.4599 131.575 24.4901 132.148 24.4901C132.479 24.4901 132.977 24.475 133.64 24.4448L133.595 24.377ZM150.375 30.3466C149.018 30.3466 147.835 30.1883 146.825 29.8717C145.83 29.5552 145.046 29.0954 144.473 28.4924C143.086 27.6633 142.393 26.4799 142.393 24.9423C142.393 23.6459 142.875 22.5605 143.84 21.6862C143.659 21.7314 143.486 21.754 143.32 21.754C142.928 21.754 142.551 21.6635 142.189 21.4826C141.828 21.3017 141.526 21.053 141.285 20.7364C140.998 20.6008 140.735 20.4199 140.493 20.1938C140.252 19.9526 140.064 19.6812 139.928 19.3797C139.823 19.1837 139.77 18.9953 139.77 18.8144C139.77 18.6787 139.815 18.4903 139.905 18.2491C139.996 17.9627 140.222 17.6612 140.584 17.3446C141.549 16.4854 142.287 15.596 142.8 14.6764C142.182 14.601 141.745 14.3221 141.488 13.8397C141.111 13.7342 140.81 13.5307 140.584 13.2292C140.373 12.9277 140.267 12.5659 140.267 12.1438V10.4705C140.267 10.1389 140.35 9.89016 140.516 9.72434C140.697 9.54344 140.953 9.45299 141.285 9.45299H149.357C149.719 9.45299 150.036 9.52837 150.307 9.67911C150.578 9.82986 150.782 10.0409 150.918 10.3123L150.985 10.3349V9.54344C150.985 9.2118 151.068 8.96306 151.234 8.79724C151.415 8.61634 151.671 8.5259 152.003 8.5259H154.083C154.445 8.5259 154.762 8.60127 155.033 8.75202C155.304 8.90276 155.515 9.11381 155.666 9.38516C156.043 9.49068 156.337 9.69419 156.548 9.99568C156.774 10.2972 156.887 10.659 156.887 11.0811V12.6639C157.49 12.7996 157.942 13.1011 158.244 13.5684C158.666 13.7041 159.005 13.9679 159.261 14.3598C159.533 14.7668 159.668 15.2794 159.668 15.8974C159.668 16.5758 159.503 17.209 159.171 17.7969C159.05 18.023 158.892 18.1813 158.696 18.2717C158.5 18.3622 158.259 18.4074 157.973 18.4074H157.905C157.226 18.4074 156.887 18.2566 156.887 17.9552V18.5431C156.887 18.6335 156.887 18.8973 156.887 19.3345C156.887 19.7566 156.85 20.1485 156.774 20.5103C156.593 21.2942 156.171 21.8369 155.508 22.1384C156.729 23.058 157.339 24.2564 157.339 25.7337C157.339 27.196 156.721 28.3266 155.485 29.1255C154.264 29.9396 152.561 30.3466 150.375 30.3466ZM152.003 20.6008C152.395 20.6309 152.666 20.646 152.817 20.646C153.42 20.646 153.872 20.5555 154.174 20.3746C154.49 20.1787 154.686 19.8847 154.762 19.4928C154.822 19.2516 154.852 18.837 154.852 18.2491V17.1637V16.5984H157.226C157.498 16.1613 157.633 15.6638 157.633 15.106C157.633 14.7895 157.596 14.5407 157.52 14.3598C157.415 14.1036 157.257 13.9151 157.045 13.7945C156.834 13.6739 156.533 13.6136 156.141 13.6136C155.809 13.6136 155.38 13.6588 154.852 13.7493V10.2896C154.852 9.79218 154.596 9.54344 154.083 9.54344H152.003V20.6008ZM149.063 19.8998C149.365 19.8395 149.629 19.7264 149.855 19.5606C150.096 19.3797 150.277 19.1687 150.398 18.9275C150.473 18.7466 150.511 18.5958 150.511 18.4752C150.511 18.0682 150.262 17.6687 149.764 17.2768L146.734 14.6764C146.93 14.0433 147.028 13.4478 147.028 12.89H150.104V11.2167C150.104 10.7193 149.855 10.4705 149.357 10.4705H141.285V12.1438C141.285 12.6413 141.541 12.89 142.054 12.89H144.36C144.345 13.8096 143.998 14.7668 143.32 15.7618C142.657 16.7567 141.79 17.6913 140.72 18.5657C140.78 18.9124 140.961 19.229 141.262 19.5154C141.564 19.7867 141.903 19.9224 142.28 19.9224C142.732 19.9224 143.207 19.7189 143.704 19.3119C144.368 18.739 144.986 18.023 145.559 17.1637L149.063 19.8998ZM148.905 15.106L150.985 16.8924V14.699H148.973L148.905 15.106ZM145.762 20.5329C146.335 20.3219 146.953 20.1636 147.616 20.0581L146.78 19.4023C146.403 19.8546 146.064 20.2314 145.762 20.5329ZM149.357 28.5376C151.332 28.5376 152.817 28.2135 153.812 27.5653C154.807 26.9171 155.304 26.0428 155.304 24.9423C155.304 24.2036 155.086 23.5328 154.649 22.9298C154.211 22.3268 153.541 21.852 152.636 21.5053C151.747 21.1435 150.654 20.9626 149.357 20.9626C148.061 20.9626 146.96 21.1435 146.056 21.5053C145.167 21.852 144.503 22.3268 144.066 22.9298C143.629 23.5328 143.41 24.2036 143.41 24.9423C143.41 26.0428 143.908 26.9171 144.903 27.5653C145.898 28.2135 147.383 28.5376 149.357 28.5376ZM149.357 26.0955C148.287 26.0955 147.511 25.9825 147.028 25.7563C146.561 25.5302 146.327 25.1986 146.327 24.7614C146.327 24.3242 146.584 23.97 147.096 23.6986C147.609 23.4122 148.362 23.269 149.357 23.269C150.352 23.269 151.106 23.4122 151.619 23.6986C152.131 23.97 152.387 24.3242 152.387 24.7614C152.387 25.1986 152.146 25.5302 151.664 25.7563C151.196 25.9825 150.428 26.0955 149.357 26.0955ZM169.038 30.324C167.003 30.1883 165.518 29.6155 164.583 28.6055C163.543 28.0175 162.865 27.1507 162.548 26.0051C162.382 25.4172 162.299 24.7086 162.299 23.8795C162.299 22.7037 162.443 21.5656 162.729 20.4651C162.82 20.1485 162.97 19.9224 163.181 19.7867C162.804 19.5455 162.488 19.2893 162.232 19.0179C161.191 18.43 160.536 17.5331 160.264 16.3271C160.129 15.709 160.061 14.8422 160.061 13.7267C160.061 12.5961 160.136 11.4881 160.287 10.4027C160.377 9.79971 160.747 9.49822 161.395 9.49822H163.272C163.634 9.49822 163.943 9.57359 164.199 9.72434C164.455 9.86001 164.644 10.0635 164.764 10.3349C165.171 10.4404 165.48 10.659 165.691 10.9906C165.902 11.3072 165.993 11.6991 165.963 12.1664C165.917 12.7544 165.895 13.4478 165.895 14.2468C165.895 14.7292 165.902 15.0457 165.917 15.1965C166.264 15.2417 166.656 15.2643 167.093 15.2643C167.757 15.2643 168.548 15.2115 169.467 15.106C169.679 15.0759 169.837 15.0608 169.942 15.0608C170.319 15.0608 170.643 15.1512 170.915 15.3321V9.54344C170.915 9.2118 170.998 8.96306 171.163 8.79724C171.344 8.61634 171.601 8.5259 171.932 8.5259H174.058C174.42 8.5259 174.736 8.60127 175.007 8.75202C175.279 8.90276 175.49 9.11381 175.641 9.38516C176.017 9.49068 176.311 9.69419 176.522 9.99568C176.749 10.2972 176.862 10.659 176.862 11.0811V17.6838C176.862 17.7743 176.862 18.0381 176.862 18.4752C176.862 18.8973 176.824 19.2893 176.749 19.6511C176.643 20.1184 176.44 20.5103 176.138 20.8269C176.5 21.1435 176.681 21.5731 176.681 22.1158V27.294C176.681 27.7914 176.568 28.1532 176.342 28.3793C175.678 28.9974 174.774 29.4798 173.628 29.8265C172.482 30.1732 171.246 30.3466 169.92 30.3466C169.528 30.3466 169.234 30.3391 169.038 30.324ZM171.932 19.7415C172.324 19.7717 172.603 19.7867 172.769 19.7867C173.372 19.7867 173.832 19.6963 174.148 19.5154C174.465 19.3194 174.661 19.0255 174.736 18.6335C174.796 18.3923 174.827 17.9778 174.827 17.3898V16.3045V10.2896C174.827 9.79218 174.57 9.54344 174.058 9.54344H171.932V19.7415ZM164.742 18.724C165.314 18.7993 165.917 18.837 166.551 18.837C167.274 18.837 167.998 18.7993 168.721 18.724C169.445 18.6486 170.086 18.5355 170.643 18.3848V16.7567C170.643 16.5457 170.575 16.3798 170.44 16.2592C170.319 16.1386 170.146 16.0783 169.92 16.0783C169.784 16.0783 169.686 16.0859 169.626 16.101C168.691 16.2216 167.839 16.2819 167.071 16.2819C166.513 16.2819 165.985 16.2442 165.488 16.1688C165.005 16.0783 164.636 15.9125 164.38 15.6713C164.123 15.4301 163.965 15.0909 163.905 14.6538C163.875 14.4427 163.86 14.0131 163.86 13.3649C163.86 12.4755 163.882 11.782 163.928 11.2846C163.973 10.772 163.754 10.5158 163.272 10.5158H161.305C161.154 11.4956 161.078 12.581 161.078 13.7719C161.078 14.7367 161.139 15.5206 161.259 16.1236C161.425 16.8924 161.787 17.4878 162.345 17.9099C162.918 18.3169 163.716 18.5883 164.742 18.724ZM168.088 28.515C168.269 28.5301 168.533 28.5376 168.88 28.5376C170.086 28.5376 171.201 28.3869 172.226 28.0854C173.266 27.7839 174.073 27.3618 174.646 26.8191V21.3244C174.646 20.857 174.404 20.6234 173.922 20.6234H163.747C163.46 21.6937 163.317 22.8017 163.317 23.9474C163.317 24.686 163.385 25.2815 163.521 25.7337C163.988 27.4221 165.51 28.3492 168.088 28.515ZM167.545 25.8242C167.018 25.6885 166.633 25.4624 166.392 25.1458C166.151 24.8292 166.03 24.377 166.03 23.7891C166.03 23.6383 166.046 23.3821 166.076 23.0203H171.864V25.4398C171.533 25.6207 171.118 25.7639 170.621 25.8694C170.123 25.9598 169.611 26.0051 169.083 26.0051C168.571 26.0051 168.058 25.9448 167.545 25.8242ZM168.066 24.8971C168.367 24.9574 168.721 24.9875 169.128 24.9875C169.671 24.9875 170.146 24.9348 170.553 24.8292H168.066V24.8971ZM191.56 30.0752C191.018 30.03 190.701 29.7662 190.611 29.2838H190.543C189.895 29.2235 189.571 28.8617 189.571 28.1984V24.4674H185.546C185.184 24.4674 184.867 24.3921 184.596 24.2413C184.325 24.0906 184.113 23.8795 183.963 23.6082C183.586 23.5027 183.284 23.2991 183.058 22.9977C182.847 22.6962 182.742 22.3344 182.742 21.9123V20.2164C182.742 19.8847 182.825 19.636 182.99 19.4702C183.171 19.2893 183.428 19.1988 183.759 19.1988H187.875C187.679 19.0179 187.535 18.8822 187.445 18.7918C186.812 18.4451 186.322 17.9928 185.975 17.4351C185.644 16.8773 185.433 16.1914 185.342 15.3774C185.282 14.8347 185.252 14.0885 185.252 13.1388C185.252 12.0986 185.297 11.0735 185.387 10.0635C185.448 9.41531 185.802 9.0912 186.45 9.0912H188.395C189.118 9.0912 189.623 9.37008 189.91 9.92785C190.483 10.0635 190.852 10.4178 191.018 10.9906H194.206V10.1087C194.206 9.7771 194.289 9.52837 194.455 9.36254C194.636 9.18165 194.892 9.0912 195.224 9.0912H197.236C197.598 9.0912 197.914 9.16657 198.186 9.31732C198.457 9.46807 198.668 9.67911 198.819 9.95046C199.196 10.056 199.49 10.2595 199.701 10.561C199.927 10.8625 200.04 11.2243 200.04 11.6464V18.4978C200.04 18.7993 199.987 19.033 199.882 19.1988C200.545 19.244 201.02 19.5305 201.306 20.0581C201.683 20.1636 201.977 20.3671 202.188 20.6686C202.414 20.9701 202.527 21.3319 202.527 21.754V23.4499C202.527 23.7815 202.437 24.0378 202.256 24.2187C202.09 24.3845 201.841 24.4674 201.51 24.4674H195.676V26.4121C195.676 27.2412 195.646 27.8216 195.585 28.1532V28.1984C195.314 29.4798 194.259 30.1205 192.42 30.1205C192.239 30.1205 191.952 30.1054 191.56 30.0752ZM190.633 18.6561C191.161 18.7164 191.764 18.7466 192.442 18.7466C193.437 18.7466 194.417 18.6712 195.382 18.5205C196.347 18.3697 197.221 18.1511 198.005 17.8647V10.8549C198.005 10.3575 197.749 10.1087 197.236 10.1087H195.224V12.0082H189.028L189.073 10.8097C189.073 10.5685 189.02 10.3952 188.915 10.2896C188.809 10.169 188.636 10.1087 188.395 10.1087H186.405C186.314 11.0735 186.269 12.0986 186.269 13.184C186.269 14.0433 186.299 14.7367 186.36 15.2643C186.465 16.3195 186.85 17.111 187.513 17.6386C188.191 18.1511 189.231 18.4903 190.633 18.6561ZM190.905 16.2366C190.256 16.1311 189.789 15.9502 189.503 15.6939C189.231 15.4377 189.088 15.0608 189.073 14.5633L189.05 14.292H195.224V16.0783C194.425 16.2592 193.543 16.3497 192.578 16.3497C192.065 16.3497 191.508 16.312 190.905 16.2366ZM190.588 28.2663C191.01 28.2964 191.297 28.3115 191.447 28.3115C192.714 28.3115 193.422 27.9346 193.573 27.1809C193.618 26.9548 193.641 26.5553 193.641 25.9825V25.2815V22.6585H200.492V20.9626C200.492 20.4651 200.236 20.2164 199.723 20.2164H183.759V21.9123C183.759 22.4097 184.016 22.6585 184.528 22.6585H190.588V28.2663ZM210.805 30.324C208.785 30.1883 207.293 29.6155 206.328 28.6055C205.303 28.0175 204.632 27.1658 204.315 26.0503C204.15 25.4624 204.067 24.7614 204.067 23.9474C204.067 22.8469 204.21 21.7238 204.496 20.5782C204.587 20.2767 204.722 20.0581 204.903 19.9224C204.753 19.8169 204.557 19.6435 204.315 19.4023C203.245 18.8295 202.597 17.8572 202.371 16.4854C202.28 15.9879 202.235 15.3698 202.235 14.6312C202.235 13.2141 202.371 11.8047 202.642 10.4027C202.748 9.79971 203.117 9.49822 203.75 9.49822H210.85C211.212 9.49822 211.529 9.57359 211.8 9.72434C212.071 9.87509 212.275 10.0861 212.411 10.3575C212.516 10.3726 212.622 10.4102 212.727 10.4705V9.54344C212.727 9.2118 212.81 8.96306 212.976 8.79724C213.157 8.61634 213.413 8.5259 213.745 8.5259H215.825C216.187 8.5259 216.503 8.60127 216.775 8.75202C217.046 8.90276 217.257 9.11381 217.408 9.38516C217.785 9.49068 218.079 9.69419 218.29 9.99568C218.516 10.2972 218.629 10.659 218.629 11.0811V12.777C219.232 12.9126 219.684 13.2141 219.986 13.6815C220.408 13.8171 220.747 14.0809 221.003 14.4729C221.275 14.8799 221.41 15.3924 221.41 16.0105C221.41 16.6889 221.244 17.322 220.913 17.9099C220.792 18.136 220.634 18.2943 220.438 18.3848C220.242 18.4752 220.001 18.5205 219.714 18.5205H219.556C219.013 18.5205 218.704 18.2566 218.629 17.729V18.1134C218.629 18.2039 218.629 18.4677 218.629 18.9049C218.629 19.327 218.591 19.7189 218.516 20.0807C218.425 20.4576 218.275 20.7892 218.064 21.0756C218.32 21.3771 218.448 21.7615 218.448 22.2288V27.3166C218.448 27.8442 218.275 28.2587 217.928 28.5602C217.234 29.118 216.322 29.5552 215.192 29.8717C214.076 30.1883 212.885 30.3466 211.619 30.3466C211.257 30.3466 210.986 30.3391 210.805 30.324ZM213.745 20.1711C214.137 20.2013 214.408 20.2164 214.559 20.2164C215.162 20.2164 215.614 20.1259 215.915 19.945C216.232 19.749 216.428 19.4551 216.503 19.0631C216.564 18.8219 216.594 18.4074 216.594 17.8195V16.7341V16.7115H218.968C219.239 16.2743 219.375 15.7768 219.375 15.2191C219.375 14.9025 219.337 14.6538 219.262 14.4729C219.157 14.2166 218.998 14.0282 218.787 13.9076C218.576 13.787 218.275 13.7267 217.883 13.7267C217.551 13.7267 217.121 13.7719 216.594 13.8624V10.2896C216.594 9.79218 216.338 9.54344 215.825 9.54344H213.745V20.1711ZM207.097 19.1084C207.504 19.1536 207.948 19.1762 208.431 19.1762C209.788 19.1762 211.092 19.0405 212.343 18.7692V17.322C212.343 17.0657 212.252 16.8773 212.071 16.7567C211.89 16.6361 211.642 16.5909 211.325 16.621C210.587 16.7266 209.757 16.7793 208.838 16.7793C208.325 16.7793 207.858 16.7567 207.436 16.7115C206.969 16.6512 206.614 16.5155 206.373 16.3045C206.147 16.0934 206.004 15.7768 205.943 15.3548C205.928 15.204 205.921 14.9251 205.921 14.5181C205.921 13.7945 205.943 13.2443 205.989 12.8674H211.574V11.1489C211.574 10.7268 211.333 10.5158 210.85 10.5158H203.66C203.388 11.8876 203.253 13.2669 203.253 14.6538C203.253 15.2718 203.29 15.8296 203.366 16.3271C203.516 17.2014 203.878 17.8572 204.451 18.2943C205.024 18.7164 205.906 18.9878 207.097 19.1084ZM207.956 14.6764C207.926 15.0834 207.926 15.4377 207.956 15.7392C208.137 15.7542 208.438 15.7618 208.86 15.7618C209.69 15.7618 210.428 15.7166 211.076 15.6261C211.167 15.611 211.31 15.6035 211.506 15.6035C212.019 15.6035 212.426 15.7241 212.727 15.9653V14.6764H207.956ZM209.855 28.515C210.036 28.5301 210.3 28.5376 210.647 28.5376C211.853 28.5376 212.968 28.3869 213.993 28.0854C215.018 27.7839 215.825 27.3693 216.413 26.8417V21.4374C216.413 20.9701 216.172 20.7364 215.689 20.7364H205.514C205.227 21.8067 205.084 22.8997 205.084 24.0152C205.084 24.6634 205.152 25.2513 205.288 25.7789C205.529 26.6081 206.034 27.2487 206.803 27.701C207.572 28.1683 208.589 28.4396 209.855 28.515ZM209.313 25.8468C208.77 25.7111 208.378 25.485 208.137 25.1684C207.911 24.8518 207.798 24.3996 207.798 23.8117C207.798 23.676 207.813 23.4424 207.843 23.1107H213.632V25.4624C213.315 25.6433 212.908 25.7789 212.411 25.8694C211.928 25.9598 211.416 26.0051 210.873 26.0051C210.27 26.0051 209.75 25.9523 209.313 25.8468ZM209.878 24.9197C210.195 24.9649 210.519 24.9875 210.85 24.9875C211.242 24.9875 211.604 24.9649 211.936 24.9197H209.878ZM234.872 30.0979C234.33 30.0526 234.013 29.7888 233.923 29.3064H233.855C233.207 29.2461 232.882 28.8843 232.882 28.2211V23.8795L232.769 23.97C232.182 24.4674 231.465 24.8518 230.621 25.1232C229.792 25.3945 228.91 25.5302 227.976 25.5302C227.629 25.5302 227.365 25.5227 227.184 25.5076C225.616 25.3719 224.418 24.8669 223.589 23.9926C222.383 23.3142 221.629 22.1685 221.328 20.5555C221.192 19.7566 221.124 18.6561 221.124 17.2542C221.124 15.2945 221.237 13.38 221.463 11.5107C221.539 10.8776 221.901 10.561 222.549 10.561H224.448C224.795 10.561 225.096 10.6364 225.353 10.7871C225.624 10.9379 225.828 11.1489 225.963 11.4202C226.37 11.5258 226.679 11.7444 226.89 12.076C227.116 12.4076 227.207 12.7996 227.162 13.2518L227.116 13.7267H227.546V11.5785C227.546 11.2469 227.629 10.9982 227.795 10.8323C227.976 10.6514 228.232 10.561 228.564 10.561H230.486C230.847 10.561 231.164 10.6364 231.435 10.7871C231.707 10.9379 231.918 11.1489 232.068 11.4202C232.385 11.5107 232.656 11.6765 232.882 11.9177V9.54344C232.882 9.2118 232.965 8.96306 233.131 8.79724C233.312 8.61634 233.568 8.5259 233.9 8.5259H236.026C236.387 8.5259 236.704 8.60127 236.975 8.75202C237.247 8.90276 237.458 9.11381 237.608 9.38516C237.985 9.49068 238.279 9.69419 238.49 9.99568C238.716 10.2972 238.829 10.659 238.829 11.0811V26.2312C238.829 26.3216 238.829 26.5779 238.829 27C238.829 27.4372 238.792 27.8366 238.716 28.1984C238.43 29.4949 237.42 30.1431 235.686 30.1431C235.536 30.1431 235.264 30.128 234.872 30.0979ZM233.9 28.2889C234.292 28.319 234.571 28.3341 234.737 28.3341C235.34 28.3341 235.799 28.2361 236.116 28.0402C236.433 27.8593 236.629 27.5728 236.704 27.1809C236.764 26.9397 236.794 26.5251 236.794 25.9372V24.8518V10.2896C236.794 9.79218 236.538 9.54344 236.026 9.54344H233.9V28.2889ZM226.257 23.6986C226.423 23.7137 226.664 23.7212 226.981 23.7212C227.81 23.7212 228.601 23.6006 229.355 23.3594C230.109 23.1183 230.742 22.7565 231.254 22.2741V12.3247C231.254 11.8273 230.998 11.5785 230.486 11.5785H228.564V14.7442H224.968C224.983 14.2166 225.036 13.4252 225.127 12.37C225.157 12.1137 225.111 11.9177 224.991 11.782C224.87 11.6464 224.689 11.5785 224.448 11.5785H222.481C222.255 13.5232 222.142 15.4226 222.142 17.2768C222.142 18.5883 222.202 19.6209 222.323 20.3746C222.519 21.4902 222.948 22.3042 223.612 22.8168C224.29 23.3142 225.172 23.6082 226.257 23.6986ZM226.302 21.1887C225.579 21.0229 225.149 20.4274 225.013 19.4023C224.953 18.935 224.923 18.2114 224.923 17.2316H228.564V20.8495C228.172 21.1208 227.667 21.2565 227.049 21.2565C226.807 21.2565 226.559 21.2339 226.302 21.1887ZM249.939 30.437C248.522 30.437 247.309 30.2788 246.299 29.9622C245.289 29.6607 244.497 29.2085 243.924 28.6055C242.583 27.8216 241.912 26.6834 241.912 25.191C241.912 24.2564 242.213 23.4273 242.816 22.7037H242.319C241.957 22.7037 241.64 22.6283 241.369 22.4776C241.098 22.3268 240.887 22.1158 240.736 21.8444C240.359 21.7389 240.058 21.5354 239.831 21.2339C239.62 20.9324 239.515 20.5706 239.515 20.1485V18.5205C239.515 18.1888 239.598 17.9401 239.764 17.7743C239.945 17.5934 240.201 17.5029 240.532 17.5029H243.314V16.8019C242.907 16.41 242.59 15.9653 242.364 15.4678C242.153 14.9704 242.047 14.4427 242.047 13.885C242.047 12.9353 242.341 12.0911 242.929 11.3524C243.517 10.6137 244.339 10.0409 245.394 9.63389C246.449 9.2118 247.655 9.00075 249.012 9.00075C250.173 9.00075 251.22 9.16657 252.155 9.49822C253.105 9.82986 253.881 10.2972 254.484 10.9002C255.208 11.3524 255.765 11.9026 256.157 12.5509C256.564 13.184 256.768 13.8925 256.768 14.6764C256.768 15.7768 256.376 16.719 255.592 17.5029H256.497C256.858 17.5029 257.175 17.5783 257.446 17.729C257.718 17.8798 257.929 18.0908 258.079 18.3622C258.456 18.4677 258.75 18.6712 258.961 18.9727C259.187 19.2742 259.301 19.636 259.301 20.0581V21.6862C259.301 22.0178 259.21 22.2741 259.029 22.455C258.863 22.6208 258.615 22.7037 258.283 22.7037H255.185C255.743 23.1107 256.165 23.5931 256.451 24.1509C256.753 24.7086 256.904 25.3192 256.904 25.9825C256.904 27.4146 256.293 28.515 255.072 29.2838C253.866 30.0526 252.155 30.437 249.939 30.437ZM257.265 19.2667C257.265 18.7692 257.009 18.5205 256.497 18.5205H253.354V16.3949C254.273 15.7618 254.733 14.9251 254.733 13.885C254.733 13.1915 254.507 12.5509 254.054 11.9629C253.602 11.375 252.939 10.9077 252.065 10.561C251.205 10.1992 250.173 10.0183 248.967 10.0183C247.731 10.0183 246.668 10.1992 245.778 10.561C244.889 10.9077 244.211 11.375 243.743 11.9629C243.291 12.5509 243.065 13.1915 243.065 13.885C243.065 14.895 243.487 15.709 244.331 16.3271V18.5205H240.532V20.1485C240.532 20.646 240.789 20.8947 241.301 20.8947H257.265V19.2667ZM248.899 15.1739C247.949 15.1739 247.218 15.0533 246.706 14.8121C246.208 14.5558 245.959 14.2166 245.959 13.7945C245.959 13.3724 246.238 13.0106 246.796 12.7091C247.354 12.4076 248.055 12.2569 248.899 12.2569C249.743 12.2569 250.444 12.4076 251.002 12.7091C251.56 13.0106 251.839 13.3724 251.839 13.7945C251.839 14.2166 251.582 14.5558 251.07 14.8121C250.572 15.0533 249.849 15.1739 248.899 15.1739ZM247.248 17.3672C247.806 17.4426 248.356 17.4803 248.899 17.4803C249.502 17.4803 250.014 17.4501 250.437 17.3898V18.5205H247.248V17.3672ZM248.922 28.6281C250.881 28.6281 252.359 28.3266 253.354 27.7236C254.364 27.1357 254.869 26.2915 254.869 25.191C254.869 24.4976 254.635 23.872 254.168 23.3142C253.7 22.7414 253.014 22.2967 252.11 21.9801C251.22 21.6485 250.158 21.4826 248.922 21.4826C247.67 21.4826 246.592 21.6485 245.688 21.9801C244.799 22.2967 244.113 22.7414 243.63 23.3142C243.163 23.872 242.929 24.4976 242.929 25.191C242.929 26.2915 243.434 27.1357 244.444 27.7236C245.469 28.3266 246.962 28.6281 248.922 28.6281ZM248.922 26.299C247.927 26.299 247.195 26.1935 246.728 25.9825C246.261 25.7563 246.027 25.4548 246.027 25.078C246.027 24.7011 246.268 24.3921 246.751 24.1509C247.233 23.9097 247.957 23.7891 248.922 23.7891C249.886 23.7891 250.602 23.9097 251.07 24.1509C251.537 24.3921 251.771 24.7011 251.771 25.078C251.771 25.892 250.821 26.299 248.922 26.299ZM275.328 29.6331C272.638 29.6331 270.461 28.801 268.797 27.1368C267.132 26.1337 265.856 24.5949 264.967 22.5203C264.1 20.4457 263.667 17.9038 263.667 14.8945C263.667 12.022 264.066 9.55984 264.864 7.50805C265.662 5.45627 266.813 3.89464 268.318 2.82315C269.845 1.72886 271.669 1.18172 273.789 1.18172C276.411 1.18172 278.577 2.01383 280.287 3.67806C281.951 4.68115 283.227 6.24279 284.117 8.36297C285.006 10.4831 285.45 13.0593 285.45 16.0914C285.45 20.3773 284.561 23.7057 282.783 26.0767C281.027 28.4476 278.543 29.6331 275.328 29.6331ZM273.789 26.8974C276.434 26.8974 278.52 25.9057 280.047 23.9223C281.597 21.9161 282.373 18.9069 282.373 14.8945C282.373 10.8365 281.597 7.79303 280.047 5.76404C278.52 3.73505 276.434 2.72056 273.789 2.72056C271.145 2.72056 269.047 3.73505 267.497 5.76404C265.97 7.79303 265.206 10.8365 265.206 14.8945C265.206 18.9069 265.97 21.9161 267.497 23.9223C269.047 25.9057 271.145 26.8974 273.789 26.8974ZM273.789 22.5545C272.513 22.5545 271.509 21.9503 270.78 20.7421C270.05 19.511 269.686 17.5732 269.686 14.9287C269.686 12.2614 270.05 10.2894 270.78 9.0127C271.509 7.71323 272.513 7.0635 273.789 7.0635C275.066 7.0635 276.069 7.71323 276.799 9.0127C277.528 10.2894 277.893 12.2614 277.893 14.9287C277.893 17.5732 277.528 19.511 276.799 20.7421C276.069 21.9503 275.066 22.5545 273.789 22.5545ZM273.789 21.0156C275.499 21.0156 276.354 18.9866 276.354 14.9287C276.354 12.5805 276.069 10.8707 275.499 9.79921H275.328C274.507 9.79921 273.869 10.335 273.413 11.4064C272.98 12.4551 272.763 14.0282 272.763 16.1255C272.763 18.3825 273.026 20.0125 273.55 21.0156H273.789ZM292.411 29.6004C291.085 29.4195 290.09 28.9522 289.426 28.1984C288.447 27.6708 287.844 26.8794 287.617 25.8242C287.512 25.2966 287.459 24.7539 287.459 24.1961C287.459 23.7288 287.497 23.2087 287.572 22.6359C287.617 22.2439 287.783 21.9801 288.07 21.8444V21.4374L287.278 21.4148C286.494 21.4148 285.937 21.1208 285.605 20.5329C285.198 20.4123 284.881 20.1938 284.655 19.8772C284.444 19.5606 284.339 19.1611 284.339 18.6787V17.322C284.339 16.6286 284.685 16.2969 285.379 16.3271L286.487 16.3497C285.703 15.6412 285.311 14.6839 285.311 13.478C285.311 12.5584 285.537 11.7594 285.989 11.0811C286.457 10.3876 287.112 9.85247 287.957 9.4756C288.801 9.09874 289.781 8.9103 290.896 8.9103C291.846 8.9103 292.698 9.05351 293.451 9.33993C294.205 9.61128 294.831 10.0032 295.328 10.5158C295.63 10.6816 295.924 10.9002 296.21 11.1715V9.54344C296.21 9.2118 296.293 8.96306 296.459 8.79724C296.64 8.61634 296.896 8.5259 297.228 8.5259H299.353C299.715 8.5259 300.032 8.60127 300.303 8.75202C300.574 8.90276 300.785 9.11381 300.936 9.38516C301.313 9.49068 301.607 9.69419 301.818 9.99568C302.044 10.2972 302.157 10.659 302.157 11.0811V21.8218C302.157 21.9123 302.157 22.1761 302.157 22.6132C302.157 23.0353 302.119 23.4273 302.044 23.7891C301.938 24.3318 301.69 24.7614 301.298 25.078C301.645 25.1986 301.916 25.4172 302.112 25.7337C302.308 26.0352 302.406 26.397 302.406 26.8191V28.2663C302.406 28.8843 302.112 29.2612 301.524 29.3969C300.137 29.6833 298.419 29.8265 296.368 29.8265C294.891 29.8265 293.572 29.7511 292.411 29.6004ZM297.228 23.8795C297.439 23.9097 297.725 23.9248 298.087 23.9248C299.233 23.9248 299.881 23.5403 300.032 22.7715C300.092 22.5303 300.122 22.1158 300.122 21.5279V20.4425V10.2896C300.122 9.79218 299.866 9.54344 299.353 9.54344H297.228V19.9902H294.22C294.085 20.3219 294.017 20.6761 294.017 21.053C294.017 21.3545 294.062 21.5957 294.152 21.7766C294.258 21.9726 294.431 22.1233 294.672 22.2288C294.929 22.3193 295.336 22.3645 295.894 22.3645C296.27 22.3645 296.715 22.3419 297.228 22.2967V23.8795ZM290.896 16.6889C292.389 16.6889 293.519 16.4175 294.288 15.8748C295.057 15.3171 295.441 14.5181 295.441 13.478C295.441 12.4076 295.042 11.5484 294.243 10.9002C293.444 10.252 292.328 9.92785 290.896 9.92785C289.449 9.92785 288.326 10.252 287.527 10.9002C286.728 11.5484 286.329 12.4076 286.329 13.478C286.329 14.5181 286.713 15.3171 287.482 15.8748C288.266 16.4175 289.404 16.6889 290.896 16.6889ZM290.896 14.4503C290.278 14.4503 289.803 14.3523 289.472 14.1563C289.155 13.9603 288.997 13.6588 288.997 13.2518C288.997 12.8599 289.163 12.5509 289.494 12.3247C289.826 12.0986 290.293 11.9856 290.896 11.9856C291.484 11.9856 291.944 12.0986 292.276 12.3247C292.622 12.5509 292.796 12.8599 292.796 13.2518C292.796 13.6438 292.63 13.9453 292.298 14.1563C291.967 14.3523 291.499 14.4503 290.896 14.4503ZM289.087 22.0253C289.54 22.0555 289.849 22.0706 290.014 22.0706C290.632 22.0706 291.107 21.9876 291.439 21.8218C291.786 21.656 291.997 21.3922 292.072 21.0304C292.102 20.8194 292.117 20.4425 292.117 19.8998V19.5606C293.851 19.4551 295.238 19.3345 296.278 19.1988V17.7969C296.278 17.5406 296.195 17.3522 296.029 17.2316C295.863 17.0959 295.637 17.0431 295.351 17.0733C293.12 17.2843 290.632 17.3898 287.889 17.3898C287.316 17.3898 286.472 17.3748 285.356 17.3446V18.6787C285.356 18.9953 285.424 19.229 285.56 19.3797C285.711 19.5305 285.952 19.6058 286.283 19.6058C287.399 19.636 288.334 19.6511 289.087 19.6511V22.0253ZM291.529 27.7914C292.63 27.9422 293.904 28.0175 295.351 28.0175C297.356 28.0175 299.029 27.8743 300.371 27.5879V26.0277C300.371 25.7111 300.288 25.485 300.122 25.3493C299.956 25.2136 299.715 25.1684 299.398 25.2136C297.966 25.4096 296.497 25.5076 294.989 25.5076C294.009 25.5076 293.225 25.4548 292.637 25.3493C292.23 25.289 291.914 25.176 291.688 25.0101C291.462 24.8443 291.326 24.6559 291.281 24.4448C291.251 24.3092 291.235 24.0152 291.235 23.563C291.235 23.0052 290.987 22.7263 290.489 22.7263H288.59C288.514 23.2539 288.477 23.7514 288.477 24.2187C288.477 24.7313 288.522 25.191 288.612 25.598C288.884 26.8342 289.856 27.5653 291.529 27.7914ZM296.662 24.377L296.481 24.1735C295.939 24.1433 295.494 24.0529 295.147 23.9021C294.801 23.7363 294.529 23.4951 294.333 23.1786C294.062 23.073 293.866 22.9675 293.745 22.862C293.534 23.1183 293.316 23.3067 293.09 23.4273C293.21 23.7137 293.271 24.0227 293.271 24.3544V24.3996C293.994 24.4599 294.642 24.4901 295.215 24.4901C295.547 24.4901 296.044 24.475 296.708 24.4448L296.662 24.377ZM307.02 28.7411C306.538 28.7411 306.108 28.6507 305.732 28.4698C305.355 28.304 305.061 28.0628 304.85 27.7462C304.397 27.5653 304.043 27.2864 303.787 26.9096C303.546 26.5327 303.425 26.0804 303.425 25.5528C303.425 25.176 303.493 24.8292 303.629 24.5127C303.764 24.181 303.96 23.8946 304.217 23.6534C303.84 23.5177 303.651 23.2087 303.651 22.7263L303.538 11.3524C303.538 10.674 303.877 10.3349 304.556 10.3349H306.726C307.088 10.3349 307.405 10.4102 307.676 10.561C307.948 10.7117 308.159 10.9228 308.309 11.1941C308.686 11.2996 308.98 11.5032 309.191 11.8047C309.417 12.1061 309.53 12.4679 309.53 12.89L309.463 21.7314C309.463 22.9223 309.123 23.7288 308.445 24.1509C308.807 24.3921 309.086 24.7086 309.282 25.1006C309.493 25.4775 309.598 25.892 309.598 26.3442C309.598 27.0829 309.365 27.6633 308.897 28.0854C308.43 28.5225 307.804 28.7411 307.02 28.7411ZM305.641 22.7489C306.335 22.764 306.802 22.6359 307.043 22.3645C307.299 22.0932 307.427 21.6183 307.427 20.94L307.495 12.0986C307.495 11.6011 307.239 11.3524 306.726 11.3524H304.556L304.669 22.7263L305.641 22.7489ZM306.003 26.9322C306.515 26.9322 306.9 26.8116 307.156 26.5704C307.427 26.3292 307.563 25.99 307.563 25.5528C307.563 25.1157 307.42 24.7463 307.134 24.4448C306.847 24.1283 306.47 23.97 306.003 23.97C305.536 23.97 305.159 24.1283 304.872 24.4448C304.586 24.7463 304.443 25.1157 304.443 25.5528C304.443 25.99 304.571 26.3292 304.827 26.5704C305.098 26.8116 305.49 26.9322 306.003 26.9322Z" fill="#E58E8E"/>
</svg>
