<svg width="124" height="36" viewBox="0 0 124 36" fill="none" xmlns="http://www.w3.org/2000/svg">
<path d="M0 19.1888V15.649H9.78785V9.57316H14.1792V15.649H26.4536C27.0356 15.649 27.4589 15.8075 27.7763 16.1773C28.0938 16.5471 28.2525 16.9698 28.2525 17.4453C28.2525 17.9208 28.0938 18.3435 27.7763 18.7133C27.4589 19.0831 26.9827 19.2416 26.4536 19.2416H0V19.1888ZM24.0728 8.62216C24.0728 10.26 23.8612 11.6336 23.4379 12.8488C23.0676 13.7998 22.4327 14.2753 21.3745 14.2753C20.8455 14.2753 20.4222 14.1168 20.0519 13.747C19.6815 13.43 19.4699 12.9545 19.4699 12.3733C19.4699 12.2148 19.4699 12.0035 19.5228 11.845C19.6815 11.0525 19.7344 10.0487 19.7344 8.83349L19.7873 5.76917H4.3384V2.44067H24.0728V8.62216ZM21.9565 26.9553C21.9565 28.9629 21.2158 30.5479 19.7873 31.7631C18.3588 32.9783 16.4542 33.5594 14.1262 33.5594C11.7983 33.5594 9.89366 32.9783 8.46516 31.7631C7.03667 30.5479 6.29597 28.9629 6.29597 26.9553C6.29597 24.9476 7.03667 23.3626 8.46516 22.1475C9.89366 20.9323 11.7983 20.2983 14.1262 20.2983C16.4542 20.2983 18.3588 20.9323 19.7873 22.1475C21.2158 23.3626 21.9565 25.0004 21.9565 26.9553ZM17.7239 26.9553C17.7239 26.0043 17.3536 25.2118 16.6658 24.6306C15.978 24.0495 15.1315 23.7325 14.1262 23.7325C13.121 23.7325 12.2745 24.0495 11.5867 24.6306C10.8989 25.2118 10.5285 26.0043 10.5285 26.9553C10.5285 27.9591 10.8989 28.7516 11.5867 29.3328C12.2745 29.9139 13.121 30.2309 14.1262 30.2309C15.1315 30.2309 15.978 29.9139 16.6658 29.3328C17.3536 28.7516 17.7239 27.9591 17.7239 26.9553Z" fill="#252727"/>
<path d="M46.9945 16.8377C47.5764 17.3132 47.841 17.8415 47.841 18.4227C47.841 18.8453 47.6823 19.2152 47.4177 19.4793C47.1003 19.7963 46.7299 19.902 46.2538 19.902C46.0421 19.902 45.7776 19.8492 45.513 19.7963C44.6136 19.5322 43.5026 18.7397 42.1799 17.5245C40.8572 16.3093 40.0107 15.1998 39.5874 14.196C39.2171 15.1998 38.3177 16.3622 36.9421 17.7358C35.5136 19.1095 34.2967 19.9548 33.2915 20.3775C33.0269 20.4832 32.8153 20.536 32.5508 20.536C32.0746 20.536 31.7043 20.3775 31.3868 20.0605C31.0694 19.7435 30.9106 19.3737 30.9106 18.951C30.9106 18.4227 31.1752 17.8943 31.7043 17.4717C33.8205 15.6225 35.3019 13.7733 36.1485 11.8713C36.8892 10.1807 37.2595 8.12019 37.2595 5.68986V3.5237H41.6508V5.68986C41.6508 8.06736 42.0741 10.1279 42.9206 11.8713C43.7671 13.6677 45.0898 15.3055 46.9945 16.8377ZM56.0945 29.3063C56.6765 29.3063 57.1527 29.4648 57.4701 29.8346C57.7875 30.1516 57.9463 30.5743 57.9463 31.0498C57.9463 31.5253 57.7875 31.948 57.4172 32.3178C57.0997 32.6876 56.6236 32.8461 56.0416 32.8461H40.5398C39.2171 32.8461 38.2648 32.582 37.7357 32.0536C37.2066 31.5253 36.9421 30.5743 36.9421 29.2006V22.1738H41.3863V28.0911C41.3863 28.8836 41.7566 29.2535 42.5502 29.2535H56.0945V29.3063ZM45.6189 12.1883V8.64852H52.0736V3.15387H56.5178V22.0682C56.5178 22.755 56.3061 23.3361 55.8829 23.706C55.4596 24.0758 54.9305 24.2871 54.2957 24.2871C53.7137 24.2871 53.1846 24.0758 52.7613 23.706C52.3381 23.3361 52.1265 22.8078 52.1265 22.0682V12.2412H45.6189V12.1883Z" fill="#252727"/>
<path d="M86.7404 29.5968C86.7404 31.2347 86.5288 32.6083 86.1055 33.8235C85.7351 34.7745 85.1002 35.25 84.0421 35.25C83.513 35.25 83.0898 35.0915 82.7194 34.7217C82.3491 34.4047 82.1374 33.9292 82.1374 33.348C82.1374 33.1895 82.1374 32.9782 82.1903 32.8197C82.3491 32.0272 82.402 31.0234 82.402 29.8082L82.4549 26.7439H67.006V23.4154H86.7404V29.5968Z" fill="#252727"/>
<path d="M60.6042 4.07851H67.8525V1.01419H72.2439V4.07851H78.9631C79.5451 4.07851 79.9683 4.237 80.2858 4.60684C80.6032 4.97667 80.7619 5.39934 80.7619 5.87484C80.7619 6.35034 80.6032 6.773 80.2858 7.14283C79.9683 7.51266 79.4922 7.67116 78.9631 7.67116H60.6042V4.07851Z" fill="#252727"/>
<path d="M75.2066 10.4184C73.8839 9.30892 72.1909 8.72776 70.0746 8.72776C67.9583 8.72776 66.2653 9.25609 64.9426 10.3656C63.6199 11.4751 62.985 12.9016 62.985 14.6979C62.985 16.4942 63.6199 17.9207 64.9426 19.0302C66.2124 20.1397 67.9583 20.6681 70.0746 20.6681C72.1909 20.6681 73.8839 20.1397 75.2066 19.0302C76.5293 17.9207 77.1642 16.4942 77.1642 14.6979C77.1642 13.0072 76.5293 11.5279 75.2066 10.4184ZM72.4025 16.9169C71.7677 17.4452 71.0269 17.7094 70.0746 17.7094C69.1752 17.7094 68.3816 17.4452 67.7996 16.9169C67.1647 16.3886 66.8473 15.6489 66.8473 14.7507C66.8473 13.9054 67.1647 13.1657 67.7996 12.6374C68.4345 12.1091 69.1752 11.8449 70.0746 11.8449C70.974 11.8449 71.7677 12.1091 72.4025 12.6374C73.0374 13.1657 73.3549 13.9054 73.3549 14.7507C73.3549 15.6489 73.0374 16.3886 72.4025 16.9169Z" fill="#252727"/>
<path d="M90.8142 15.966H86.4758V21.4606H82.0316V2.96899C82.0316 2.28216 82.2433 1.70099 82.6665 1.33116C83.0898 0.961328 83.6188 0.75 84.2537 0.75C84.8357 0.75 85.3648 0.961328 85.788 1.33116C86.2113 1.70099 86.4229 2.22933 86.4229 2.96899V12.3733H90.8142V15.966Z" fill="#252727"/>
<path d="M119.609 21.3021C119.609 21.9889 119.397 22.5701 118.974 22.9399C118.551 23.3098 118.022 23.5211 117.44 23.5211C116.805 23.5211 116.276 23.3098 115.852 22.9399C115.429 22.5701 115.218 22.0418 115.218 21.3021V2.38782H119.662V7.88247H124V11.4223H119.609V21.3021Z" fill="#252727"/>
<path d="M93.4727 20.6153V17.0227H99.8215V10.9469H104.213V17.0227H112.202C112.784 17.0227 113.207 17.1812 113.525 17.551C113.842 17.9209 114.001 18.3435 114.001 18.819C114.001 19.2945 113.842 19.7172 113.525 20.087C113.207 20.4568 112.731 20.6153 112.202 20.6153H93.4727Z" fill="#252727"/>
<path d="M111.726 8.72785C111.726 10.3657 111.514 11.7393 111.091 12.9545C110.72 13.9055 110.086 14.381 109.027 14.381C108.498 14.381 108.075 14.2225 107.705 13.8527C107.334 13.5357 107.123 13.0602 107.123 12.479C107.123 12.3205 107.123 12.1092 107.176 11.9507C107.334 11.1582 107.387 10.1543 107.387 8.93918L107.44 5.87486H95.0069V2.54637H111.779V8.72785H111.726Z" fill="#252727"/>
<path d="M117.757 30.0725C118.339 30.0725 118.815 30.231 119.133 30.6008C119.45 30.9178 119.609 31.3405 119.609 31.816C119.609 32.2915 119.45 32.7142 119.08 33.084C118.762 33.4538 118.286 33.6123 117.704 33.6123H102.255C100.933 33.6123 99.9802 33.3482 99.4511 32.8198C98.9221 32.2915 98.6575 31.3405 98.6575 29.9668V22.94H103.102V28.8573C103.102 29.6498 103.472 30.0197 104.266 30.0197H117.757V30.0725Z" fill="#252727"/>
</svg>
